<?xml version="1.0" encoding="UTF-8" standalone="no"?><!DOCTYPE svg PUBLIC "-//W3C//DTD SVG 1.1//EN" "http://www.w3.org/Graphics/SVG/1.1/DTD/svg11.dtd"><svg width="100%" height="100%" viewBox="0 0 351 338" version="1.1" xmlns="http://www.w3.org/2000/svg" xmlns:xlink="http://www.w3.org/1999/xlink" xml:space="preserve" xmlns:serif="http://www.serif.com/" style="fill-rule:evenodd;clip-rule:evenodd;stroke-linejoin:round;stroke-miterlimit:2;"><g><rect x="255.215" y="121.873" width="43.15" height="213.15" style="fill:#fff;fill-rule:nonzero;"/><path d="M257.475,332.758l38.63,-0l0,-208.621l-38.63,0l0,208.621Zm40.89,4.53l-43.15,0c-1.25,0 -2.27,-1.015 -2.27,-2.265l0,-213.151c0,-1.251 1.02,-2.265 2.27,-2.265l43.15,-0c1.25,-0 2.27,1.014 2.27,2.265l-0,213.151c-0,1.25 -1.02,2.265 -2.27,2.265Z" style="fill-rule:nonzero;"/><rect x="29.015" y="245.523" width="43.154" height="89.096" style="fill:#fff;fill-rule:nonzero;"/><path d="M31.28,332.354l38.623,0l0,-84.566l-38.623,0l-0,84.566Zm40.888,4.53l-43.153,-0c-1.251,-0 -2.265,-1.015 -2.265,-2.265l0,-89.097c0,-1.25 1.014,-2.265 2.265,-2.265l43.153,0c1.251,0 2.265,1.015 2.265,2.265l-0,89.097c-0,1.25 -1.014,2.265 -2.265,2.265Z" style="fill-rule:nonzero;"/><rect x="104.415" y="139.838" width="43.154" height="195.185" style="fill:#acd4f7;fill-rule:nonzero;"/><path d="M106.679,332.758l38.625,-0l0,-190.656l-38.625,-0l0,190.656Zm40.89,4.53l-43.155,0c-1.25,0 -2.265,-1.015 -2.265,-2.265l-0,-195.186c-0,-1.251 1.015,-2.265 2.265,-2.265l43.155,0c1.25,0 2.265,1.014 2.265,2.265l-0,195.186c-0,1.25 -1.015,2.265 -2.265,2.265Z" style="fill-rule:nonzero;"/><rect x="179.815" y="211.082" width="43.15" height="122.468" style="fill:#fff;fill-rule:nonzero;"/><path d="M182.08,331.284l38.625,-0l0,-117.937l-38.625,-0l0,117.937Zm40.885,4.531l-43.15,0c-1.251,0 -2.265,-1.015 -2.265,-2.265l-0,-122.468c-0,-1.251 1.014,-2.265 2.265,-2.265l43.15,0c1.25,0 2.27,1.014 2.27,2.265l0,122.468c0,1.25 -1.02,2.265 -2.27,2.265Z" style="fill-rule:nonzero;"/><path d="M193.365,328.198c-0.14,-0 -0.28,-0.038 -0.41,-0.121c-2.77,-1.79 -5.444,-3.738 -7.949,-5.791c-0.323,-0.264 -0.37,-0.741 -0.106,-1.062c0.264,-0.324 0.74,-0.372 1.062,-0.106c2.463,2.016 5.093,3.93 7.813,5.691c0.35,0.227 0.45,0.693 0.23,1.044c-0.15,0.222 -0.39,0.345 -0.64,0.345Z" style="fill-rule:nonzero;"/><path d="M207.605,327.952c-0.16,0 -0.32,-0.049 -0.45,-0.149l-21.822,-16.184c-0.334,-0.248 -0.405,-0.721 -0.156,-1.056c0.248,-0.333 0.723,-0.402 1.056,-0.156l21.812,16.183c0.34,0.248 0.41,0.722 0.16,1.056c-0.15,0.199 -0.37,0.306 -0.6,0.306Z" style="fill-rule:nonzero;"/><path d="M216.585,320.864c-0.14,0 -0.29,-0.041 -0.42,-0.13l-30.792,-20.839c-0.345,-0.233 -0.436,-0.703 -0.202,-1.048c0.235,-0.346 0.705,-0.435 1.049,-0.202l30.794,20.839c0.341,0.233 0.431,0.703 0.201,1.048c-0.15,0.216 -0.38,0.332 -0.63,0.332Z" style="fill-rule:nonzero;"/><path d="M216.985,308.369c-0.13,0 -0.26,-0.034 -0.38,-0.103c-10.68,-6.246 -21.18,-12.972 -31.229,-19.99c-0.342,-0.239 -0.426,-0.709 -0.187,-1.052c0.242,-0.345 0.712,-0.423 1.051,-0.187c10.015,6.996 20.485,13.7 31.125,19.925c0.36,0.211 0.48,0.674 0.269,1.034c-0.14,0.239 -0.39,0.373 -0.649,0.373Z" style="fill-rule:nonzero;"/><path d="M216.575,295.441c-0.14,-0 -0.28,-0.035 -0.4,-0.111c-10.37,-6.363 -20.72,-13.03 -30.753,-19.816c-0.345,-0.233 -0.436,-0.704 -0.202,-1.049c0.234,-0.345 0.705,-0.435 1.049,-0.202c10.016,6.775 20.346,13.429 30.696,19.781c0.36,0.216 0.47,0.682 0.25,1.038c-0.14,0.231 -0.39,0.359 -0.64,0.359Z" style="fill-rule:nonzero;"/><path d="M216.394,282.44c-0.14,0 -0.27,-0.036 -0.4,-0.115l-31.016,-19.342c-0.354,-0.22 -0.462,-0.686 -0.24,-1.04c0.221,-0.355 0.691,-0.458 1.039,-0.24l31.018,19.342c0.36,0.22 0.459,0.686 0.24,1.04c-0.141,0.23 -0.391,0.355 -0.641,0.355Z" style="fill-rule:nonzero;"/><path d="M216.525,270.398c-0.131,0 -0.261,-0.034 -0.381,-0.105c-10.529,-6.188 -20.979,-12.743 -31.066,-19.482c-0.348,-0.232 -0.441,-0.701 -0.209,-1.047c0.233,-0.348 0.702,-0.44 1.047,-0.21c10.059,6.724 20.489,13.264 30.999,19.439c0.36,0.21 0.479,0.673 0.26,1.032c-0.14,0.24 -0.39,0.373 -0.65,0.373Z" style="fill-rule:nonzero;"/><path d="M215.595,256.294c-0.14,0 -0.28,-0.039 -0.41,-0.118l-29.462,-18.803c-0.353,-0.226 -0.456,-0.692 -0.232,-1.042c0.226,-0.354 0.696,-0.453 1.043,-0.232l29.46,18.803c0.351,0.225 0.461,0.691 0.231,1.042c-0.14,0.226 -0.39,0.35 -0.63,0.35Z" style="fill-rule:nonzero;"/><path d="M215.465,243.678c-0.14,-0 -0.28,-0.037 -0.4,-0.114c-9.82,-6.114 -19.65,-12.478 -29.232,-18.915c-0.345,-0.233 -0.437,-0.702 -0.205,-1.048c0.235,-0.348 0.704,-0.437 1.049,-0.205c9.568,6.427 19.388,12.781 29.188,18.885c0.35,0.221 0.46,0.687 0.24,1.041c-0.14,0.229 -0.39,0.356 -0.64,0.356Z" style="fill-rule:nonzero;"/><path d="M216.525,232.014c-0.141,-0 -0.29,-0.041 -0.42,-0.128l-19.84,-13.369c-0.34,-0.233 -0.43,-0.703 -0.2,-1.048c0.23,-0.348 0.7,-0.435 1.05,-0.205l19.83,13.368c0.35,0.233 0.439,0.704 0.21,1.049c-0.151,0.216 -0.391,0.333 -0.63,0.333Z" style="fill-rule:nonzero;"/><path d="M216.504,220.824c-0.159,-0 -0.309,-0.046 -0.439,-0.139l-5.09,-3.607c-0.34,-0.242 -0.42,-0.712 -0.18,-1.053c0.25,-0.341 0.72,-0.417 1.06,-0.18l5.08,3.607c0.34,0.242 0.42,0.714 0.18,1.053c-0.14,0.208 -0.38,0.319 -0.611,0.319Z" style="fill-rule:nonzero;"/><path d="M19.278,181.328c-0.561,0 -1.123,-0.206 -1.561,-0.622c-0.907,-0.863 -0.944,-2.296 -0.082,-3.203l103.632,-109.088c0.843,-0.883 2.229,-0.945 3.143,-0.137l80.225,70.869l125.31,-123.962c0.89,-0.88 2.33,-0.872 3.21,0.018c0.88,0.889 0.87,2.322 -0.02,3.203l-126.82,125.451c-0.84,0.841 -2.2,0.876 -3.09,0.087l-80.178,-70.825l-102.127,107.504c-0.445,0.469 -1.044,0.705 -1.642,0.705Z" style="fill-rule:nonzero;"/><path d="M2.266,184.446c-0,-9.395 7.616,-17.012 17.011,-17.012c9.396,0 17.012,7.617 17.012,17.012c0,9.396 -7.616,17.012 -17.012,17.012c-9.395,0 -17.011,-7.616 -17.011,-17.012Z" style="fill:#fff;fill-rule:nonzero;"/><path d="M19.278,169.7c-8.132,0 -14.748,6.615 -14.748,14.746c-0,8.131 6.616,14.747 14.748,14.747c8.131,-0 14.747,-6.616 14.747,-14.747c-0,-8.131 -6.616,-14.746 -14.747,-14.746Zm0,34.023c-10.63,0 -19.278,-8.648 -19.278,-19.277c0,-10.629 8.648,-19.277 19.278,-19.277c10.629,0 19.277,8.648 19.277,19.277c-0,10.629 -8.648,19.277 -19.277,19.277Z" style="fill-rule:nonzero;"/><path d="M108.056,74.971c-0,-9.396 7.617,-17.012 17.012,-17.012c9.396,-0 17.012,7.616 17.012,17.012c0,9.395 -7.616,17.012 -17.012,17.012c-9.395,-0 -17.012,-7.617 -17.012,-17.012Z" style="fill:#fff;fill-rule:nonzero;"/><path d="M125.068,60.224c-8.13,-0 -14.746,6.616 -14.746,14.748c0,8.13 6.616,14.745 14.746,14.745c8.131,-0 14.747,-6.615 14.747,-14.745c0,-8.132 -6.616,-14.748 -14.747,-14.748Zm-0,34.023c-10.629,0 -19.276,-8.647 -19.276,-19.275c-0,-10.63 8.647,-19.278 19.276,-19.278c10.63,0 19.277,8.648 19.277,19.278c-0,10.628 -8.647,19.275 -19.277,19.275Z" style="fill-rule:nonzero;"/><path d="M183.507,139.838c0,-9.396 7.618,-17.012 17.008,-17.012c9.4,-0 17.02,7.616 17.02,17.012c-0,9.395 -7.62,17.011 -17.02,17.011c-9.39,-0 -17.008,-7.616 -17.008,-17.011Z" style="fill:#fff;fill-rule:nonzero;"/><path d="M200.525,125.091c-8.14,0 -14.752,6.616 -14.752,14.746c0,8.132 6.612,14.747 14.752,14.747c8.13,-0 14.739,-6.615 14.739,-14.747c-0,-8.13 -6.609,-14.746 -14.739,-14.746Zm-0,34.023c-10.63,0 -19.282,-8.647 -19.282,-19.277c-0,-10.628 8.652,-19.276 19.282,-19.276c10.62,-0 19.27,8.648 19.27,19.276c-0,10.63 -8.65,19.277 -19.27,19.277Z" style="fill-rule:nonzero;"/><path d="M314.525,19.277c-0,-9.395 7.62,-17.012 17.01,-17.012c9.4,0 17.02,7.617 17.02,17.012c-0,9.396 -7.62,17.012 -17.02,17.012c-9.39,0 -17.01,-7.616 -17.01,-17.012Z" style="fill:#fff;fill-rule:nonzero;"/><path d="M331.535,4.53c-8.13,0 -14.74,6.616 -14.74,14.747c-0,8.132 6.61,14.748 14.74,14.748c8.13,0 14.75,-6.616 14.75,-14.748c-0,-8.131 -6.62,-14.747 -14.75,-14.747Zm-0,34.025c-10.63,-0 -19.27,-8.648 -19.27,-19.278c-0,-10.629 8.64,-19.277 19.27,-19.277c10.63,-0 19.28,8.648 19.28,19.277c0,10.63 -8.65,19.278 -19.28,19.278Z" style="fill-rule:nonzero;"/></g></svg>