<?xml version="1.0" encoding="UTF-8" standalone="no"?><!DOCTYPE svg PUBLIC "-//W3C//DTD SVG 1.1//EN" "http://www.w3.org/Graphics/SVG/1.1/DTD/svg11.dtd"><svg width="100%" height="100%" viewBox="0 0 344 369" version="1.1" xmlns="http://www.w3.org/2000/svg" xmlns:xlink="http://www.w3.org/1999/xlink" xml:space="preserve" xmlns:serif="http://www.serif.com/" style="fill-rule:evenodd;clip-rule:evenodd;stroke-linejoin:round;stroke-miterlimit:2;"><g><path d="M268.447,46.621c-3.29,106.379 -2.29,212.866 2.99,319.177c-89.82,-2.909 -178.86,-3.79 -267.8,-1.431c-1.89,-107.705 -1.27,-213.746 -1.3,-320.986c86.49,-0.015 172.98,-0.028 266.11,3.24Z" style="fill:#fff;fill-rule:nonzero;"/><path d="M108.507,360.747c50.86,-0 104.05,0.901 160.54,2.708c-5.11,-104.369 -6.1,-210.207 -2.94,-314.647c-91.46,-3.164 -177.87,-3.183 -261.5,-3.162c0,21.172 -0.02,42.299 -0.04,63.404c-0.08,82.646 -0.16,168.088 1.29,252.992c33.32,-0.863 67.43,-1.295 102.65,-1.295Zm162.93,7.316l-0.08,-0.002c-97.41,-3.157 -184.97,-3.624 -267.66,-1.431c-0.63,0.037 -1.19,-0.21 -1.63,-0.628c-0.43,-0.418 -0.68,-0.991 -0.7,-1.597c-1.5,-85.699 -1.41,-171.949 -1.33,-255.36c0.02,-21.854 0.04,-43.734 0.04,-65.664c0,-0.601 0.24,-1.177 0.66,-1.602c0.43,-0.425 1,-0.664 1.6,-0.664c85.05,-0.02 172.98,-0.029 266.19,3.243c1.24,0.044 2.22,1.088 2.18,2.333c-3.27,105.873 -2.26,213.199 2.99,318.995c0.03,0.633 -0.21,1.249 -0.65,1.7c-0.43,0.433 -1.01,0.677 -1.61,0.677Z" style="fill-rule:nonzero;"/><path d="M242.827,63.023c-5.38,93.116 -2.4,184.742 3.58,277.829c-72.91,-1.231 -145.54,-2.477 -217.98,0.29c-0.8,-93.879 -2.85,-185.906 -4.46,-278.399c75.79,0.749 148.92,0.948 218.86,0.28Z" style="fill:#fff;fill-rule:nonzero;"/><path d="M26.277,65.03c0.41,23.508 0.85,46.984 1.28,70.471c1.24,66.296 2.52,134.825 3.12,203.291c70.93,-2.627 143.28,-1.426 213.32,-0.245c-6.95,-109.083 -8.05,-193.578 -3.57,-273.236c-64.04,0.595 -134.15,0.499 -214.15,-0.281Zm2.15,278.377c-0.58,-0 -1.14,-0.224 -1.56,-0.626c-0.45,-0.423 -0.7,-1.008 -0.7,-1.619c-0.6,-69.219 -1.89,-138.538 -3.13,-205.575c-0.46,-24.265 -0.91,-48.519 -1.33,-72.805c-0.01,-0.612 0.23,-1.201 0.66,-1.635c0.43,-0.434 1.01,-0.62 1.63,-0.669c81.95,0.81 153.52,0.905 218.81,0.281c0.64,-0.003 1.23,0.248 1.66,0.702c0.43,0.454 0.66,1.067 0.62,1.695c-4.66,80.768 -3.56,166.367 3.59,277.553c0.04,0.631 -0.19,1.25 -0.63,1.707c-0.43,0.459 -1.08,0.671 -1.67,0.702l-1.06,-0.017c-71.18,-1.205 -144.78,-2.445 -216.8,0.305l-0.09,0.001Z" style="fill-rule:nonzero;"/><path d="M125.437,38.021c0,-6.23 -1.55,-20.206 11.57,-20.206c9.18,-0 7.18,18.751 8.01,20.215c-6.5,-0.049 -13.03,-0.052 -19.58,-0.009Zm77.97,1.082c-8.88,-0.432 -35.58,-0.714 -44.6,-0.89c-4.15,-3.924 0.45,-23.433 -6.81,-30.693c-5.13,-5.131 -12.96,-5.303 -15.31,-5.251c-5.02,0.108 -11.35,0.52 -15.64,4.659c-7.66,7.393 -5.75,29.652 -7.37,31.212c-9.6,0.128 -37.79,0.321 -47.42,0.565c0,29.361 11.75,34.366 39.93,35.248c43.84,1.37 70.87,1.199 82.01,-3.459c14.07,-5.882 17.67,-17.533 15.21,-31.391Z" style="fill:#acd4f7;fill-rule:nonzero;"/><path d="M134.767,35.726c2.59,-0 5.17,0.007 7.73,0.022c-0.01,-0.268 -0.02,-0.553 -0.03,-0.865c-0.18,-4.804 -0.54,-14.804 -5.46,-14.804c-2.84,-0 -4.93,0.727 -6.4,2.22c-3.04,3.105 -3.02,9.211 -2.94,13.444c2.37,-0.012 4.74,-0.017 7.1,-0.017Zm12.22,1.179l0,0.003l0,-0.003Zm-19.28,1.117l0.01,-0l-0.01,-0Zm17.32,2.273l-0.02,-0c-6.4,-0.049 -12.98,-0.051 -19.55,-0.008c-0.55,0.015 -1.19,-0.233 -1.62,-0.658c-0.42,-0.426 -0.66,-1.004 -0.66,-1.607c0,-0.539 -0.02,-1.134 -0.03,-1.776c-0.1,-5 -0.25,-12.553 4.23,-17.117c2.33,-2.375 5.57,-3.58 9.63,-3.58c9.29,-0 9.76,12.948 9.99,19.172c0.03,0.931 0.07,2.074 0.13,2.481c0.25,0.64 0.2,1.367 -0.15,1.971c-0.41,0.695 -1.15,1.122 -1.95,1.122Zm-76.48,0.624c0.52,25.261 10.18,29.909 37.71,30.771c43.14,1.349 70.24,1.241 81.07,-3.287c11.39,-4.761 16.03,-13.641 14.14,-27.115c-7.25,-0.274 -21.42,-0.484 -32.02,-0.641c-4.4,-0.065 -8.21,-0.121 -10.69,-0.17c-0.56,-0.011 -1.1,-0.233 -1.51,-0.62c-2.46,-2.326 -2.63,-7.071 -2.84,-13.075c-0.23,-6.308 -0.51,-14.156 -4.01,-17.66c-4.32,-4.316 -10.99,-4.653 -13.66,-4.587c-4.92,0.106 -10.48,0.514 -14.12,4.024c-4.61,4.454 -5.35,16.191 -5.79,23.204c-0.34,5.36 -0.48,6.952 -1.58,8.007c-0.41,0.4 -0.96,0.628 -1.54,0.635c-3.18,0.042 -8.38,0.091 -14.28,0.147c-10.67,0.102 -23.68,0.226 -30.88,0.367Zm75.95,36.041c-11,-0 -23.79,-0.288 -38.38,-0.743c-29.13,-0.912 -42.12,-6.543 -42.12,-37.512c0,-1.229 0.98,-2.233 2.2,-2.265c6.47,-0.163 21.29,-0.305 33.19,-0.418c4.94,-0.046 9.4,-0.088 12.58,-0.127c0.13,-1.144 0.24,-2.908 0.34,-4.417c0.51,-8.165 1.29,-20.505 7.17,-26.18c5.22,-5.033 12.99,-5.202 17.16,-5.294c3.24,-0.053 11.4,0.361 16.96,5.915c4.76,4.765 5.07,13.23 5.33,20.7c0.13,3.446 0.28,7.626 1.04,9.35c2.44,0.043 5.77,0.093 9.55,0.149c11.61,0.171 27.52,0.406 34.01,0.724c1.05,0.051 1.93,0.826 2.11,1.867c2.91,16.413 -2.82,28.128 -16.56,33.874c-7.73,3.23 -22.58,4.377 -44.58,4.377Z" style="fill-rule:nonzero;"/><path d="M67.017,142.61l-0.04,-0c-0.85,-0.018 -1.62,-0.509 -1.99,-1.271c-2.69,-5.514 -5.98,-10.758 -9.78,-15.586c-0.77,-0.984 -0.6,-2.409 0.38,-3.181c0.99,-0.773 2.41,-0.604 3.19,0.382c3.09,3.94 5.87,8.143 8.28,12.538l10.81,-20.123c0.59,-1.102 1.97,-1.51 3.07,-0.923c1.1,0.591 1.51,1.966 0.92,3.067l-12.84,23.904c-0.4,0.736 -1.17,1.193 -2,1.193Z" style="fill-rule:nonzero;"/><path d="M67.017,205.421l-0.04,-0c-0.85,-0.018 -1.62,-0.509 -1.99,-1.271c-2.69,-5.514 -5.98,-10.758 -9.78,-15.586c-0.77,-0.984 -0.6,-2.409 0.38,-3.181c0.99,-0.773 2.41,-0.602 3.19,0.382c3.09,3.94 5.87,8.143 8.28,12.538l10.81,-20.123c0.59,-1.103 1.97,-1.511 3.07,-0.923c1.1,0.591 1.51,1.966 0.92,3.067l-12.84,23.904c-0.4,0.736 -1.17,1.193 -2,1.193Z" style="fill-rule:nonzero;"/><path d="M62.317,268.232l-0.04,-0c-0.85,-0.017 -1.62,-0.507 -1.99,-1.271c-2.69,-5.516 -5.98,-10.758 -9.78,-15.586c-0.77,-0.984 -0.6,-2.407 0.38,-3.181c0.99,-0.773 2.41,-0.604 3.19,0.382c3.09,3.939 5.87,8.142 8.28,12.538l10.81,-20.123c0.6,-1.103 1.97,-1.511 3.07,-0.923c1.1,0.593 1.52,1.966 0.92,3.068l-12.84,23.903c-0.4,0.736 -1.17,1.193 -2,1.193Z" style="fill-rule:nonzero;"/><path d="M123.487,131.688c-6.2,-0 -12.39,-0.028 -18.57,-0.082c-1.25,-0.012 -2.26,-1.034 -2.24,-2.286c0.01,-1.243 1.02,-2.245 2.26,-2.245l0.02,-0c36.98,0.337 74.47,-0.333 111.42,-1.974c1.26,-0.111 2.3,0.913 2.36,2.162c0.05,1.249 -0.91,2.307 -2.16,2.362c-30.85,1.373 -62.09,2.063 -93.09,2.063Z" style="fill-rule:nonzero;"/><path d="M123.487,195.965c-6.2,-0 -12.39,-0.028 -18.57,-0.082c-1.25,-0.012 -2.26,-1.034 -2.24,-2.286c0.01,-1.243 1.02,-2.245 2.26,-2.245l0.02,-0c36.98,0.338 74.47,-0.333 111.42,-1.974c1.26,-0.133 2.3,0.911 2.36,2.162c0.05,1.249 -0.91,2.308 -2.16,2.362c-30.85,1.373 -62.09,2.063 -93.09,2.063Z" style="fill-rule:nonzero;"/><path d="M123.487,257.31c-6.2,-0 -12.39,-0.028 -18.57,-0.082c-1.25,-0.012 -2.26,-1.034 -2.24,-2.286c0.01,-1.243 1.02,-2.244 2.26,-2.244l0.02,-0c36.98,0.336 74.47,-0.334 111.42,-1.975c1.26,-0.133 2.3,0.911 2.36,2.162c0.05,1.249 -0.91,2.308 -2.16,2.362c-30.85,1.373 -62.09,2.063 -93.09,2.063Z" style="fill-rule:nonzero;"/><path d="M202.857,61.047c1.84,-3.212 2.97,-6.886 3.36,-10.993c1.25,0.534 2.27,1.74 2.34,3.11c0.24,1.165 -0.29,2.335 -0.45,3.491c-0.45,1.812 -0.83,3.199 -1.19,4.371c-1.35,0.007 -2.71,0.014 -4.06,0.021Z" style="fill:#dedede;fill-rule:nonzero;"/><path d="M132.647,86.075c-3.8,-0 -7.6,-0.165 -11.39,-0.406c-7.42,-0.245 -14.91,-0.306 -22.24,-1.503c-8.14,-1.221 -15.15,-5.563 -22.26,-9.374c-2.18,-1.209 -2.65,-3.596 -1.96,-5.561c6.89,4.996 17.22,6.544 31.32,6.986c14.59,0.455 27.38,0.743 38.38,0.743c22,-0 36.85,-1.147 44.58,-4.377c4.24,-1.774 7.72,-4.116 10.42,-6.99c1.89,-0.008 3.78,-0.018 5.66,-0.028c-0.32,0.692 -0.68,1.43 -1.1,2.286c-2.19,3.202 -1.53,2.778 -5.05,5.709c0.11,-0.087 0.23,-0.174 0.34,-0.262c-1.52,1.192 -3.01,2.465 -4.77,3.271c-4.39,1.665 -8.92,2.964 -13.36,4.519c-6.13,1.386 -6.27,1.127 -10.84,1.806c-1.05,0.304 -11.74,1.665 -13.56,1.768c-4.43,0.73 -10.07,1.057 -17.63,1.233c-2.18,0.126 -4.36,0.18 -6.54,0.18Z" style="fill:#dedede;fill-rule:nonzero;"/><path d="M199.497,65.593c1.3,-1.392 2.42,-2.909 3.36,-4.546c1.35,-0.007 2.71,-0.014 4.06,-0.021c-0.55,1.763 -1.06,3.039 -1.76,4.539c-1.88,0.01 -3.77,0.02 -5.66,0.028Z" style="fill-rule:nonzero;"/><path d="M88.527,70.011c-4.12,-0.846 -7.51,-2.072 -10.24,-3.853c0.2,-0.03 0.4,-0.045 0.61,-0.045c0.27,-0 0.55,0.025 0.84,0.078c2.41,0.471 4.51,2.072 6.77,3.059l-0.25,-0.094l0.26,0.1l0.2,0.09c0.38,0.174 0.54,0.24 0.55,0.24c0.02,-0 -0.31,-0.155 -0.69,-0.306c0.69,0.267 1.33,0.509 1.95,0.731Zm111.01,-12.223c0.09,-0.357 0.87,-2.573 0.91,-3.207c0.1,-1.15 0.47,-2.271 1.08,-3.144c-0.37,2.315 -1.03,4.43 -1.99,6.351Z" style="fill:#96b9d7;fill-rule:nonzero;"/><path d="M144.497,76.96c-11,-0 -23.79,-0.288 -38.38,-0.743c-14.1,-0.442 -24.43,-1.99 -31.32,-6.986c0.54,-1.54 1.79,-2.821 3.49,-3.073c2.73,1.781 6.12,3.007 10.24,3.853c5.65,2.021 8.92,2.27 17.05,2.893c8.57,0.478 17.14,1.027 25.71,1.469l0.02,-0c4.07,-0 8.14,-0.236 12.21,-0.473c4.06,-0.236 8.12,-0.472 12.17,-0.472l0.28,-0c0.32,0.014 1.04,0.03 2.04,0.03c2.27,-0 5.95,-0.085 9.48,-0.486c3.07,-0.329 6.11,-0.855 9.2,-0.978c2.17,-0.411 4.22,-1.261 6.31,-1.95c2.39,-0.782 4.91,-1.091 7.27,-1.93c1.68,-0.869 3.25,-1.957 4.78,-3.073c0.28,-0.256 0.89,-0.808 1.28,-1.291c0.42,-0.706 1.9,-3.008 2.13,-3.641c0.74,-1.401 0.95,-1.92 1.09,-2.28c-0.01,0.005 -0.01,0.007 -0.01,0.007c-0.01,-0 0,-0.017 0,-0.048c0.96,-1.921 1.62,-4.036 1.99,-6.351c0.71,-1.017 1.75,-1.698 3.1,-1.698c0.35,-0 0.72,0.046 1.11,0.145c0.16,0.045 0.32,0.102 0.48,0.17c-0.39,4.107 -1.52,7.781 -3.36,10.993c-0.94,1.637 -2.06,3.154 -3.36,4.546c-2.7,2.874 -6.18,5.216 -10.42,6.99c-7.73,3.23 -22.58,4.377 -44.58,4.377Z" style="fill-rule:nonzero;"/><path d="M199.347,73.298c0.2,-0.156 0.4,-0.31 0.6,-0.462c-0.2,0.154 -0.4,0.308 -0.6,0.462Z" style="fill:#dedede;fill-rule:nonzero;"/><path d="M86.577,69.28l-0.06,-0.024l-0.01,-0.006l0.07,0.03Z" style="fill:#96b9d7;fill-rule:nonzero;"/><path d="M88.607,350.45c-10.6,-0 -21.22,-0.218 -31.81,-0.63c-9.1,-1.095 -18.39,0.167 -27.36,-1.961c-3.43,-0.827 -4.7,-4.875 -3.28,-7.689c0,0.329 0,0.662 0.01,0.992c0,0.611 0.25,1.196 0.7,1.619c0.42,0.402 0.98,0.626 1.56,0.626l0.09,-0.001c31.99,-1.221 64.28,-1.656 96.54,-1.656c40.37,-0 80.69,0.681 120.26,1.351l1.06,0.017c0.59,-0.031 1.24,-0.243 1.67,-0.702c0.44,-0.457 0.67,-1.076 0.63,-1.707c-0.13,-1.968 -0.26,-3.937 -0.38,-5.889c1.53,0.072 3.04,0.109 4.54,0.113c-0.3,2.447 -0.77,4.867 -1.5,7.238c-0.2,0.752 -0.54,1.371 -0.96,1.885c-0.31,1.898 -1.65,3.62 -3.63,4.12c-0.86,0.134 -1.73,0.18 -2.6,0.18c-0.97,-0 -1.94,-0.057 -2.91,-0.114c-0.98,-0.057 -1.95,-0.115 -2.92,-0.115c-0.48,-0 -0.96,0.014 -1.44,0.05c-5.03,0.28 -10.06,0.344 -15.1,0.344c-2.07,-0 -4.14,-0.011 -6.21,-0.022c-2.07,-0.01 -4.13,-0.021 -6.19,-0.021c-5.26,-0 -10.52,0.069 -15.78,0.383c-18.21,1.109 -36.44,1.558 -54.68,1.558c-7.38,-0 -14.76,-0.074 -22.14,-0.207c-2.96,-0.116 -5.92,-0.169 -8.88,-0.169c-5.08,-0 -10.15,0.154 -15.22,0.397c-1.36,0.007 -2.71,0.01 -4.07,0.01Zm153.67,-183.736c-0.05,-35.902 0.87,-69.583 2.75,-102.457c0.22,-0.029 0.45,-0.044 0.69,-0.044c0.37,-0 0.77,0.036 1.21,0.111c1.65,0.454 3.11,1.972 3.21,3.726c0.11,0.459 0.07,1.041 0.01,1.386c-0.02,0.301 -0.04,0.601 -0.05,0.903c-0.23,3.063 -0.1,6.141 -0.32,9.205c-1.21,8.977 -1.28,17.99 -1.39,27.028c-1.47,16.021 -1,32.104 -1.22,48.168c-0.11,3.699 -0.27,7.396 -0.43,11.094c-1.49,0.249 -2.98,0.543 -4.46,0.88Z" style="fill:#dedede;fill-rule:nonzero;"/><path d="M30.677,338.792c-0.01,-0.477 -0.01,-0.95 -0.02,-1.427c0.07,-0.003 0.14,-0.004 0.22,-0.004c0.47,-0 0.94,0.062 1.41,0.19c4.11,0.709 2.49,0.495 4.61,0.612c4.02,-0.116 8.02,-0.366 12.03,-0.366c2.02,-0 4.04,0.063 6.06,0.24c-8.12,0.205 -16.23,0.455 -24.31,0.755Zm213.32,-0.245c-0.72,-0.012 -1.43,-0.024 -2.15,-0.036c0.71,-2.848 0.8,-2.783 0.89,-4.111c0.33,0.034 0.67,0.068 1,0.099c0.09,1.344 0.17,2.696 0.26,4.048Zm-3.81,-0.064c-7.99,-0.135 -16,-0.269 -24.04,-0.396c3.5,0.027 7.01,0.049 10.51,0.051c1.13,-0.094 2.41,-0.133 3.75,-0.133c3.53,-0 7.42,0.269 9.78,0.478Zm-2.2,-204.778c-0.15,-8.246 -0.16,-16.486 0.56,-24.711c-0.24,8.148 -0.43,16.379 -0.56,24.711Zm0.86,-33.687c0.07,-4.376 0.11,-8.753 0.51,-13.111c-0.19,4.348 -0.36,8.721 -0.51,13.111Z" style="fill:#dedede;fill-rule:nonzero;"/><path d="M28.427,343.407c-0.58,-0 -1.14,-0.224 -1.56,-0.626c-0.45,-0.423 -0.7,-1.008 -0.7,-1.619c-0.01,-0.33 -0.01,-0.663 -0.01,-0.992c0.42,-0.845 1.09,-1.579 2.01,-2.08c0.76,-0.444 1.62,-0.69 2.49,-0.725c0.01,0.477 0.01,0.95 0.02,1.427c8.08,-0.3 16.19,-0.55 24.31,-0.755c0.7,0.061 1.41,0.136 2.11,0.227c9.44,0.273 18.9,0.671 28.35,0.671c4.59,-0 9.17,-0.093 13.74,-0.34c1.53,-0.153 3.05,-0.211 4.58,-0.211c4.4,-0 8.8,0.486 13.2,0.607c7.76,0.141 15.52,0.185 23.28,0.185c6.57,-0 13.13,-0.031 19.7,-0.062c9.47,-0.079 18.91,-0.949 28.38,-1.081c3.09,-0.043 6.18,-0.059 9.28,-0.059c6.18,-0 12.36,0.065 18.54,0.113c8.04,0.127 16.05,0.261 24.04,0.396c0.69,0.06 1.24,0.115 1.62,0.158c0.02,-0.044 0.03,-0.088 0.04,-0.13c0.72,0.012 1.43,0.024 2.15,0.036c-0.09,-1.352 -0.17,-2.704 -0.26,-4.048c1.53,0.143 3.05,0.249 4.56,0.321c0.12,1.952 0.25,3.921 0.38,5.889c0.04,0.631 -0.19,1.25 -0.63,1.707c-0.43,0.459 -1.08,0.671 -1.67,0.702l-1.06,-0.017c-39.57,-0.67 -79.89,-1.351 -120.26,-1.351c-32.26,-0 -64.55,0.435 -96.54,1.656l-0.09,0.001Zm209.7,-175.632c0.06,-3.014 0.11,-6.03 0.13,-9.045c0.17,-8.336 -0.12,-16.683 -0.27,-25.025c0.13,-8.332 0.32,-16.563 0.56,-24.711c0,-0.011 0.01,-0.023 0.01,-0.034c0.18,-2.978 0.24,-5.96 0.29,-8.942c0.15,-4.39 0.32,-8.763 0.51,-13.111c0.14,-1.531 0.32,-3.059 0.56,-4.584c1.09,-5.523 -1.01,-17.263 5.11,-18.066c-1.88,32.874 -2.8,66.555 -2.75,102.457c-1.39,0.316 -2.77,0.67 -4.15,1.061Z" style="fill-rule:nonzero;"/><path d="M276.747,169.35c-27.19,-7.36 -57.78,3.564 -76.16,24.913c-18.38,21.347 -24.98,51.742 -19.26,79.326c6.53,31.472 36.59,55.492 59.78,58.348c37.69,4.639 68.59,-13.51 78.21,-25.173c17.71,-21.491 25.73,-51.211 19.18,-78.28c-6.56,-27.07 -28.4,-50.107 -61.75,-59.134Z" style="fill:#fff;fill-rule:nonzero;"/><path d="M259.127,169.312c-20.96,-0 -42.34,9.61 -56.82,26.427c-17.3,20.093 -24.49,49.747 -18.76,77.391c6.29,30.347 34.99,53.744 57.84,56.559c38.47,4.727 67.94,-14.371 76.18,-24.366c17.74,-21.518 24.91,-50.757 18.72,-76.306c-6.68,-27.611 -29.16,-49.1 -60.13,-57.479c-5.54,-1.5 -11.27,-2.226 -17.03,-2.226Zm-6.04,165.621c-4.01,-0 -8.1,-0.237 -12.25,-0.749c-24.41,-3.005 -55.04,-27.887 -61.73,-60.135c-6.01,-28.99 1.57,-60.131 19.76,-81.265c19.57,-22.729 51.11,-33.021 78.47,-25.62c32.59,8.818 56.27,31.542 63.36,60.784c6.51,26.91 -1.01,57.66 -19.64,80.256c-9.88,11.994 -36.4,26.729 -67.97,26.729Z" style="fill-rule:nonzero;"/><path d="M253.427,330.428c-3.9,-0 -7.92,-0.233 -12.04,-0.739c-22.85,-2.815 -51.55,-26.212 -57.84,-56.559c-0.41,-2.003 -0.76,-4.019 -1.04,-6.038c2.15,1.696 2.86,4.849 2.13,7.509c1.75,1.976 4.58,7.23 6.72,10.012c-0.18,-0.243 -0.26,-0.364 -0.26,-0.364c0,-0 0.03,0.041 0.09,0.123c2.98,4.009 6.44,7.578 9.93,11.035c2.23,2.631 4.53,5.159 7.14,7.338c4.4,3.559 8.94,6.924 13.65,9.978c4.53,2.848 9.55,5.261 11.35,5.978c1.69,1.036 12.23,3.438 14.97,3.437l0.07,-0c2.57,0.262 4.99,0.389 7.32,0.389c10.72,-0 19.48,-2.685 31.6,-7.187c11.82,-4.66 14.23,-5.276 26.1,-15.168c2.1,-1.701 13.63,-12.125 18.58,-19.052c-3.48,8.662 -8.29,16.88 -14.33,24.203c-7.36,8.924 -31.64,25.106 -64.14,25.105Z" style="fill:#dedede;fill-rule:nonzero;"/><path d="M255.737,332.68c-6.05,-0 -12.1,-0.671 -18.04,-1.982c-5.59,-0.833 -10.71,-3.47 -15.75,-6.124c-5.77,-3.265 -11.36,-7.046 -16.53,-11.398c-5.25,-5.552 -10.12,-11.897 -14.2,-18.721c-1.35,-2.446 -2.68,-4.903 -4,-7.37c-0.52,-1.082 -1.04,-2.168 -1.52,-3.268c-2.53,-5.799 -4.64,-11.788 -6.37,-17.928c1.28,0.104 2.34,0.543 3.18,1.203c0.28,2.019 0.63,4.035 1.04,6.038c6.29,30.347 34.99,53.744 57.84,56.559c4.12,0.506 8.14,0.739 12.04,0.739c32.5,0.001 56.78,-16.181 64.14,-25.105c6.04,-7.323 10.85,-15.541 14.33,-24.203c0.4,-0.562 0.76,-1.102 1.07,-1.611c0.85,-1.001 1.96,-1.435 3.07,-1.435c0.1,-0 0.21,0.004 0.32,0.012c-2,4.405 -4.05,8.797 -6.3,13.035c-3.28,6.204 -7.68,11.041 -12.67,15.606c-10.08,9.238 -21.34,17.091 -34.01,21.185c-0.61,0.198 -1.04,0.58 -1.31,1.046c-5.04,1.283 -10.16,2.198 -15.23,2.959c-3.68,0.511 -7.39,0.763 -11.1,0.763Z" style="fill-rule:nonzero;"/><path d="M220.117,236.101l46.15,-0.354l0.16,-22.975l39.1,35.772l-38.14,37.217l-0.7,-19.872l-46.81,-0l0.24,-29.788Z" style="fill:#acd4f7;fill-rule:nonzero;"/><path d="M222.167,263.624l44.52,-0c1.22,-0 2.22,0.966 2.27,2.185l0.52,14.753l32.75,-31.964l-33.57,-30.716l-0.13,17.881c-0.01,1.238 -1.01,2.24 -2.25,2.249l-43.91,0.337l-0.2,25.275Zm45.22,24.402c-0.28,-0 -0.57,-0.053 -0.84,-0.162c-0.83,-0.335 -1.39,-1.127 -1.42,-2.024l-0.62,-17.686l-44.63,-0c-0.6,-0 -1.18,-0.242 -1.6,-0.67c-0.43,-0.429 -0.67,-1.01 -0.66,-1.613l0.24,-29.788c0.01,-1.237 1.01,-2.238 2.25,-2.247l43.91,-0.336l0.14,-20.744c0.01,-0.895 0.54,-1.702 1.36,-2.06c0.82,-0.355 1.78,-0.199 2.44,0.406l39.1,35.772c0.46,0.42 0.73,1.012 0.74,1.634c0.01,0.624 -0.24,1.222 -0.69,1.657l-38.14,37.216c-0.43,0.422 -1,0.645 -1.58,0.645Z" style="fill-rule:nonzero;"/></g></svg>