<?xml version="1.0" encoding="UTF-8" standalone="no"?><!DOCTYPE svg PUBLIC "-//W3C//DTD SVG 1.1//EN" "http://www.w3.org/Graphics/SVG/1.1/DTD/svg11.dtd"><svg width="100%" height="100%" viewBox="0 0 135 134" version="1.1" xmlns="http://www.w3.org/2000/svg" xmlns:xlink="http://www.w3.org/1999/xlink" xml:space="preserve" xmlns:serif="http://www.serif.com/" style="fill-rule:evenodd;clip-rule:evenodd;stroke-linejoin:round;stroke-miterlimit:2;"><g><path d="M2.239,12.764l-1.399,119.627l92.703,-0l1.09,-119.345l-92.394,-0.282Z" style="fill:#fff;fill-rule:nonzero;"/><path d="M1.69,131.551l91.023,-0l1.07,-117.667l-90.713,-0.277l-1.38,117.944Zm91.853,1.68l-92.703,-0c-0.224,-0 -0.44,-0.09 -0.598,-0.25c-0.157,-0.16 -0.245,-0.376 -0.242,-0.6l1.4,-119.627c0.005,-0.46 0.38,-0.83 0.84,-0.83l0.002,-0l92.391,0.283c0.22,-0 0.44,0.09 0.6,0.249c0.15,0.159 0.24,0.374 0.24,0.598l-1.09,119.344c-0.01,0.461 -0.38,0.833 -0.84,0.833Z" style="fill-rule:nonzero;"/><path d="M121.463,8.825c0.74,-1.798 1.49,-3.595 2.23,-5.393c0.36,-0.863 0.77,-1.787 1.59,-2.255c0.77,-0.438 1.72,-0.374 2.6,-0.23c1.05,0.173 2.24,0.567 2.61,1.552c0.35,0.916 -0.19,1.903 -0.71,2.734c-1.21,1.927 -2.47,3.829 -3.77,5.703c-0.28,0.399 -0.57,0.81 -0.99,1.055c-0.35,0.203 -0.77,0.275 -1.18,0.275c-0.95,-0.001 -1.93,-0.423 -2.46,-1.201c-0.54,-0.778 -0.54,-1.91 0.08,-2.24Z" style="fill:#fff;fill-rule:nonzero;"/><path d="M121.873,9.555c-0.08,0.124 -0.09,0.617 0.2,1.035c0.35,0.507 1.04,0.836 1.77,0.836c0.31,-0 0.57,-0.056 0.76,-0.162c0.25,-0.148 0.47,-0.44 0.72,-0.807c1.28,-1.85 2.54,-3.758 3.75,-5.672c0.45,-0.715 0.84,-1.451 0.64,-1.992c-0.23,-0.613 -1.2,-0.891 -1.97,-1.016c-0.65,-0.108 -1.48,-0.191 -2.05,0.129c-0.56,0.32 -0.88,1.026 -1.22,1.847l-2.24,5.394c-0.07,0.172 -0.2,0.315 -0.36,0.408Zm1.97,3.551c-1.28,-0 -2.49,-0.6 -3.16,-1.566c-0.47,-0.684 -0.65,-1.566 -0.47,-2.302c0.1,-0.39 0.29,-0.719 0.56,-0.954l2.14,-5.174c0.36,-0.858 0.85,-2.033 1.95,-2.663c1.02,-0.582 2.22,-0.481 3.16,-0.329c1.75,0.287 2.85,0.989 3.26,2.086c0.52,1.394 -0.36,2.8 -0.79,3.476c-1.22,1.935 -2.49,3.864 -3.79,5.734c-0.28,0.404 -0.66,0.957 -1.26,1.304c-0.45,0.257 -0.98,0.388 -1.6,0.388Z" style="fill-rule:nonzero;"/><path d="M99.362,47.481c-5.529,10.939 -9.829,20.955 -16.019,33.189c-0.55,1.634 -1.26,3.225 -1.6,4.915c-0.35,1.689 -0.28,3.539 0.64,5.006c0.92,1.466 2.86,2.395 4.51,1.804c1.37,-0.493 2.21,-1.83 2.93,-3.077c7.179,-12.363 13.51,-25.502 20.11,-38.178l-10.571,-3.659Z" style="fill:#fff;fill-rule:nonzero;"/><path d="M84.123,80.996c-0.16,0.474 -0.34,0.944 -0.51,1.413c-0.42,1.141 -0.82,2.218 -1.05,3.342c-0.25,1.223 -0.36,2.978 0.53,4.393c0.67,1.066 2.21,1.929 3.51,1.46c1.07,-0.383 1.79,-1.5 2.49,-2.709c5.13,-8.815 9.88,-18.162 14.48,-27.202c1.69,-3.314 3.429,-6.731 5.159,-10.076l-8.949,-3.101c-2.551,5.064 -4.82,9.886 -7.21,14.979c-2.59,5.518 -5.28,11.223 -8.45,17.501Zm1.71,12.419c-1.59,-0 -3.23,-0.89 -4.16,-2.378c-1.18,-1.884 -1.07,-4.095 -0.76,-5.618c0.26,-1.253 0.7,-2.443 1.12,-3.594c0.18,-0.474 0.36,-0.948 0.52,-1.425l0.04,-0.109c3.18,-6.277 5.86,-11.988 8.46,-17.511c2.5,-5.323 4.86,-10.35 7.559,-15.677c0.191,-0.375 0.63,-0.554 1.02,-0.415l10.571,3.659c0.23,0.08 0.419,0.256 0.51,0.483c0.09,0.227 0.07,0.482 -0.04,0.698c-1.88,3.613 -3.77,7.331 -5.6,10.926c-4.61,9.061 -9.38,18.43 -14.52,27.286c-0.66,1.124 -1.65,2.823 -3.38,3.445c-0.43,0.155 -0.89,0.23 -1.34,0.23Z" style="fill-rule:nonzero;"/><path d="M110.173,54.063c-2.09,-0.883 -9.85,-4.499 -13.14,-6.641c3.89,-6.607 5.219,-10.768 8.67,-17.742c1.34,-2.711 6.34,-12.377 7.38,-14.439c4.149,-8.222 10.05,-6.473 13.28,-4.227c5.76,4.008 -0.77,11.776 -1.95,13.945c-5.35,9.852 -9.7,18.273 -14.24,29.104Z" style="fill:#acd4f7;fill-rule:nonzero;"/><path d="M98.173,47.142c3.18,1.929 9.01,4.678 11.559,5.812c4.301,-10.186 8.541,-18.456 13.941,-28.396c0.19,-0.347 0.48,-0.784 0.84,-1.338c2.92,-4.446 5.11,-8.918 1.37,-11.516c-1.24,-0.865 -3.72,-2.213 -6.401,-1.537c-2.209,0.558 -4.11,2.392 -5.649,5.453c-0.39,0.775 -1.341,2.624 -2.451,4.775c-1.819,3.551 -4.089,7.97 -4.929,9.658c-1.27,2.577 -2.25,4.751 -3.19,6.851c-1.47,3.276 -2.87,6.38 -5.09,10.238Zm12,7.761c-0.11,-0 -0.22,-0.022 -0.33,-0.066c-2.03,-0.859 -9.89,-4.512 -13.26,-6.711c-0.38,-0.245 -0.5,-0.743 -0.27,-1.13c2.419,-4.112 3.809,-7.201 5.41,-10.78c0.95,-2.114 1.94,-4.303 3.23,-6.909c0.84,-1.698 3.11,-6.124 4.94,-9.68c1.099,-2.146 2.05,-3.99 2.44,-4.764c1.77,-3.514 4.039,-5.643 6.74,-6.324c3.32,-0.84 6.29,0.758 7.77,1.786c5.59,3.89 1.03,10.846 -0.92,13.817c-0.33,0.5 -0.62,0.932 -0.77,1.218c-5.661,10.41 -9.791,18.497 -14.2,29.028c-0.091,0.206 -0.25,0.369 -0.461,0.453c-0.099,0.041 -0.209,0.062 -0.319,0.062Z" style="fill-rule:nonzero;"/><path d="M117.742,51.982c-0.649,-0 -1.289,-0.181 -1.809,-0.534c-1.72,-1.17 -1.98,-3.451 -1.5,-5.075c0.49,-1.666 1.63,-2.996 2.63,-4.169l9.4,-11.007c1.88,-2.197 3.82,-4.469 5.09,-7.052c1.38,-2.793 1.74,-5.629 1.01,-7.987c-0.81,-2.667 -3.21,-4.678 -5.7,-4.78c-0.46,-0.019 -0.82,-0.411 -0.8,-0.874c0.02,-0.463 0.41,-0.83 0.87,-0.805c3.23,0.133 6.2,2.587 7.24,5.967c0.85,2.768 0.45,6.043 -1.11,9.222c-1.37,2.77 -3.38,5.124 -5.32,7.401l-9.4,11.007c-0.9,1.045 -1.91,2.23 -2.3,3.553c-0.32,1.093 -0.14,2.546 0.829,3.211c0.441,0.294 1.12,0.32 1.671,0.066c0.23,-0.105 0.62,-0.348 0.67,-0.785c0.05,-0.461 0.46,-0.797 0.919,-0.746c0.461,0.049 0.801,0.462 0.751,0.924c-0.1,0.921 -0.69,1.698 -1.631,2.132c-0.479,0.221 -1,0.331 -1.51,0.331Z" style="fill-rule:nonzero;"/><path d="M81.343,98.583c-0.12,-0 -0.24,-0.025 -0.36,-0.078c-0.42,-0.195 -0.6,-0.695 -0.41,-1.115l2.56,-5.509c0.2,-0.421 0.69,-0.603 1.12,-0.408c0.42,0.195 0.6,0.694 0.4,1.115l-2.55,5.508c-0.14,0.307 -0.45,0.487 -0.76,0.487Z" style="fill-rule:nonzero;"/><path d="M77.233,39.859l-0.03,-0.001c-19.835,-0.588 -39.948,-0.646 -59.78,-0.173c-0.466,-0.008 -0.85,-0.355 -0.861,-0.82c-0.011,-0.464 0.356,-0.849 0.82,-0.86c19.863,-0.472 40.006,-0.415 59.871,0.174c0.46,0.014 0.83,0.401 0.81,0.865c-0.01,0.455 -0.38,0.815 -0.83,0.815Z" style="fill-rule:nonzero;"/><path d="M51.486,59.342c-11.65,-0 -23.314,-0.286 -34.885,-0.855c-0.463,-0.023 -0.82,-0.417 -0.797,-0.88c0.022,-0.463 0.399,-0.823 0.88,-0.798c19.323,0.952 38.92,1.107 58.249,0.464c0.46,-0.025 0.85,0.348 0.86,0.812c0.02,0.464 -0.34,0.852 -0.81,0.867c-7.797,0.26 -15.645,0.39 -23.497,0.39Z" style="fill-rule:nonzero;"/><path d="M50.69,78.811c-11.645,-0 -23.308,-0.201 -34.872,-0.604c-0.464,-0.016 -0.827,-0.405 -0.811,-0.868c0.017,-0.464 0.403,-0.822 0.869,-0.811c18.844,0.656 37.958,0.778 56.807,0.361l0.02,-0c0.46,-0 0.83,0.364 0.84,0.822c0.01,0.463 -0.35,0.848 -0.82,0.858c-7.314,0.162 -14.671,0.242 -22.033,0.242Z" style="fill-rule:nonzero;"/><path d="M34.834,96.878c-6.602,-0 -13.197,-0.108 -19.756,-0.323c-0.464,-0.016 -0.827,-0.404 -0.812,-0.867c0.015,-0.454 0.388,-0.813 0.839,-0.813l0.028,0.001c15.573,0.51 31.356,0.413 46.915,-0.291c0.451,-0.031 0.856,0.337 0.876,0.801c0.022,0.463 -0.337,0.856 -0.801,0.877c-9.048,0.409 -18.174,0.615 -27.289,0.615Z" style="fill-rule:nonzero;"/><path d="M14.419,113.553c-0.462,-0 -0.837,-0.374 -0.84,-0.836c-0.002,-0.464 0.372,-0.842 0.836,-0.844l59.708,-0.301c0.46,-0 0.84,0.373 0.84,0.836c0,0.464 -0.37,0.842 -0.83,0.844l-59.709,0.301l-0.005,-0Z" style="fill-rule:nonzero;"/><path d="M108.283,56.16c0.24,-0.456 0.469,-0.911 0.699,-1.365c0,0.029 -0.009,0.059 -0.009,0.089c-0.091,0.582 -0.341,1.002 -0.69,1.276Zm-11.32,-5.757c0.019,-0.535 0.26,-1.063 0.69,-1.393c-0.23,0.466 -0.46,0.93 -0.69,1.393Z" style="fill:#dedede;fill-rule:nonzero;"/><path d="M106.252,56.446c-0.219,-0.064 -0.439,-0.153 -0.649,-0.266c-1.63,-0.658 -3.111,-1.587 -4.52,-2.628c-0.971,-0.603 -2.04,-0.992 -3.081,-1.46c0.401,-0.805 0.801,-1.614 1.201,-2.428c2.669,1.458 6.06,3.09 8.39,4.165c-0.45,0.871 -0.9,1.744 -1.341,2.617Z" style="fill:#dedede;fill-rule:nonzero;"/><path d="M107.033,56.56c-0.25,-0 -0.52,-0.039 -0.781,-0.114c0.441,-0.873 0.891,-1.746 1.341,-2.617c0.529,0.245 1.01,0.461 1.409,0.64c0,0.103 0,0.212 -0.02,0.326c-0.23,0.454 -0.459,0.909 -0.699,1.365c-0.34,0.272 -0.781,0.4 -1.25,0.4Zm-9.031,-4.468c-0.059,-0.026 -0.109,-0.053 -0.169,-0.08c-0.62,-0.336 -0.9,-0.977 -0.87,-1.609c0.23,-0.463 0.46,-0.927 0.69,-1.393c0.06,-0.043 0.12,-0.082 0.18,-0.118c0.419,0.249 0.89,0.508 1.37,0.772c-0.4,0.814 -0.8,1.623 -1.201,2.428Z" style="fill-rule:nonzero;"/><path d="M109.002,54.469c-0.399,-0.179 -0.88,-0.395 -1.409,-0.64c-2.33,-1.075 -5.721,-2.707 -8.39,-4.165c-0.48,-0.264 -0.951,-0.523 -1.37,-0.772c0.13,-0.075 0.27,-0.133 0.43,-0.171c0.15,-0.043 0.31,-0.064 0.469,-0.064c0.321,-0 0.64,0.084 0.921,0.245c0.75,0.325 1.5,0.659 2.25,0.99l0.079,0.035l0.121,0.047c1.34,0.484 2.519,1.274 3.769,1.932c1.171,0.59 3.081,1.056 3.13,2.563Z" style="fill-rule:nonzero;"/><path d="M109.732,52.954c-0.529,-0.234 -1.199,-0.537 -1.949,-0.887c-0.18,-0.807 0.28,-1.778 0.589,-2.549c0.731,-1.596 1.581,-3.143 2.26,-4.766c1.441,-3.192 3.141,-6.253 4.711,-9.383c1.74,-3.563 3.519,-7.098 5.44,-10.568c2.17,-4.007 4.79,-7.628 4.7,-10.507c-0.02,-0.94 0.76,-1.504 1.54,-1.529c2.04,2.657 0.04,6.566 -2.51,10.455c-0.36,0.554 -0.65,0.991 -0.84,1.338c-5.4,9.94 -9.64,18.21 -13.941,28.396Z" style="fill:#96b9d7;fill-rule:nonzero;"/><path d="M109.502,53.371c-0.39,-0 -0.77,-0.122 -1.069,-0.382c-0.38,-0.258 -0.571,-0.575 -0.65,-0.922c0.75,0.35 1.42,0.653 1.949,0.887c4.301,-10.186 8.541,-18.456 13.941,-28.396c0.19,-0.347 0.48,-0.784 0.84,-1.338c2.55,-3.889 4.55,-7.798 2.51,-10.455c0.01,-0 0.03,-0.001 0.05,-0.001c0.57,-0 1.13,0.29 1.37,0.934c0.24,0.487 0.1,1.066 0.08,1.59c-0.11,1.059 -0.36,2.096 -0.76,3.085c-3.08,8.064 -7.91,15.308 -11.631,23.074c-1.359,2.601 -2.569,5.274 -3.849,7.911c-0.09,0.182 -0.13,0.273 -0.151,0.298c-0.419,1.073 -0.64,2.275 -1.339,3.192c-0.34,0.338 -0.82,0.523 -1.291,0.523Z" style="fill-rule:nonzero;"/><path d="M92.513,59.681c-0.72,-0.036 -1.43,-0.461 -1.67,-1.163c-0.31,-0.665 -0.1,-1.446 -0.12,-2.159c0.14,-8.173 0.31,-16.364 -0.17,-24.531c-0.19,-5.704 -0.37,-11.406 -0.88,-17.094c-0.01,-0.316 0.06,-0.606 0.18,-0.862l3.72,0.011c0.12,0.296 0.17,0.623 0.2,0.955l-0.39,42.995c-0.29,0.614 -0.58,1.23 -0.87,1.848Z" style="fill:#dedede;fill-rule:nonzero;"/><path d="M93.383,57.833l0.39,-42.995c0.03,0.339 0.04,0.685 0.07,1.012c0.17,2.499 0.43,4.993 0.48,7.498c0.09,6.672 0.9,13.319 0.6,19.998c-0.08,2.896 0.03,5.793 0.02,8.688c-0.03,1.055 -0.2,2.097 -0.3,3.145c-0.42,0.883 -0.84,1.767 -1.26,2.654Zm0.19,-43.95l-3.72,-0.011c0.35,-0.719 1.14,-1.168 1.93,-1.168c0.5,-0 1,0.18 1.38,0.586c0.19,0.176 0.32,0.376 0.41,0.593Z" style="fill-rule:nonzero;"/><path d="M92.613,59.684c-0.04,-0 -0.07,-0.001 -0.1,-0.003c0.29,-0.618 0.58,-1.234 0.87,-1.848c0.42,-0.887 0.84,-1.771 1.26,-2.654c-0.03,0.382 -0.06,0.764 -0.07,1.148c-0.06,1.267 0.05,2.891 -1.48,3.294c-0.16,0.042 -0.32,0.063 -0.48,0.063Z" style="fill-rule:nonzero;"/><path d="M92.703,131.551l-3.07,-0c-0.14,-0.214 -0.23,-0.461 -0.24,-0.733c-0.12,-0.621 0.2,-1.228 0.27,-1.845c0.22,-3.258 0.51,-4 0.4,-7.553c-0.22,-3.445 -0.81,-6.86 -0.83,-10.321c-0.06,-2.173 0.07,-4.345 0.07,-6.519c-0.09,-2.84 -0.11,-5.686 0.01,-8.526c-0.58,0.23 -1.22,0.365 -1.86,0.365c-1.07,-0 -2.11,-0.382 -2.71,-1.328c-0.33,-0.699 -0.38,-1.334 -0.22,-1.873c0.43,0.129 0.87,0.197 1.31,0.197c0.45,-0 0.91,-0.075 1.34,-0.23c1.73,-0.622 2.72,-2.321 3.38,-3.445c0.87,-1.5 1.73,-3.014 2.58,-4.538l-0.42,46.333c-0.01,0.005 -0.01,0.01 -0.01,0.016Z" style="fill:#dedede;fill-rule:nonzero;"/><path d="M91.213,132.391c-0.62,-0 -1.25,-0.323 -1.58,-0.84l3.07,-0c-0.16,0.235 -0.37,0.432 -0.61,0.594c-0.27,0.169 -0.57,0.246 -0.88,0.246Zm1.5,-0.856l0.42,-46.333c0.11,-0.208 0.23,-0.415 0.35,-0.623c0.56,0.266 1,0.785 1.07,1.541c0.11,0.965 -0.37,1.907 -0.52,2.863c-0.21,1.891 0.06,3.797 -0.05,5.692c-0.22,4.486 -0.32,8.97 -0.27,13.46c0.07,3.656 0.38,7.3 0.44,10.955c0,2.938 0.06,7.258 -0.33,8.459c-0.18,1.204 -0.32,2.429 -0.88,3.529l0.09,-0.207c-0.06,0.122 -0.14,0.3 -0.21,0.456c-0.03,0.072 -0.07,0.142 -0.11,0.208Z" style="fill-rule:nonzero;"/><path d="M85.853,91.735c0.36,-0.182 0.78,-0.305 1.22,-0.358c-0.15,0.091 -0.3,0.168 -0.47,0.227c-0.24,0.088 -0.5,0.129 -0.75,0.131Zm4.44,-4.918c0.08,-0.324 0.17,-0.647 0.28,-0.969c0.15,-0.592 0.52,-1.002 0.96,-1.237c-0.41,0.738 -0.82,1.474 -1.24,2.206Z" style="fill:#dedede;fill-rule:nonzero;"/><path d="M85.833,93.415c-0.44,-0 -0.88,-0.068 -1.31,-0.197c0.19,-0.648 0.68,-1.16 1.33,-1.483c0.25,-0.002 0.51,-0.043 0.75,-0.131c0.17,-0.059 0.32,-0.136 0.47,-0.227c0.17,-0.021 0.35,-0.031 0.52,-0.031c0.03,-0 0.06,-0 0.1,0.001c0.01,-0.001 0.03,-0.001 0.05,-0.001c0.09,-0 0.18,0.007 0.27,0.018l0.08,-0.072c0.15,-0.154 0.37,-0.416 0.52,-0.597c0.46,-0.624 0.78,-1.336 1.28,-1.926c0.11,-0.655 0.24,-1.306 0.4,-1.952c0.42,-0.732 0.83,-1.468 1.24,-2.206c0.31,-0.16 0.66,-0.239 1,-0.239c0.33,-0 0.65,0.07 0.95,0.207c-0.12,0.208 -0.24,0.415 -0.35,0.623c-0.85,1.524 -1.71,3.038 -2.58,4.538c-0.66,1.124 -1.65,2.823 -3.38,3.445c-0.43,0.155 -0.89,0.23 -1.34,0.23Z" style="fill-rule:nonzero;"/><path d="M8.377,30.917l-0.009,-0c-0.155,-0.005 -0.276,-0.135 -0.271,-0.29l0.454,-12.718c0.006,-0.155 0.146,-0.277 0.29,-0.27c0.154,0.005 0.275,0.135 0.27,0.289l-0.454,12.719c-0.005,0.152 -0.129,0.27 -0.28,0.27Z" style="fill-rule:nonzero;"/><path d="M13.086,25.115c-0.149,-0 -0.273,-0.118 -0.28,-0.269c-0.106,-2.563 -0.066,-5.159 0.117,-7.716c0.011,-0.154 0.143,-0.27 0.3,-0.259c0.154,0.011 0.27,0.145 0.259,0.299c-0.182,2.536 -0.221,5.111 -0.116,7.653c0.006,0.155 -0.114,0.285 -0.268,0.292l-0.012,-0Z" style="fill-rule:nonzero;"/><path d="M87.343,27.137l-0.01,-0.001c-0.16,-0.009 -0.28,-0.142 -0.27,-0.296l0.55,-8.972c0.01,-0.154 0.15,-0.281 0.3,-0.262c0.15,0.009 0.27,0.142 0.26,0.296l-0.55,8.972c-0.01,0.148 -0.13,0.263 -0.28,0.263Z" style="fill-rule:nonzero;"/><path d="M83.983,22.264c-0.16,-0 -0.28,-0.125 -0.28,-0.279l-0.02,-4.178c0,-0.155 0.13,-0.28 0.28,-0.281c0.16,-0 0.28,0.125 0.28,0.279l0.02,4.179c0,0.154 -0.13,0.28 -0.28,0.28Z" style="fill-rule:nonzero;"/><path d="M6.038,129.45c-0.154,-0 -0.279,-0.124 -0.28,-0.278l-0.037,-7.146c-0.001,-0.155 0.124,-0.281 0.278,-0.282c0.13,0.002 0.281,0.124 0.282,0.279l0.037,7.145c0.001,0.155 -0.124,0.281 -0.278,0.282l-0.002,-0Z" style="fill-rule:nonzero;"/><path d="M9.636,129.615c-0.147,-0 -0.271,-0.115 -0.279,-0.264l-0.188,-3.312c-0.009,-0.154 0.109,-0.286 0.263,-0.295c0.179,-0.008 0.287,0.109 0.296,0.263l0.188,3.312c0.008,0.154 -0.11,0.287 -0.264,0.296l-0.016,-0Z" style="fill-rule:nonzero;"/><path d="M87.193,129.963l-0.01,-0c-0.16,-0.006 -0.28,-0.136 -0.27,-0.29l0.38,-10.891c0.01,-0.154 0.14,-0.265 0.29,-0.27c0.16,0.005 0.28,0.135 0.27,0.29l-0.38,10.891c-0.01,0.151 -0.13,0.27 -0.28,0.27Z" style="fill-rule:nonzero;"/><path d="M84.303,129.285l-0.01,-0.001c-0.16,-0.008 -0.27,-0.14 -0.27,-0.295l0.22,-4.111c0.01,-0.155 0.14,-0.287 0.3,-0.265c0.15,0.008 0.27,0.14 0.26,0.294l-0.22,4.113c-0.01,0.149 -0.13,0.265 -0.28,0.265Z" style="fill-rule:nonzero;"/><path d="M80.613,130.107l-0.01,-0c-0.16,-0.005 -0.28,-0.133 -0.27,-0.288l0.09,-3.023c0,-0.155 0.12,-0.274 0.29,-0.272c0.15,0.005 0.27,0.134 0.27,0.288l-0.09,3.023c-0.01,0.152 -0.13,0.272 -0.28,0.272Z" style="fill-rule:nonzero;"/></g></svg>