<?xml version="1.0" encoding="UTF-8" standalone="no"?><!DOCTYPE svg PUBLIC "-//W3C//DTD SVG 1.1//EN" "http://www.w3.org/Graphics/SVG/1.1/DTD/svg11.dtd"><svg width="100%" height="100%" viewBox="0 0 303 332" version="1.1" xmlns="http://www.w3.org/2000/svg" xmlns:xlink="http://www.w3.org/1999/xlink" xml:space="preserve" xmlns:serif="http://www.serif.com/" style="fill-rule:evenodd;clip-rule:evenodd;stroke-linejoin:round;stroke-miterlimit:2;"><g><path d="M2.265,141.696c42.42,-40.587 87.14,-83.593 129.56,-124.18c7.77,-7.441 16.72,-15.372 27.49,-15.247c6.58,0.076 12.71,3.235 18.28,6.737c50.84,31.969 90.69,104.77 123.1,130.873c-0.64,50.045 -36.62,101.713 -73.6,135.443c-12.82,11.694 -26.98,22.535 -43.51,27.825c-12.35,3.955 -25.63,4.636 -38.48,2.855c-37.78,-5.237 -70.16,-31.275 -91.821,-62.68c-21.659,-31.404 -36.489,-65.632 -51.019,-101.626Z" style="fill:#acd4f7;fill-rule:nonzero;"/><path d="M4.945,142.271c13.42,33.195 28.4,68.151 50.21,99.765c23.85,34.581 56.75,57.077 90.27,61.723c13.16,1.819 26.12,0.866 37.47,-2.77c17.34,-5.551 31.91,-17.527 42.67,-27.34c34.55,-31.517 71.68,-82.816 72.85,-132.711c-13.09,-10.824 -27.5,-29.131 -42.73,-48.485c-23.14,-29.392 -49.36,-62.706 -79.3,-81.529c-4.95,-3.119 -10.86,-6.317 -17.1,-6.389c-9.67,-0.172 -18.1,7.159 -25.9,14.618c-21.21,20.292 -42.99,41.191 -64.77,62.087c-21.41,20.536 -42.81,41.071 -63.67,61.031Zm153.38,166.919c-4.46,-0 -8.98,-0.314 -13.53,-0.944c-34.77,-4.82 -68.8,-28.015 -93.37,-63.639c-22.381,-32.446 -37.59,-68.211 -51.26,-102.063c-0.35,-0.86 -0.13,-1.843 0.54,-2.485c21.2,-20.292 42.99,-41.19 64.77,-62.087c21.79,-20.9 43.57,-41.798 64.78,-62.093c8.47,-8.107 17.72,-16.076 29.08,-15.875c7.36,0.085 13.97,3.631 19.47,7.086c30.6,19.24 57.08,52.882 80.44,82.562c15.41,19.574 29.96,38.062 42.87,48.464c0.54,0.436 0.85,1.096 0.85,1.793c-0.67,51.682 -38.84,104.703 -74.34,137.088c-11.1,10.122 -26.17,22.489 -44.35,28.307c-8.05,2.579 -16.85,3.886 -25.95,3.886Z" style="fill-rule:nonzero;"/><path d="M57.534,30.291c3.421,80.274 5.401,160.609 5.951,240.953c-0,-0 182.69,-3.646 182.84,-5.899c-1.83,-79.286 -2.16,-158.607 -0.99,-237.905l-187.801,2.851Z" style="fill:#fff;fill-rule:nonzero;"/><path d="M59.895,32.52c3.31,78.377 5.27,157.895 5.84,236.413c66.82,-1.345 164.52,-3.789 178.29,-5.386c-1.77,-77.562 -2.1,-156.199 -0.99,-233.807l-183.14,2.78Zm3.59,240.989c-0.59,-0 -1.16,-0.23 -1.58,-0.641c-0.43,-0.423 -0.68,-1.003 -0.69,-1.607c-0.55,-79.991 -2.55,-161.032 -5.941,-240.875c-0.029,-0.611 0.191,-1.206 0.611,-1.651c0.419,-0.445 1.01,-0.701 1.619,-0.71l187.801,-2.851l0.03,-0c0.6,-0 1.18,0.239 1.6,0.664c0.44,0.432 0.67,1.021 0.67,1.635c-1.17,78.924 -0.83,158.938 0.99,237.82l-0.01,0.208c-0.18,2.593 -0.19,2.804 -30.8,3.979c-15.19,0.585 -36.34,1.231 -62.88,1.923c-45.17,1.18 -90.92,2.097 -91.371,2.106l-0.049,-0Z" style="fill-rule:nonzero;"/><path d="M2.265,141.696c5.36,49.071 -0.22,157.862 3.7,170.836c2.56,8.463 10.41,14.208 19.25,14.018c-0,-0 158.38,3.574 248.87,1.625c11.64,-0.25 26.61,-4.522 26.61,-26.742c-0,-56.277 -2.23,-92.455 -0,-161.554c-38.29,38.169 -77.5,75.408 -117.59,111.674c-6.33,5.725 -14.74,11.832 -22.93,9.462c-23.96,-8.499 -43.85,-25.396 -63.14,-41.944c-31.63,-27.123 -63.261,-54.244 -94.77,-77.375Z" style="fill:#fff;fill-rule:nonzero;"/><path d="M25.175,324.285c1.68,0.037 159.46,3.555 248.86,1.625c16.42,-0.352 24.39,-8.36 24.39,-24.477c-0,-19.019 -0.25,-35.902 -0.5,-52.228c-0.48,-31.341 -0.93,-61.018 0.33,-103.701c-36.89,36.649 -75.1,72.874 -113.63,107.729c-6.19,5.601 -15.53,12.721 -25.08,9.957c-24.8,-8.793 -45.62,-26.647 -63.99,-42.399c-29.72,-25.486 -60.41,-51.801 -90.54,-74.244c2.39,27.196 2.09,69.124 1.84,103.22c-0.21,29.066 -0.41,56.521 1.28,62.108c2.26,7.474 9.3,12.583 17.04,12.41Zm184.03,6.732c-85.2,-0 -182.79,-2.174 -184.04,-2.201c-0.15,0.002 -0.31,0.004 -0.46,0.004c-9.51,-0 -18.11,-6.371 -20.91,-15.632c-1.89,-6.247 -1.71,-31.493 -1.47,-63.455c0.26,-36.189 0.59,-81.23 -2.31,-107.791c-0.1,-0.893 0.34,-1.759 1.12,-2.209c0.78,-0.447 1.75,-0.396 2.47,0.137c31.58,23.183 63.77,50.787 94.9,77.482c18.07,15.495 38.55,33.057 62.43,41.528c7.26,2.107 15.26,-4.135 20.65,-9.007c39.89,-36.081 79.43,-73.627 117.51,-111.598c0.66,-0.657 1.65,-0.838 2.5,-0.474c0.85,0.371 1.39,1.223 1.36,2.152c-1.47,45.67 -1,76.522 -0.5,109.183c0.25,16.343 0.51,33.244 0.51,52.297c-0,18.571 -9.97,28.601 -28.83,29.007c-19.23,0.413 -41.62,0.577 -64.93,0.577Z" style="fill-rule:nonzero;"/><path d="M59.705,183.161c-0.77,-0 -1.52,-0.198 -2.181,-0.632c-0.379,-0.32 -0.77,-0.637 -1.149,-0.957c-0.16,-0.191 -0.31,-0.401 -0.43,-0.629l-0.1,-0.13c-0.311,-0.351 -1.75,-2.076 -2.321,-2.55c-0.139,-0.123 -0.289,-0.25 -0.439,-0.377c-0.21,0.152 -0.43,0.285 -0.67,0.395c-9.381,-7.767 -18.77,-15.387 -28.15,-22.723c0.03,-0.092 0.06,-0.184 0.09,-0.274c-0.43,-0.235 -0.86,-0.462 -1.31,-0.677c-5.77,-4.5 -11.52,-8.888 -17.27,-13.137c1.66,-1.588 3.33,-3.181 4.99,-4.777c4.06,1.412 7.81,3.546 11.58,5.583c4.01,2.148 8.11,4.175 11.88,6.753c9.37,6.007 18.559,12.668 25.549,21.415c0.091,4.234 0.181,8.472 0.26,12.705c-0.109,0.008 -0.219,0.012 -0.329,0.012Z" style="fill:#96b9d7;fill-rule:nonzero;"/><path d="M5.775,141.47c-0.72,-0.535 -1.44,-1.069 -2.17,-1.6c-0.33,-0.246 -0.72,-0.39 -1.12,-0.429c0.91,-1.924 2.76,-3.393 5.26,-3.393c0.54,-0 1.11,0.069 1.72,0.218c0.44,0.134 0.87,0.276 1.3,0.427c-1.66,1.596 -3.33,3.189 -4.99,4.777Z" style="fill-rule:nonzero;"/><path d="M60.034,183.149c-0.079,-4.233 -0.169,-8.471 -0.26,-12.705c0.391,0.497 0.78,1 1.161,1.51c1.52,2.357 3.91,4.908 3.21,7.908c-0.46,1.882 -2.26,3.149 -4.111,3.287Z" style="fill-rule:nonzero;"/><path d="M7.375,148.312c-0.36,-0.123 -0.74,-0.25 -1.13,-0.379c-0.41,-0.127 -0.79,-0.28 -1.15,-0.456c-0.02,-0.312 -0.05,-0.621 -0.08,-0.93c0.79,0.587 1.58,1.174 2.36,1.765Z" style="fill:#dedede;fill-rule:nonzero;"/><path d="M57.524,182.529c-0.149,-0.098 -0.299,-0.21 -0.429,-0.333c-0.28,-0.174 -0.51,-0.384 -0.72,-0.624c0.379,0.32 0.77,0.637 1.149,0.957Zm-6.799,-3.909c-1.37,-0 -2.5,-0.857 -3.39,-1.839c-2.291,-2.169 -4.44,-4.483 -6.64,-6.752c-4.07,-4.084 -7.941,-6.262 -14.63,-9.608c-1.81,-0.984 -2.34,-3.098 -1.8,-4.863c9.38,7.336 18.769,14.956 28.15,22.723c-0.46,0.213 -0.96,0.339 -1.49,0.339c-0.03,-0 -0.06,-0.001 -0.09,-0.001c-0.031,0.001 -0.071,0.001 -0.11,0.001Zm-27.68,-24.013c-0.19,-0.093 -0.38,-0.184 -0.58,-0.273l-0.05,-0.023c-5.74,-2.278 -7.9,-3.585 -15.04,-5.999c-0.78,-0.591 -1.57,-1.178 -2.36,-1.765c0.03,0.309 0.06,0.618 0.08,0.93c-3.3,-1.652 -3.9,-5.302 -2.61,-8.036c0.4,0.039 0.79,0.183 1.12,0.429c0.73,0.531 1.45,1.065 2.17,1.6c5.75,4.249 11.5,8.637 17.27,13.137Z" style="fill-rule:nonzero;"/><path d="M248.385,187.766c-0.38,-0.034 -0.74,-0.107 -1.1,-0.216c-0.04,-3.673 -0.08,-7.357 -0.11,-11.031c1.63,-1.474 3.32,-2.873 5.01,-4.27c6.28,-5.13 9.58,-7.62 14.17,-11.266c6.67,-5.374 13.34,-10.737 20.34,-15.691c1.57,-1.246 4.88,-3.858 4.88,-3.858c-0,-0 -0.14,0.109 -0.46,0.364c1.3,-0.892 2.29,-2.289 3.86,-2.708c0.36,-0.11 0.72,-0.166 1.07,-0.175c0.43,0.38 0.86,0.753 1.29,1.117c-16.09,16.016 -32.44,31.953 -48.95,47.734Z" style="fill:#96b9d7;fill-rule:nonzero;"/><path d="M297.335,140.032c-0.43,-0.364 -0.86,-0.737 -1.29,-1.117c0.04,-0.001 0.07,-0.001 0.1,-0.001c0.66,-0 1.29,0.161 1.87,0.443c-0.23,0.225 -0.46,0.451 -0.68,0.675Z" style="fill-rule:nonzero;"/><path d="M247.285,187.55c-2.83,-0.858 -4.99,-3.92 -3.49,-7.186c0.36,-1.247 1.47,-2.028 2.36,-2.9c0.34,-0.319 0.68,-0.634 1.02,-0.945c0.03,3.674 0.07,7.358 0.11,11.031Z" style="fill-rule:nonzero;"/><path d="M288.475,155.179c3.27,-3.221 6.53,-6.447 9.78,-9.675c-0.02,0.683 -0.04,1.362 -0.06,2.038c-0.98,0.78 -2.08,1.464 -2.94,2.315c-2.69,2.217 -4.83,3.854 -6.78,5.322Z" style="fill:#dedede;fill-rule:nonzero;"/><path d="M248.855,187.787c-0.16,-0 -0.32,-0.007 -0.47,-0.021c16.51,-15.781 32.86,-31.718 48.95,-47.734c0.22,-0.224 0.45,-0.45 0.68,-0.675c2.03,0.999 3.33,3.512 2.22,5.746c-0.43,1.003 -1.19,1.758 -2.04,2.439c0.02,-0.676 0.04,-1.355 0.06,-2.038c-3.25,3.228 -6.51,6.454 -9.78,9.675c-3.34,2.516 -6.14,4.537 -10.3,8.141c-8.58,7.606 -17.42,14.955 -25.69,22.901c-1.07,1.097 -2.36,1.567 -3.63,1.566Z" style="fill-rule:nonzero;"/><path d="M162.505,258.654c-0.85,-0 -1.7,-0.042 -2.55,-0.128c-16.12,-5.907 -30.68,-15.916 -43.99,-26.557c0.52,-0.601 1.22,-1.058 2.09,-1.267c0.38,-0.119 0.76,-0.172 1.12,-0.172c1.94,-0 3.6,1.509 5.26,2.463c5.14,3.041 10.11,6.352 15.28,9.316c5.43,2.926 5.51,3.214 10.6,4.722c5.56,1.134 6.77,1.538 11.27,1.538c0.8,-0 1.71,-0.013 2.76,-0.037c8.43,-1.501 14.76,-7.528 19.23,-10.792c8.23,-6.55 11.66,-9.356 19.66,-16.128c7.16,-5.392 13.8,-10.201 16.39,-12.312c2.72,-2.253 9.36,-8.456 13.68,-12.291c0.69,-0.722 1.53,-1.03 2.36,-1.03c1.04,-0 2.07,0.489 2.77,1.257c-18.79,17.804 -37.78,35.389 -56.85,52.637c-2.63,2.376 -5.88,5.077 -9.36,6.978c-3.11,1.136 -6.36,1.803 -9.72,1.803Z" style="fill:#dedede;fill-rule:nonzero;"/><path d="M119.015,240.093c-0.67,-0.419 -1.35,-0.835 -2.03,-1.247c-0.7,-0.38 -1.22,-0.917 -1.58,-1.537c1.19,0.934 2.4,1.864 3.61,2.784Z" style="fill:#dedede;fill-rule:nonzero;"/><path d="M159.955,258.526c-1.09,-0.11 -2.19,-0.293 -3.31,-0.554c-5.17,-0.944 -10.33,-2.187 -15.11,-4.405c-7.9,-3.788 -15.1,-8.845 -22.52,-13.474c-1.21,-0.92 -2.42,-1.85 -3.61,-2.784c-0.94,-1.657 -0.69,-3.908 0.56,-5.34c13.31,10.641 27.87,20.65 43.99,26.557Zm12.27,-1.675c3.48,-1.901 6.73,-4.602 9.36,-6.978c19.07,-17.248 38.06,-34.833 56.85,-52.637c0.84,0.923 1.21,2.249 0.57,3.612c-0.65,1.527 -2.29,2.374 -3.39,3.57c-6.28,5.813 -12.61,11.576 -19.07,17.188c-8.75,7.342 -16.88,15.364 -25.59,22.759c-5.48,5.051 -11.77,9.944 -18.73,12.486Z" style="fill-rule:nonzero;"/><path d="M22.275,314.875c-0.38,-0 -0.7,-0.283 -0.75,-0.667c-1.48,-12.583 -1.46,-25.337 0.08,-37.907c0.05,-0.415 0.45,-0.716 0.84,-0.658c0.42,0.05 0.71,0.426 0.66,0.84c-1.52,12.452 -1.55,25.086 -0.08,37.548c0.05,0.415 -0.25,0.789 -0.66,0.838l-0.09,0.006Z" style="fill-rule:nonzero;"/><path d="M34.705,316.972c-0.36,-0 -0.681,-0.26 -0.74,-0.627c-0.85,-4.906 -1.22,-9.919 -1.12,-14.899c0.01,-0.411 0.34,-0.739 0.75,-0.739l0.02,-0c0.419,0.009 0.75,0.354 0.74,0.771c-0.101,4.883 0.27,9.8 1.1,14.611c0.069,0.411 -0.21,0.802 -0.62,0.873l-0.13,0.01Z" style="fill-rule:nonzero;"/><path d="M147.445,116.654c-0.33,-0 -0.67,0.018 -1,0.054c-5.56,0.626 -10.71,5.249 -13.13,11.782c-2.3,6.207 -2.15,13.246 -1.81,19.925c0.12,2.34 0.88,6.334 2.96,6.449c0.96,0.043 2.11,-0.769 3.12,-1.578c9.42,-7.533 16.38,-18.178 19.77,-29.794c-0.4,-1.252 -1.15,-2.455 -2.22,-3.533c-2.07,-2.09 -4.94,-3.305 -7.69,-3.305Zm-2.09,72.625c-2.08,-0 -4.22,-0.076 -6.41,-0.23c-12.6,-0.873 -25.68,-10.383 -33.33,-24.229c-5.43,-9.841 -12.53,-30.11 0.98,-55.292c9.92,-18.484 35.2,-30.481 54.12,-25.65c22.39,5.706 31.87,20.494 28.17,43.953c-4,25.418 -15.58,28.699 -19.39,29.777c-0.26,0.075 -0.47,0.128 -0.62,0.187c-1.73,0.931 -3.89,1.075 -6,0.36c-2.58,-0.873 -4.89,-2.974 -6.03,-5.484c-1.83,-4.028 -1.29,-8.492 -0.85,-12.078l0.35,-2.892c-4.01,7.347 -9.43,13.921 -15.93,19.121c-1.67,1.347 -3.69,2.687 -6.2,2.566c-4.19,-0.233 -6.9,-4.248 -7.23,-10.739c-0.37,-7.151 -0.52,-14.719 2.08,-21.734c3.01,-8.121 9.63,-13.895 16.87,-14.708c4.39,-0.498 9.13,1.256 12.41,4.559c0.16,0.158 0.31,0.317 0.46,0.479c0.02,-0.094 0.03,-0.188 0.05,-0.282l0.65,-5.401c0.15,-1.22 1.25,-2.106 2.47,-1.982c1.23,0.119 2.13,1.193 2.04,2.42c-0.14,1.871 -0.36,3.738 -0.67,5.592l-2.85,23.547c-0.47,3.847 -0.73,7.002 0.48,9.662c0.62,1.383 1.94,2.585 3.35,3.064c0.65,0.214 1.6,0.375 2.49,-0.098c0.41,-0.223 0.87,-0.353 1.45,-0.517c3.11,-0.883 12.59,-3.57 16.15,-26.124c3.31,-21.046 -4.81,-33.756 -24.82,-38.859c-16.79,-4.271 -40.14,6.878 -49.01,23.402c-12.5,23.294 -5.99,41.927 -1,50.961c6.81,12.342 18.74,21.143 29.67,21.901c25.81,1.788 41.77,-7.132 51.76,-28.923c0.52,-1.135 1.87,-1.635 3.01,-1.113c1.13,0.522 1.63,1.867 1.11,3.004c-9.9,21.569 -25.81,31.779 -49.78,31.78Z" style="fill-rule:nonzero;"/><path d="M230.725,73.912l-0.01,-0c-0.42,-0.003 -0.75,-0.343 -0.75,-0.761c0.09,-11.206 0.02,-22.57 -0.21,-33.774c-0.01,-0.416 0.32,-0.761 0.74,-0.769c0.36,0.042 0.76,0.322 0.77,0.74c0.23,11.216 0.3,22.594 0.21,33.815c-0,0.414 -0.34,0.749 -0.75,0.749Z" style="fill-rule:nonzero;"/><path d="M217.665,57.829c-0.38,-0 -0.71,-0.291 -0.75,-0.68c-0.57,-5.654 -0.74,-11.405 -0.52,-17.092c0.02,-0.407 0.35,-0.725 0.76,-0.725l0.03,-0c0.41,0.016 0.74,0.368 0.72,0.784c-0.22,5.617 -0.05,11.298 0.51,16.883c0.04,0.414 -0.26,0.784 -0.67,0.826l-0.08,0.004Z" style="fill-rule:nonzero;"/></g></svg>