<?xml version="1.0" encoding="UTF-8" standalone="no"?><!DOCTYPE svg PUBLIC "-//W3C//DTD SVG 1.1//EN" "http://www.w3.org/Graphics/SVG/1.1/DTD/svg11.dtd"><svg width="100%" height="100%" viewBox="0 0 126 124" version="1.1" xmlns="http://www.w3.org/2000/svg" xmlns:xlink="http://www.w3.org/1999/xlink" xml:space="preserve" xmlns:serif="http://www.serif.com/" style="fill-rule:evenodd;clip-rule:evenodd;stroke-linejoin:round;stroke-miterlimit:2;"><g><path d="M103.32,110.095c-13.743,3.333 -27.754,5.65 -41.811,5.37c-14.056,-0.28 -28.202,-3.227 -40.896,-10.022c-6.653,-3.561 -12.956,-8.245 -17.655,-14.628c-0.932,-1.265 -1.823,-2.659 -2.065,-4.279c-0.243,-1.62 0.356,-3.507 1.702,-4.144c1.022,-0.485 2.19,-0.164 3.259,0.168c16.922,5.25 34.409,11.921 51.638,8.142c1.222,-0.268 2.771,-1.171 2.427,-2.516c-0.148,-0.576 -0.62,-0.96 -1.065,-1.288c-5.285,-3.887 -11.323,-6.538 -16.046,-11.252c-0.878,-0.877 -1.759,-1.948 -1.822,-3.267c-0.119,-2.495 2.619,-3.866 4.84,-3.867c4.658,-0.003 8.911,2.726 13.257,4.61c7.027,3.046 14.619,3.948 21.958,5.844c7.34,1.896 14.807,5.056 21.383,10.775c1.947,2.03 3.724,4.223 5.303,6.55c1.873,2.759 3.505,6.299 2.075,9.312c-0.902,1.9 -2.66,3.565 -6.482,4.492Z" style="fill:#fff;fill-rule:nonzero;"/><path d="M103.32,110.095l0.005,0l-0.005,0Zm-99.55,-27.112c-0.292,0 -0.566,0.049 -0.816,0.167c-0.9,0.427 -1.441,1.86 -1.231,3.262c0.216,1.444 1.047,2.731 1.911,3.906c4.159,5.647 9.842,10.352 17.375,14.384c11.737,6.283 25.369,9.622 40.518,9.923c12.315,0.252 25.543,-1.454 41.595,-5.346c4.057,-0.984 5.322,-2.775 5.921,-4.036c1.023,-2.155 0.346,-5.008 -2.011,-8.48c-1.542,-2.272 -3.287,-4.429 -5.188,-6.412c-5.673,-4.927 -12.547,-8.385 -21.012,-10.572c-2.304,-0.595 -4.681,-1.101 -6.98,-1.591c-5.025,-1.071 -10.222,-2.179 -15.103,-4.296c-1.029,-0.445 -2.063,-0.943 -3.063,-1.424c-3.33,-1.603 -6.476,-3.116 -9.853,-3.116l-0.006,0c-1.265,0.001 -2.61,0.521 -3.347,1.294c-0.464,0.489 -0.685,1.058 -0.655,1.693c0.051,1.054 0.825,1.962 1.577,2.713c2.897,2.891 6.402,5.05 9.791,7.137c2.048,1.262 4.166,2.567 6.159,4.033c0.4,0.294 1.146,0.843 1.38,1.755c0.16,0.624 0.063,1.247 -0.278,1.802c-0.596,0.966 -1.828,1.534 -2.782,1.743c-15.607,3.423 -31.379,-1.593 -46.63,-6.445c-1.817,-0.578 -3.631,-1.155 -5.436,-1.715c-0.668,-0.207 -1.287,-0.379 -1.836,-0.379Zm60.093,33.345c-0.794,0 -1.583,-0.008 -2.371,-0.023c-15.415,-0.308 -29.303,-3.713 -41.276,-10.122c-7.758,-4.152 -13.625,-9.016 -17.935,-14.869c-0.993,-1.349 -1.949,-2.847 -2.22,-4.653c-0.277,-1.856 0.381,-4.179 2.174,-5.029c1.37,-0.648 2.873,-0.183 3.868,0.126c1.811,0.561 3.627,1.139 5.448,1.718c15.041,4.785 30.593,9.731 45.761,6.405c0.752,-0.165 1.456,-0.569 1.711,-0.984c0.103,-0.167 0.128,-0.322 0.082,-0.504c-0.078,-0.304 -0.413,-0.57 -0.749,-0.817c-1.937,-1.426 -4.025,-2.712 -6.044,-3.956c-3.472,-2.139 -7.061,-4.35 -10.097,-7.379c-0.922,-0.92 -1.99,-2.186 -2.068,-3.823c-0.052,-1.095 0.334,-2.109 1.117,-2.931c1.066,-1.119 2.814,-1.814 4.562,-1.815l0.007,0c3.761,0 7.228,1.668 10.582,3.282c0.985,0.474 2.003,0.964 3.002,1.397c4.727,2.05 9.84,3.14 14.785,4.194c2.316,0.494 4.711,1.004 7.05,1.608c8.738,2.257 15.843,5.841 21.723,10.955l0.054,0.052c1.977,2.058 3.791,4.299 5.393,6.659c2.716,4 3.435,7.413 2.139,10.144c-1.186,2.498 -3.424,4.071 -7.043,4.949c-15.176,3.679 -27.857,5.416 -39.655,5.416Z" style="fill-rule:nonzero;"/><path d="M122.686,121.447c-8.01,1.59 -16.378,1.69 -24.432,0.291c2.278,-13.106 2.558,-26.187 1.178,-39.34c5.337,0.633 10.741,0.586 16.124,0.538c2.589,-0.023 5.179,-0.047 7.585,0.055c1.366,12.748 1.805,25.575 -0.455,38.456Z" style="fill:#fff;fill-rule:nonzero;"/><path d="M122.686,121.447l0.005,0l-0.005,0Zm-23.463,-0.399c7.475,1.197 15.303,1.09 22.734,-0.315c1.826,-10.772 1.958,-22.22 0.425,-36.929c-2.185,-0.069 -4.537,-0.049 -6.818,-0.029c-4.983,0.045 -10.125,0.091 -15.191,-0.428c1.287,13.06 0.91,25.413 -1.15,37.701Zm10.45,2.505c-3.887,0 -7.773,-0.329 -11.563,-0.988c-0.219,-0.037 -0.414,-0.162 -0.543,-0.344c-0.129,-0.182 -0.179,-0.408 -0.14,-0.627c2.212,-12.732 2.595,-25.525 1.169,-39.108c-0.026,-0.254 0.064,-0.506 0.246,-0.686c0.181,-0.18 0.432,-0.265 0.689,-0.236c5.294,0.627 10.748,0.579 16.017,0.531c2.557,-0.022 5.2,-0.046 7.629,0.057c0.415,0.017 0.755,0.336 0.799,0.75c1.659,15.482 1.516,27.415 -0.463,38.69c-0.06,0.342 -0.323,0.611 -0.664,0.679c-4.301,0.854 -8.74,1.282 -13.176,1.282Z" style="fill-rule:nonzero;"/><path d="M111.239,90.718c-1.444,-0.229 -2.961,0.761 -3.397,2.156c-0.436,1.396 0.206,3.033 1.44,3.818c1.233,0.785 2.941,0.696 4.129,-0.156c1.444,-1.037 1.942,-3.361 0.721,-4.653c-0.811,-0.858 -2.098,-1.039 -2.893,-1.165Z" style="fill:#fff;fill-rule:nonzero;"/><path d="M110.817,91.525c-0.934,0 -1.886,0.68 -2.173,1.6c-0.317,1.013 0.161,2.268 1.089,2.858c0.922,0.588 2.263,0.534 3.188,-0.13c0.575,-0.412 0.977,-1.138 1.05,-1.894c0.033,-0.347 0.019,-1.004 -0.449,-1.499c-0.592,-0.625 -1.646,-0.792 -2.344,-0.901l-0.07,-0.011l-0.001,0c-0.096,-0.016 -0.193,-0.023 -0.29,-0.023Zm0.385,6.545c-0.837,0 -1.668,-0.222 -2.371,-0.67c-1.561,-0.993 -2.331,-3.047 -1.791,-4.776c0.562,-1.798 2.504,-3.022 4.331,-2.736l0.069,0.011c0.866,0.137 2.317,0.365 3.302,1.407c0.686,0.725 1.005,1.724 0.901,2.814c-0.119,1.243 -0.771,2.401 -1.743,3.098c-0.788,0.566 -1.747,0.852 -2.698,0.852Z" style="fill-rule:nonzero;"/><path d="M102.702,119.45l-0.047,-0.003c-0.153,-0.027 -0.255,-0.171 -0.229,-0.324c0.369,-2.169 0.603,-4.384 0.695,-6.586c0.007,-0.155 0.143,-0.278 0.291,-0.268c0.155,0.006 0.275,0.137 0.269,0.291c-0.093,2.226 -0.33,4.466 -0.703,6.658c-0.024,0.136 -0.142,0.232 -0.276,0.232Z" style="fill-rule:nonzero;"/><path d="M105.588,119.018l-0.06,-0.006c-0.152,-0.034 -0.247,-0.183 -0.213,-0.334c0.185,-0.837 0.312,-1.693 0.378,-2.547c0.012,-0.154 0.153,-0.277 0.301,-0.257c0.154,0.011 0.269,0.146 0.257,0.301c-0.068,0.878 -0.199,1.762 -0.389,2.623c-0.029,0.131 -0.145,0.22 -0.274,0.22Z" style="fill-rule:nonzero;"/><path d="M108.46,119.589l-0.017,-0.001c-0.154,-0.009 -0.271,-0.142 -0.262,-0.296l0.113,-1.875c0.009,-0.155 0.132,-0.283 0.296,-0.262c0.155,0.009 0.272,0.142 0.263,0.296l-0.113,1.875c-0.009,0.148 -0.132,0.263 -0.28,0.263Z" style="fill-rule:nonzero;"/><path d="M120.096,119.842l-0.034,-0.002c-0.154,-0.018 -0.263,-0.158 -0.245,-0.312l0.83,-6.897c0.019,-0.154 0.163,-0.263 0.312,-0.244c0.153,0.018 0.263,0.158 0.244,0.311l-0.83,6.897c-0.017,0.142 -0.138,0.247 -0.277,0.247Z" style="fill-rule:nonzero;"/><path d="M117.439,119.397l-0.057,-0.006c-0.151,-0.031 -0.249,-0.18 -0.217,-0.331c0.187,-0.899 0.274,-1.823 0.259,-2.745c-0.003,-0.155 0.121,-0.282 0.275,-0.285l0.004,0c0.153,0 0.278,0.123 0.281,0.275c0.016,0.964 -0.075,1.929 -0.271,2.869c-0.027,0.132 -0.144,0.223 -0.274,0.223Z" style="fill-rule:nonzero;"/><path d="M27.299,27.719c-0.637,13.373 -1.592,13.604 -1.15,27.081c10.119,0.028 20.459,1.079 30.639,-0.25c-0.492,-12.952 -0.068,-13.153 -0.203,-26.392c5.076,0.003 5.251,0.003 10.375,-0.086c-9.724,-10.405 -14.14,-16.685 -24.568,-27.232c-10.179,9.921 -15.863,15.724 -25.275,26.383c4.919,0.004 5.432,0.496 10.182,0.496Z" style="fill:#acd4f7;fill-rule:nonzero;"/><path d="M26.963,53.964c2.782,0.023 5.609,0.116 8.352,0.205c6.778,0.223 13.779,0.453 20.605,-0.358c-0.265,-7.252 -0.23,-10.423 -0.187,-14.403c0.031,-2.797 0.065,-5.967 0.012,-11.241c-0.002,-0.225 0.085,-0.44 0.243,-0.6c0.158,-0.159 0.373,-0.249 0.597,-0.249l0.257,0c4.101,-0.001 4.902,0.002 8.222,-0.053c-3.57,-3.871 -6.434,-7.192 -9.214,-10.415c-4.036,-4.681 -7.857,-9.111 -13.47,-14.825c-9.203,8.979 -14.796,14.671 -23.421,24.386c1.435,0.044 2.437,0.138 3.414,0.228c1.34,0.123 2.605,0.241 4.926,0.241c0.229,0 0.449,0.093 0.608,0.259c0.158,0.166 0.241,0.39 0.231,0.619c-0.233,4.903 -0.505,7.991 -0.744,10.715c-0.399,4.543 -0.666,7.594 -0.431,15.491Zm17.978,2.096c-3.253,0 -6.492,-0.107 -9.682,-0.211c-2.996,-0.099 -6.096,-0.2 -9.113,-0.209c-0.452,-0.001 -0.822,-0.361 -0.837,-0.813c-0.282,-8.604 0.009,-11.916 0.411,-16.5c0.224,-2.544 0.475,-5.405 0.696,-9.774c-1.868,-0.026 -3.049,-0.136 -4.197,-0.241c-1.311,-0.121 -2.666,-0.246 -5.102,-0.249c-0.33,-0.001 -0.63,-0.194 -0.765,-0.495c-0.136,-0.302 -0.083,-0.653 0.136,-0.902c9.558,-10.824 15.292,-16.656 25.318,-26.427c0.329,-0.322 0.859,-0.319 1.183,0.011c5.977,6.045 9.939,10.639 14.134,15.503c3.094,3.587 6.293,7.296 10.451,11.746c0.227,0.244 0.289,0.597 0.159,0.901c-0.129,0.306 -0.426,0.506 -0.758,0.512c-4.828,0.085 -5.295,0.095 -9.542,0.086c0.042,4.79 0.009,7.776 -0.02,10.429c-0.045,4.094 -0.081,7.328 0.215,15.091c0.016,0.433 -0.3,0.808 -0.731,0.864c-3.964,0.518 -7.971,0.678 -11.956,0.678Z" style="fill-rule:nonzero;"/><path d="M46.09,43.566c-3.537,-0.235 -7.089,-0.275 -10.631,-0.119c0.015,-3.016 0.157,-6.136 0.298,-9.256c3.656,-0.19 7.156,-0.186 10.554,-0.095c0.137,2.912 0.065,5.831 -0.221,9.47Z" style="fill:#fff;fill-rule:nonzero;"/><path d="M39.691,42.514c1.879,0 3.757,0.054 5.623,0.163c0.21,-2.932 0.27,-5.384 0.19,-7.76c-3.263,-0.075 -6.143,-0.05 -8.942,0.076c-0.114,2.516 -0.223,5.088 -0.255,7.58c1.125,-0.039 2.255,-0.059 3.384,-0.059Zm6.399,1.893l-0.056,-0.002c-3.489,-0.233 -7.034,-0.274 -10.538,-0.118c-0.239,0.003 -0.454,-0.075 -0.62,-0.234c-0.166,-0.16 -0.259,-0.38 -0.257,-0.61c0.015,-3.047 0.16,-6.221 0.299,-9.291c0.019,-0.431 0.364,-0.778 0.796,-0.801c3.306,-0.171 6.681,-0.202 10.62,-0.094c0.439,0.011 0.796,0.361 0.816,0.8c0.137,2.916 0.069,5.869 -0.223,9.575c-0.034,0.44 -0.402,0.775 -0.837,0.775Z" style="fill-rule:nonzero;"/><path d="M31.006,110.963c-0.465,-0.121 -0.927,-0.254 -1.383,-0.408c-0.283,-0.071 -0.514,-0.201 -0.696,-0.369c0.688,0.268 1.381,0.526 2.079,0.777Z" style="fill:#dedede;fill-rule:nonzero;"/><path d="M63.908,114.649c-0.797,0 -1.592,-0.008 -2.381,-0.024c-12.008,-0.239 -23.062,-2.386 -32.976,-6.395c0.208,-0.503 0.646,-0.901 1.296,-0.959c0.087,-0.021 0.174,-0.03 0.26,-0.03c0.418,0 0.821,0.216 1.225,0.322c1.001,0.286 2,0.577 2.999,0.868c2.155,0.589 4.369,0.883 6.568,1.249c2.699,0.664 3.083,0.535 5.872,1.015c0.001,-0.001 0.003,-0.001 0.005,-0.001c0.189,0 4.529,0.693 4.926,0.694c2.765,0.34 5.537,0.452 8.313,0.452c3.548,0 7.1,-0.184 10.646,-0.312c4.386,-0.045 8.667,-0.252 11.885,-0.78c-0.093,0.01 -0.379,0.053 -0.393,0.053c-0.004,0 0.012,-0.003 0.058,-0.011c2.529,-0.531 5.004,-1.296 7.508,-1.928c3.09,-0.78 3.761,-1.139 6.264,-1.837l0.063,-0.018l0.022,-0.006c0.35,-0.212 0.746,-0.333 1.163,-0.381l0.263,-0.044l-0.155,0.021c0.215,-0.064 0.433,-0.096 0.652,-0.096c0.197,0 0.394,0.027 0.59,0.08c0.218,0.06 0.414,0.146 0.588,0.253c-0.072,1.146 -0.158,2.289 -0.259,3.43c-13.186,2.97 -24.463,4.385 -35.002,4.385Z" style="fill:#dedede;fill-rule:nonzero;"/><path d="M59.77,115.264c-5.866,-0.1 -12.514,-0.874 -16.902,-1.537c-1.012,-0.154 -1.992,-0.455 -2.98,-0.714c-1.271,-0.296 -2.57,-0.455 -3.833,-0.785c-1.653,-0.548 -3.371,-0.828 -5.049,-1.265c-0.698,-0.251 -1.391,-0.509 -2.079,-0.777c-0.531,-0.491 -0.643,-1.31 -0.376,-1.956c9.914,4.009 20.968,6.156 32.976,6.395c0.789,0.016 1.584,0.024 2.381,0.024c10.539,0 21.816,-1.415 35.002,-4.385c-0.015,0.172 -0.031,0.342 -0.046,0.514c-0.09,0.037 -0.184,0.069 -0.283,0.096l0.049,-0.032c-0.234,0.087 -0.474,0.163 -0.72,0.218c-0.197,0.057 -0.38,0.078 -0.561,0.078c-0.063,0 -0.125,-0.003 -0.187,-0.007l0.066,0.009c-0.097,0.004 -0.172,0.007 -0.237,0.009c-0.615,0.146 -1.224,0.318 -1.838,0.471c-0.228,0.058 -0.388,0.079 -0.45,0.079c-0.008,0 -0.015,-0.001 -0.02,-0.001c-1.338,0.227 -2.632,0.643 -3.959,0.927c-4.151,0.853 -7.101,1.323 -11.74,1.87c-6.38,0.68 -12.811,0.411 -19.214,0.769Z" style="fill-rule:nonzero;"/><path d="M98.864,110.778c0.015,-0.172 0.031,-0.342 0.046,-0.514c0.101,-1.141 0.187,-2.284 0.259,-3.43c1.468,0.9 1.353,3.26 -0.305,3.944Z" style="fill-rule:nonzero;"/><path d="M97.617,120.471c-0.127,-0.487 -0.069,-1.02 0.232,-1.453c-0.075,0.484 -0.152,0.969 -0.232,1.453Z" style="fill:#dedede;fill-rule:nonzero;"/><path d="M109.676,121.873c-3.51,0 -7.019,-0.275 -10.453,-0.825c0.16,-0.953 0.31,-1.906 0.449,-2.86c0.07,-0.003 0.14,-0.004 0.21,-0.004c0.245,0 0.494,0.014 0.741,0.027c0.249,0.014 0.496,0.027 0.736,0.027c0.156,0 0.309,-0.005 0.458,-0.02c0.25,0.009 0.5,0.018 0.75,0.028c-0.044,0.293 -0.092,0.586 -0.141,0.877c-0.026,0.153 0.076,0.297 0.229,0.324l0.047,0.003c0.134,0 0.252,-0.096 0.276,-0.232c0.054,-0.316 0.104,-0.633 0.153,-0.95c0.75,0.029 1.501,0.06 2.252,0.088c-0.022,0.107 -0.045,0.215 -0.068,0.322c-0.034,0.151 0.061,0.3 0.213,0.334l0.06,0.006c0.129,0 0.245,-0.089 0.274,-0.22c0.031,-0.14 0.06,-0.28 0.088,-0.421c0.76,0.027 1.521,0.052 2.282,0.071l-0.051,0.844c-0.009,0.154 0.108,0.287 0.262,0.296l0.017,0.001c0.148,0 0.271,-0.115 0.28,-0.263l0.052,-0.864c0.174,0.004 0.348,0.007 0.522,0.01c0.23,0.003 0.454,0.005 0.675,0.005c3.119,0 5.364,-0.281 7.361,-0.588c-0.043,0.394 -0.105,0.785 -0.185,1.171c-0.032,0.151 0.066,0.3 0.217,0.331l0.057,0.006c0.13,0 0.247,-0.091 0.274,-0.223c0.094,-0.453 0.164,-0.912 0.21,-1.374c0.495,-0.078 0.979,-0.157 1.46,-0.232c0.228,-0.042 0.462,-0.068 0.686,-0.128l-0.252,2.088c-0.018,0.154 0.091,0.294 0.245,0.312l0.034,0.002c0.139,0 0.26,-0.105 0.277,-0.247l0.284,-2.363c0.188,-0.046 0.379,-0.071 0.569,-0.071c0.436,0 0.864,0.131 1.213,0.425c-0.144,1.053 -0.304,2.097 -0.48,3.134c-0.019,0.008 -0.038,0.016 -0.058,0.023c-3.999,0.753 -8.113,1.13 -12.225,1.13Z" style="fill:#dedede;fill-rule:nonzero;"/><path d="M110.223,122.125c-3.129,-0.026 -6.256,-0.273 -9.387,-0.273c-0.488,0 -0.977,0.006 -1.465,0.02l-0.057,0c-0.862,0 -1.501,-0.646 -1.697,-1.401c0.08,-0.484 0.157,-0.969 0.232,-1.453c0.065,-0.094 0.142,-0.183 0.23,-0.265c0.449,-0.42 1.005,-0.544 1.593,-0.565c-0.139,0.954 -0.289,1.907 -0.449,2.86c3.434,0.55 6.943,0.825 10.453,0.825c4.112,0 8.226,-0.377 12.225,-1.13c-0.096,0.037 -0.196,0.065 -0.301,0.084c-0.243,0.07 -0.489,0.097 -0.739,0.112c-1.139,0.264 -2.289,0.499 -3.455,0.59c-2.394,0.199 -4.781,0.499 -7.183,0.596Zm11.736,-1.405c0.176,-1.037 0.336,-2.081 0.48,-3.134c0.039,0.033 0.078,0.069 0.115,0.106c0.975,0.935 0.525,2.553 -0.595,3.028Z" style="fill-rule:nonzero;"/><path d="M102.702,119.45l-0.047,-0.003c-0.153,-0.027 -0.255,-0.171 -0.229,-0.324c0.049,-0.291 0.097,-0.584 0.141,-0.877c0.188,0.007 0.376,0.015 0.564,0.022c-0.049,0.317 -0.099,0.634 -0.153,0.95c-0.024,0.136 -0.142,0.232 -0.276,0.232Z" style="fill-rule:nonzero;"/><path d="M105.588,119.018l-0.06,-0.006c-0.152,-0.034 -0.247,-0.183 -0.213,-0.334c0.023,-0.107 0.046,-0.215 0.068,-0.322c0.189,0.007 0.378,0.014 0.567,0.021c-0.028,0.141 -0.057,0.281 -0.088,0.421c-0.029,0.131 -0.145,0.22 -0.274,0.22Z" style="fill-rule:nonzero;"/><path d="M108.46,119.589l-0.017,-0.001c-0.154,-0.009 -0.271,-0.142 -0.262,-0.296l0.051,-0.844c0.186,0.005 0.373,0.01 0.56,0.014l-0.052,0.864c-0.009,0.148 -0.132,0.263 -0.28,0.263Z" style="fill-rule:nonzero;"/><path d="M120.096,119.842l-0.034,-0.002c-0.154,-0.018 -0.263,-0.158 -0.245,-0.312l0.252,-2.088c0.026,-0.007 0.052,-0.014 0.078,-0.022c0.163,-0.08 0.335,-0.142 0.51,-0.186l-0.284,2.363c-0.017,0.142 -0.138,0.247 -0.277,0.247Z" style="fill-rule:nonzero;"/><path d="M117.439,119.397l-0.057,-0.006c-0.151,-0.031 -0.249,-0.18 -0.217,-0.331c0.08,-0.386 0.142,-0.777 0.185,-1.171c0.193,-0.029 0.384,-0.059 0.573,-0.089c-0.046,0.462 -0.116,0.921 -0.21,1.374c-0.027,0.132 -0.144,0.223 -0.274,0.223Z" style="fill-rule:nonzero;"/></g></svg>