<?xml version="1.0" encoding="UTF-8" standalone="no"?><!DOCTYPE svg PUBLIC "-//W3C//DTD SVG 1.1//EN" "http://www.w3.org/Graphics/SVG/1.1/DTD/svg11.dtd"><svg width="100%" height="100%" viewBox="0 0 137 124" version="1.1" xmlns="http://www.w3.org/2000/svg" xmlns:xlink="http://www.w3.org/1999/xlink" xml:space="preserve" xmlns:serif="http://www.serif.com/" style="fill-rule:evenodd;clip-rule:evenodd;stroke-linejoin:round;stroke-miterlimit:2;"><g><path d="M87.247,122.652c-10.49,-0.014 -21.185,0.053 -31.908,0.121c-14.299,0.09 -28.649,0.179 -42.627,0.076c-0,-24.054 -0.297,-48.987 -1.697,-75.827c22.366,-0.553 50.103,-0.787 77.941,-1.047c-1.388,26.754 -3.029,58.938 -1.709,76.677Z" style="fill:#fff;fill-rule:nonzero;"/><path d="M13.552,122.015c13.745,0.094 28.035,0.004 41.865,-0.083c10.202,-0.064 20.741,-0.131 30.928,-0.121c-1.207,-17.979 0.398,-49.397 1.726,-74.988l-4.359,0.041c-26.236,0.243 -51.035,0.474 -71.813,0.977c1.436,27.982 1.648,53.143 1.653,74.174Zm12.583,1.72c-4.513,0 -8.999,-0.013 -13.429,-0.046c-0.461,-0.003 -0.834,-0.378 -0.834,-0.84c-0,-21.391 -0.201,-47.122 -1.695,-75.783c-0.013,-0.227 0.068,-0.448 0.222,-0.615c0.154,-0.166 0.369,-0.263 0.596,-0.269c20.965,-0.518 46.095,-0.751 72.701,-0.998l5.253,-0.049l0.008,0c0.229,0 0.447,0.094 0.606,0.259c0.16,0.167 0.245,0.394 0.232,0.625c-1.356,26.133 -3.044,58.657 -1.71,76.57c0.017,0.233 -0.063,0.464 -0.224,0.635c-0.158,0.17 -0.38,0.268 -0.614,0.268l-0.001,0c-10.456,-0.015 -21.318,0.054 -31.817,0.12c-9.654,0.061 -19.533,0.123 -29.294,0.123Z" style="fill-rule:nonzero;"/><path d="M100.73,51.74c-35.651,0 -67.629,0.613 -99.889,0.613c15.696,-16.549 32.511,-35.164 48.556,-51.513c16.575,15.94 32.713,34.8 51.333,50.9Z" style="fill:#fff;fill-rule:nonzero;"/><path d="M49.414,2.022c-9.84,10.049 -20.047,21.021 -29.925,31.64c-5.52,5.934 -11.214,12.055 -16.695,17.851c15.048,-0.012 29.847,-0.15 45.477,-0.295c16.117,-0.15 32.763,-0.305 50.219,-0.317c-10.79,-9.499 -20.787,-19.902 -30.471,-29.978c-6.376,-6.635 -12.41,-12.913 -18.605,-18.901Zm-48.573,51.171c-0.336,0 -0.639,-0.2 -0.772,-0.508c-0.133,-0.309 -0.07,-0.667 0.163,-0.91c5.884,-6.204 12.057,-12.84 18.027,-19.258c10.08,-10.835 20.503,-22.04 30.538,-32.266c0.322,-0.328 0.85,-0.336 1.182,-0.017c6.431,6.184 12.658,12.664 19.252,19.525c10.16,10.572 20.668,21.506 32.048,31.345c0.266,0.23 0.36,0.601 0.237,0.929c-0.121,0.329 -0.435,0.547 -0.786,0.547c-18.268,0 -35.642,0.162 -52.443,0.318c-16.31,0.152 -31.715,0.295 -47.446,0.295Z" style="fill-rule:nonzero;"/><path d="M62.542,96.8c-8.085,-0.049 -16.171,-0.099 -24.257,-0.148c-0.812,-8.199 -1.303,-16.19 -1.182,-24.19c8.39,-0.415 16.804,-0.401 25.71,0.031c0.159,7.831 0.058,15.666 -0.271,24.307Z" style="fill:#acd4f7;fill-rule:nonzero;"/><path d="M39.048,95.817l22.686,0.138c0.302,-8.287 0.384,-15.531 0.254,-22.66c-8.35,-0.383 -16.237,-0.393 -24.055,-0.032c-0.069,6.784 0.287,13.994 1.115,22.554Zm23.494,1.823l-0.004,0l-24.257,-0.148c-0.43,-0.003 -0.789,-0.329 -0.832,-0.757c-0.92,-9.292 -1.296,-17.009 -1.186,-24.285c0.007,-0.443 0.356,-0.805 0.799,-0.827c8.377,-0.414 16.812,-0.404 25.791,0.031c0.442,0.021 0.79,0.381 0.8,0.822c0.156,7.648 0.07,15.387 -0.271,24.356c-0.017,0.451 -0.388,0.808 -0.84,0.808Z" style="fill-rule:nonzero;"/><path d="M37.635,80.365c-0.152,0 -0.277,-0.121 -0.28,-0.274c-0.003,-0.155 0.12,-0.283 0.275,-0.286c8.259,-0.168 16.657,-0.302 24.961,-0.401c0.145,-0.01 0.281,0.122 0.283,0.277c0.002,0.155 -0.122,0.282 -0.277,0.283c-8.302,0.099 -16.698,0.233 -24.956,0.401l-0.006,0Z" style="fill-rule:nonzero;"/><path d="M49.861,96.693l-0.007,0c-0.155,-0.005 -0.277,-0.134 -0.272,-0.288l0.459,-16.362c0.004,-0.155 0.133,-0.286 0.287,-0.272c0.155,0.004 0.277,0.133 0.273,0.287l-0.46,16.362c-0.004,0.152 -0.128,0.273 -0.28,0.273Z" style="fill-rule:nonzero;"/><path d="M16.376,69.214c-0.149,0 -0.273,-0.118 -0.279,-0.269l-0.46,-12.425c-0.005,-0.154 0.116,-0.284 0.27,-0.29c0.182,-0.002 0.284,0.115 0.29,0.269l0.46,12.425c0.005,0.155 -0.116,0.284 -0.27,0.29l-0.011,0Z" style="fill-rule:nonzero;"/><path d="M19.652,61.463c-0.149,0 -0.271,-0.115 -0.28,-0.264l-0.282,-5.07c-0.009,-0.154 0.109,-0.286 0.264,-0.295c0.152,-0.014 0.287,0.11 0.295,0.264l0.281,5.07c0.01,0.154 -0.108,0.286 -0.263,0.295l-0.015,0Z" style="fill-rule:nonzero;"/><path d="M13.528,118.241c-0.46,0 -0.835,-0.371 -0.84,-0.831c-0.005,-0.464 0.367,-0.845 0.831,-0.849l72.915,-0.794l0.01,0c0.46,0 0.835,0.37 0.84,0.83c0.005,0.465 -0.367,0.845 -0.831,0.849l-72.915,0.795l-0.01,0Z" style="fill-rule:nonzero;"/><path d="M95.001,81.493c-8.029,0.16 -15.235,7.468 -15.282,15.497c-0.048,8.03 7.07,15.423 15.096,15.678c8.026,0.256 15.601,-6.668 16.063,-14.685c0.128,-2.194 -0.216,-4.415 -0.995,-6.47c-2.365,-6.237 -9.01,-10.138 -14.882,-10.02Z" style="fill:#fff;fill-rule:nonzero;"/><path d="M95.001,81.493l0.005,0l-0.005,0Zm0.27,0.837l-0.253,0.003c-7.523,0.15 -14.415,7.138 -14.459,14.662c-0.045,7.524 6.763,14.594 14.283,14.834c0.131,0.004 0.265,0.006 0.397,0.006c7.377,0.001 14.375,-6.521 14.802,-13.9c0.119,-2.065 -0.207,-4.183 -0.943,-6.124c-2.064,-5.444 -7.976,-9.481 -13.827,-9.481Zm-0.016,31.186c-0.157,0 -0.31,-0.003 -0.466,-0.008c-8.526,-0.272 -15.96,-7.993 -15.911,-16.523c0.051,-8.529 7.578,-16.161 16.106,-16.332c6.601,-0.123 13.351,4.408 15.683,10.562c0.821,2.16 1.184,4.517 1.051,6.817c-0.483,8.36 -8.117,15.483 -16.463,15.484Z" style="fill-rule:nonzero;"/><path d="M95.802,105.632l-0.019,0c-2.232,-0.003 -4.48,-0.507 -6.5,-1.456c-0.42,-0.197 -0.6,-0.697 -0.403,-1.117c0.197,-0.421 0.697,-0.6 1.117,-0.403c1.799,0.845 3.801,1.293 5.789,1.296l0.016,0c1.3,0 2.311,-0.21 3.089,-0.64c0.891,-0.492 1.492,-1.345 1.531,-2.173c0.068,-1.414 -1.413,-2.603 -2.84,-3.004c-0.969,-0.273 -1.99,-0.334 -3.071,-0.4c-0.778,-0.047 -1.582,-0.096 -2.383,-0.229c-1.556,-0.259 -2.63,-0.875 -3.194,-1.833c-0.754,-1.288 -0.366,-2.834 0.249,-3.851c0.99,-1.638 2.814,-2.787 5.001,-3.153c1.633,-0.271 3.378,-0.145 5.664,0.413c0.45,0.11 0.726,0.565 0.617,1.015c-0.11,0.451 -0.563,0.728 -1.015,0.617c-2.055,-0.501 -3.592,-0.621 -4.988,-0.387c-1.679,0.28 -3.115,1.164 -3.842,2.365c-0.348,0.575 -0.618,1.478 -0.235,2.131c0.298,0.507 0.976,0.852 2.019,1.026c0.714,0.119 1.44,0.162 2.207,0.209c1.124,0.068 2.284,0.139 3.426,0.46c2.102,0.591 4.173,2.396 4.063,4.701c-0.067,1.419 -0.985,2.784 -2.396,3.564c-1.033,0.571 -2.31,0.849 -3.902,0.849Z" style="fill-rule:nonzero;"/><path d="M95.255,108.688c-0.454,0 -0.827,-0.362 -0.839,-0.818c-0.186,-7.17 -0.723,-14.417 -1.596,-21.539c-0.057,-0.46 0.271,-0.879 0.732,-0.936c0.464,-0.054 0.878,0.271 0.936,0.732c0.879,7.175 1.421,14.475 1.607,21.7c0.012,0.463 -0.354,0.849 -0.818,0.861l-0.022,0Z" style="fill-rule:nonzero;"/><path d="M84.735,103.663l-0.232,-0.122c-2.358,-3.45 -2.664,-8.266 -0.76,-11.986c0.071,-0.138 0.241,-0.192 0.377,-0.122c0.138,0.07 0.193,0.239 0.122,0.377c-1.813,3.542 -1.522,8.13 0.725,11.415c0.087,0.128 0.054,0.302 -0.074,0.389l-0.158,0.049Z" style="fill-rule:nonzero;"/><path d="M107.763,96.114l-0.011,0c-0.155,-0.006 -0.275,-0.137 -0.269,-0.291c0.072,-1.802 -0.333,-3.598 -1.178,-5.194c-0.071,-0.136 -0.019,-0.305 0.118,-0.378c0.135,-0.072 0.306,-0.02 0.378,0.117c0.89,1.682 1.319,3.577 1.241,5.477c-0.005,0.151 -0.129,0.269 -0.279,0.269Z" style="fill-rule:nonzero;"/><path d="M123.667,59.997c-6.263,0.125 -11.884,5.826 -11.922,12.091c-0.037,6.264 5.516,12.031 11.778,12.231c6.261,0.199 12.17,-5.203 12.532,-11.457c0.099,-1.712 -0.169,-3.444 -0.778,-5.048c-1.845,-4.865 -7.029,-7.908 -11.61,-7.817Z" style="fill:#fff;fill-rule:nonzero;"/><path d="M123.684,60.837c-5.774,0.116 -11.064,5.481 -11.099,11.256c-0.034,5.775 5.192,11.202 10.964,11.387c0.101,0.003 0.203,0.005 0.304,0.005c5.663,0 11.036,-5.007 11.363,-10.672c0.092,-1.584 -0.159,-3.21 -0.724,-4.701c-1.584,-4.178 -6.123,-7.277 -10.614,-7.277l-0.194,0.002Zm0.18,24.327c-0.123,0 -0.245,-0.002 -0.368,-0.005c-6.747,-0.215 -12.63,-6.326 -12.59,-13.076c0.039,-6.751 5.995,-12.791 12.744,-12.926c5.248,-0.091 10.566,3.489 12.413,8.359c0.647,1.71 0.936,3.576 0.83,5.395c-0.382,6.616 -6.424,12.253 -13.029,12.253Z" style="fill-rule:nonzero;"/><path d="M124.29,79.014l-0.012,0c-1.768,-0.003 -3.549,-0.402 -5.15,-1.152c-0.419,-0.198 -0.6,-0.698 -0.403,-1.118c0.197,-0.42 0.698,-0.601 1.118,-0.404c1.379,0.648 2.913,0.991 4.436,0.994l0.012,0c0.983,0 1.743,-0.156 2.322,-0.476c0.64,-0.354 1.071,-0.959 1.1,-1.543c0.048,-1.007 -1.037,-1.863 -2.082,-2.157c-0.736,-0.206 -1.523,-0.254 -2.356,-0.305c-0.612,-0.037 -1.244,-0.075 -1.879,-0.181c-1.272,-0.211 -2.152,-0.722 -2.619,-1.518c-0.528,-0.899 -0.455,-2.123 0.194,-3.194c0.8,-1.324 2.269,-2.252 4.03,-2.546c1.681,-0.28 3.368,0.052 4.491,0.325c0.451,0.11 0.727,0.564 0.617,1.015c-0.11,0.451 -0.562,0.728 -1.015,0.617c-1.576,-0.385 -2.755,-0.477 -3.817,-0.3c-1.257,0.21 -2.33,0.867 -2.868,1.759c-0.265,0.437 -0.424,1.063 -0.184,1.473c0.254,0.432 0.927,0.625 1.447,0.712c0.547,0.091 1.109,0.125 1.704,0.161c0.885,0.054 1.8,0.109 2.709,0.365c1.712,0.482 3.396,1.96 3.305,3.854c-0.055,1.171 -0.808,2.295 -1.964,2.934c-0.834,0.461 -1.86,0.685 -3.136,0.685Z" style="fill-rule:nonzero;"/><path d="M123.865,81.399c-0.454,0 -0.827,-0.362 -0.839,-0.818c-0.144,-5.589 -0.562,-11.237 -1.244,-16.787c-0.056,-0.46 0.272,-0.879 0.732,-0.936c0.459,-0.05 0.879,0.271 0.936,0.732c0.688,5.603 1.109,11.305 1.255,16.947c0.012,0.464 -0.353,0.85 -0.817,0.861l-0.023,0.001Z" style="fill-rule:nonzero;"/><path d="M115.659,77.355l-0.231,-0.122c-1.853,-2.709 -2.093,-6.492 -0.598,-9.414c0.071,-0.138 0.241,-0.192 0.377,-0.122c0.138,0.07 0.193,0.239 0.122,0.377c-1.405,2.744 -1.179,6.298 0.561,8.843c0.087,0.128 0.054,0.302 -0.073,0.39l-0.158,0.048Z" style="fill-rule:nonzero;"/><path d="M133.624,71.465l-0.013,0c-0.153,-0.006 -0.273,-0.136 -0.267,-0.291c0.057,-1.395 -0.259,-2.785 -0.912,-4.02c-0.072,-0.137 -0.02,-0.306 0.117,-0.379c0.135,-0.071 0.306,-0.02 0.379,0.117c0.699,1.322 1.036,2.811 0.976,4.305c-0.007,0.15 -0.13,0.268 -0.28,0.268Z" style="fill-rule:nonzero;"/><path d="M14.873,57.333c-0.368,0 -0.737,-0.006 -1.107,-0.019c-0.605,-0.017 -1.087,-0.213 -1.444,-0.513c-0.047,-1.101 -0.096,-2.207 -0.148,-3.317c0.115,-0.118 0.246,-0.225 0.393,-0.316c11.744,-0.047 23.475,-0.156 35.72,-0.27c12.784,-0.119 25.897,-0.241 39.485,-0.293c-0.059,1.162 -0.119,2.331 -0.178,3.508c-0.273,0.091 -0.563,0.14 -0.855,0.14c-0.129,0 -0.257,-0.01 -0.385,-0.029c-1.642,0.001 -3.284,0.001 -4.925,0.018c-1.424,0.034 -2.848,0.046 -4.272,0.046c-1.724,0 -3.449,-0.018 -5.173,-0.035c-1.721,-0.018 -3.442,-0.035 -5.162,-0.035c-1.22,0 -2.44,0.009 -3.66,0.032c-6.466,0.126 -12.922,0.588 -19.385,0.786c-0.322,0.014 -0.644,0.02 -0.966,0.02c-2.077,0 -4.142,-0.25 -6.211,-0.417c-1.355,-0.043 -2.711,-0.058 -4.068,-0.058c-1.974,0 -3.949,0.031 -5.923,0.053c-2.31,0.011 -4.606,0.251 -6.905,0.447l-0.055,-0.983c-0.008,-0.146 -0.129,-0.265 -0.271,-0.265c-0.008,0 -0.017,0 -0.024,0.001c-0.155,0.009 -0.273,0.141 -0.264,0.295l0.056,0.998c-0.972,0.079 -1.944,0.146 -2.919,0.181l-0.03,-0.809c-0.006,-0.153 -0.107,-0.269 -0.286,-0.269l-0.004,0c-0.154,0.006 -0.275,0.136 -0.27,0.29l0.03,0.804c-0.265,0.006 -0.529,0.009 -0.794,0.009Z" style="fill:#dedede;fill-rule:nonzero;"/><path d="M12.322,56.801c-0.971,-0.819 -1.015,-2.419 -0.148,-3.317c0.052,1.11 0.101,2.216 0.148,3.317Zm75.272,-0.688c0.059,-1.177 0.119,-2.346 0.178,-3.508c0.319,-0.001 0.639,-0.002 0.958,-0.003c0.249,0.328 0.413,0.775 0.458,1.383c0.026,1.045 -0.689,1.823 -1.594,2.128Z" style="fill-rule:nonzero;"/><path d="M12.567,53.168c0.323,-0.199 0.723,-0.323 1.199,-0.334c0.381,0.015 0.759,0.021 1.138,0.021c3.276,0 6.525,-0.487 9.796,-0.645c2.393,-0.071 4.789,-0.108 7.185,-0.108c1.483,0 2.966,0.014 4.449,0.044c1.965,0.106 3.915,0.421 5.888,0.421c0.069,0 0.139,-0.001 0.208,-0.001c8.986,-0.245 17.968,-0.854 26.959,-0.854c2.193,0 4.388,0.036 6.582,0.123c2.688,-0.004 5.376,-0.091 8.065,-0.091c0.243,0 0.489,0.001 0.734,0.002c0.41,-0.005 0.838,-0.023 1.259,-0.023c1.084,0 2.123,0.118 2.701,0.879c-0.319,0.001 -0.639,0.002 -0.958,0.003c-13.588,0.052 -26.701,0.174 -39.485,0.293c-12.245,0.114 -23.976,0.223 -35.72,0.27Z" style="fill-rule:nonzero;"/><path d="M15.667,57.324l-0.03,-0.804c-0.005,-0.154 0.116,-0.284 0.27,-0.29l0.004,0c0.179,0 0.28,0.116 0.286,0.269l0.03,0.809c-0.186,0.007 -0.373,0.012 -0.56,0.016Z" style="fill-rule:nonzero;"/><path d="M19.146,57.127l-0.056,-0.998c-0.009,-0.154 0.109,-0.286 0.264,-0.295c0.007,-0.001 0.016,-0.001 0.024,-0.001c0.142,0 0.263,0.119 0.271,0.265l0.055,0.983c-0.186,0.016 -0.372,0.031 -0.558,0.046Z" style="fill-rule:nonzero;"/></g></svg>