<?xml version="1.0" encoding="UTF-8" standalone="no"?><!DOCTYPE svg PUBLIC "-//W3C//DTD SVG 1.1//EN" "http://www.w3.org/Graphics/SVG/1.1/DTD/svg11.dtd"><svg width="100%" height="100%" viewBox="0 0 156 124" version="1.1" xmlns="http://www.w3.org/2000/svg" xmlns:xlink="http://www.w3.org/1999/xlink" xml:space="preserve" xmlns:serif="http://www.serif.com/" style="fill-rule:evenodd;clip-rule:evenodd;stroke-linejoin:round;stroke-miterlimit:2;"><g><path d="M14.929,27.191l-1.442,95.199l95.495,0l1.122,-94.975l-95.175,-0.224Z" style="fill:#fff;fill-rule:nonzero;"/><path d="M14.339,121.55l93.813,0l1.103,-93.299l-93.499,-0.219l-1.417,93.518Zm94.643,1.68l-95.495,0c-0.225,0 -0.441,-0.091 -0.598,-0.251c-0.158,-0.16 -0.245,-0.377 -0.242,-0.602l1.442,-95.199c0.007,-0.461 0.381,-0.829 0.84,-0.829l0.002,0l95.176,0.226c0.224,0 0.438,0.09 0.596,0.25c0.157,0.159 0.244,0.375 0.241,0.599l-1.122,94.975c-0.006,0.46 -0.38,0.831 -0.84,0.831Z" style="fill-rule:nonzero;"/><path d="M47.932,68.502c-5.791,-0.043 -11.582,-0.085 -17.373,-0.128c-0.581,-7.102 -0.934,-14.024 -0.847,-20.954c6.009,-0.359 12.035,-0.347 18.414,0.027c0.114,6.783 0.041,13.57 -0.194,21.055Z" style="fill:#acd4f7;fill-rule:nonzero;"/><path d="M31.334,67.539l15.784,0.117c0.213,-7.099 0.27,-13.312 0.181,-19.415c-5.813,-0.314 -11.309,-0.324 -16.755,-0.026c-0.046,5.819 0.207,12.003 0.79,19.324Zm16.598,1.803l-0.006,0l-17.373,-0.128c-0.436,-0.003 -0.796,-0.338 -0.832,-0.772c-0.658,-8.044 -0.928,-14.728 -0.849,-21.032c0.006,-0.44 0.35,-0.802 0.79,-0.828c6.01,-0.361 12.066,-0.352 18.513,0.026c0.439,0.026 0.783,0.385 0.791,0.825c0.111,6.616 0.05,13.319 -0.194,21.095c-0.014,0.454 -0.386,0.814 -0.84,0.814Z" style="fill-rule:nonzero;"/><path d="M48.648,109.984c-5.791,-0.042 -11.583,-0.085 -17.374,-0.127c-0.581,-7.102 -0.933,-14.025 -0.847,-20.954c6.01,-0.36 12.035,-0.347 18.414,0.027c0.115,6.783 0.042,13.57 -0.193,21.054Z" style="fill:#acd4f7;fill-rule:nonzero;"/><path d="M32.048,109.022l15.785,0.116c0.213,-7.089 0.271,-13.3 0.181,-19.414c-5.807,-0.315 -11.304,-0.324 -16.755,-0.027c-0.045,5.814 0.207,11.998 0.789,19.325Zm16.6,1.802l-0.006,0l-17.374,-0.127c-0.435,-0.004 -0.796,-0.338 -0.831,-0.772c-0.659,-8.052 -0.928,-14.735 -0.85,-21.033c0.006,-0.44 0.35,-0.802 0.79,-0.828c6.017,-0.36 12.073,-0.351 18.513,0.027c0.439,0.026 0.784,0.385 0.791,0.824c0.112,6.628 0.05,13.331 -0.194,21.095c-0.014,0.454 -0.386,0.814 -0.839,0.814Z" style="fill-rule:nonzero;"/><path d="M92.137,68.502c-5.791,-0.043 -11.582,-0.085 -17.373,-0.128c-0.581,-7.102 -0.934,-14.024 -0.847,-20.954c6.009,-0.359 12.035,-0.347 18.414,0.027c0.114,6.783 0.041,13.57 -0.194,21.055Z" style="fill:#acd4f7;fill-rule:nonzero;"/><path d="M75.539,67.539l15.784,0.117c0.213,-7.089 0.271,-13.302 0.181,-19.415c-5.813,-0.314 -11.31,-0.324 -16.755,-0.026c-0.046,5.819 0.207,12.003 0.79,19.324Zm16.598,1.803l-0.006,0l-17.373,-0.128c-0.436,-0.003 -0.796,-0.338 -0.831,-0.772c-0.659,-8.044 -0.929,-14.727 -0.85,-21.032c0.006,-0.44 0.35,-0.802 0.79,-0.828c6.01,-0.361 12.066,-0.352 18.513,0.026c0.439,0.026 0.783,0.385 0.791,0.825c0.111,6.628 0.05,13.331 -0.194,21.095c-0.014,0.454 -0.386,0.814 -0.84,0.814Z" style="fill-rule:nonzero;"/><path d="M121.242,35.855c-40.085,-0.116 -80.316,-0.568 -120.402,-0.686c6.802,-10.913 12.635,-21.691 21.064,-33.288c25.235,-0.396 51.684,-0.987 77.374,-0.225c8.807,14.07 17.766,27.493 21.964,34.199Z" style="fill:#fff;fill-rule:nonzero;"/><path d="M2.346,34.334c19.561,0.061 39.451,0.202 58.701,0.339c19.241,0.136 39.12,0.277 58.669,0.338c-1.657,-2.613 -3.868,-6.014 -6.369,-9.861c-4.197,-6.457 -9.405,-14.47 -14.543,-22.667c-22.556,-0.655 -45.7,-0.274 -68.085,0.095c-2.807,0.046 -5.602,0.092 -8.382,0.136c-5.792,8.007 -10.415,15.724 -14.889,23.19c-1.654,2.762 -3.358,5.606 -5.102,8.43Zm118.896,2.362l-0.003,0c-20.044,-0.059 -40.46,-0.204 -60.204,-0.344c-19.742,-0.139 -40.156,-0.284 -60.197,-0.342c-0.305,-0.002 -0.585,-0.167 -0.733,-0.434c-0.148,-0.267 -0.139,-0.592 0.022,-0.851c2.013,-3.23 3.979,-6.511 5.88,-9.684c4.556,-7.603 9.266,-15.465 15.217,-23.654c0.156,-0.214 0.402,-0.342 0.667,-0.346c2.918,-0.046 5.852,-0.095 8.801,-0.143c22.551,-0.371 45.873,-0.755 68.611,-0.081c0.28,0.008 0.538,0.156 0.687,0.394c5.207,8.318 10.506,16.471 14.766,23.023c2.94,4.524 5.48,8.431 7.198,11.176c0.162,0.259 0.171,0.586 0.022,0.854c-0.148,0.267 -0.429,0.432 -0.734,0.432Z" style="fill-rule:nonzero;"/><path d="M75.267,123.229l-0.01,0c-0.463,-0.005 -0.835,-0.385 -0.83,-0.849c0.137,-11.888 0.032,-23.7 -0.088,-33.686c-0.002,-0.225 0.085,-0.441 0.243,-0.601c0.158,-0.159 0.373,-0.249 0.597,-0.249l0.001,0c5.636,0.007 11.462,0.013 17.328,-0.043c0.229,0.002 0.44,0.086 0.599,0.243c0.16,0.157 0.249,0.373 0.249,0.597c0,2.971 0.006,5.884 0.012,8.724c0.019,8.929 0.036,17.362 -0.149,24.486c-0.012,0.456 -0.386,0.818 -0.839,0.818l-0.023,0c-0.464,-0.012 -0.83,-0.398 -0.817,-0.861c0.184,-7.101 0.167,-15.523 0.148,-24.44c-0.005,-2.571 -0.011,-5.201 -0.012,-7.88c-5.293,0.046 -10.543,0.042 -15.647,0.037c0.116,9.813 0.211,21.306 0.078,32.874c-0.005,0.461 -0.38,0.83 -0.84,0.83Z" style="fill-rule:nonzero;"/><path d="M48.562,54.775c-6.093,-0.007 -12.266,-0.19 -18.346,-0.547c-0.154,-0.009 -0.273,-0.142 -0.263,-0.296c0.009,-0.154 0.135,-0.275 0.296,-0.263c6.069,0.356 12.23,0.539 18.314,0.546c0.154,0 0.279,0.126 0.279,0.28c0,0.155 -0.125,0.28 -0.28,0.28Z" style="fill-rule:nonzero;"/><path d="M39.178,68.091c-0.155,0 -0.28,-0.125 -0.28,-0.28l-0.003,-13.01c0,-0.155 0.125,-0.28 0.28,-0.28c0.155,0 0.28,0.125 0.28,0.28l0.003,13.01c0,0.155 -0.125,0.28 -0.28,0.28Z" style="fill-rule:nonzero;"/><path d="M77.793,54.755c-1.236,0 -2.471,-0.006 -3.704,-0.017c-0.154,-0.002 -0.278,-0.128 -0.277,-0.283c0.002,-0.155 0.155,-0.284 0.283,-0.277c5.851,0.054 11.782,-0.021 17.628,-0.222c0.137,-0.007 0.284,0.116 0.29,0.271c0.004,0.154 -0.116,0.284 -0.271,0.289c-4.623,0.159 -9.301,0.239 -13.949,0.239Z" style="fill-rule:nonzero;"/><path d="M83.332,68.853c-0.149,0 -0.273,-0.117 -0.28,-0.267l-0.685,-14.04c-0.007,-0.155 0.112,-0.286 0.266,-0.293c0.164,-0.018 0.286,0.111 0.293,0.266l0.685,14.04c0.008,0.154 -0.111,0.286 -0.266,0.293l-0.013,0.001Z" style="fill-rule:nonzero;"/><path d="M30.6,96.397c-0.155,0 -0.28,-0.125 -0.28,-0.279c0,-0.155 0.124,-0.281 0.279,-0.281l18.338,-0.029c0.155,0 0.28,0.125 0.28,0.279c0,0.155 -0.124,0.281 -0.279,0.281l-18.338,0.029Z" style="fill-rule:nonzero;"/><path d="M40.353,109.943c-0.148,0 -0.272,-0.115 -0.28,-0.264c-0.255,-4.471 -0.465,-9.007 -0.622,-13.483c-0.006,-0.155 0.115,-0.285 0.27,-0.29c0.146,-0.005 0.284,0.115 0.29,0.27c0.157,4.472 0.366,9.004 0.621,13.471c0.009,0.154 -0.109,0.287 -0.263,0.296l-0.016,0Z" style="fill-rule:nonzero;"/><path d="M88.189,102.83c-0.24,0 -0.493,0.08 -0.723,0.234c-0.361,0.244 -0.571,0.61 -0.561,0.979c0.009,0.37 0.238,0.724 0.612,0.949c0.375,0.226 0.797,0.26 1.125,0.096c0.371,-0.185 0.631,-0.679 0.618,-1.175c-0.007,-0.268 -0.104,-0.754 -0.675,-1.003c-0.123,-0.054 -0.258,-0.08 -0.396,-0.08Zm0.004,2.92c-0.323,0 -0.657,-0.093 -0.964,-0.278c-0.539,-0.323 -0.869,-0.852 -0.884,-1.414c-0.015,-0.561 0.287,-1.106 0.809,-1.458c0.521,-0.351 1.14,-0.427 1.655,-0.204l0,0.001c0.625,0.272 0.993,0.819 1.011,1.502c0.018,0.713 -0.363,1.409 -0.928,1.69c-0.216,0.108 -0.454,0.161 -0.699,0.161Z" style="fill-rule:nonzero;"/><path d="M14.285,27.299l-0.129,-0.03c-0.137,-0.072 -0.191,-0.242 -0.119,-0.379l10.687,-20.532c0.071,-0.138 0.242,-0.188 0.377,-0.119c0.137,0.071 0.191,0.241 0.119,0.377l-10.686,20.532c-0.05,0.097 -0.148,0.151 -0.249,0.151Z" style="fill-rule:nonzero;"/><path d="M29.535,12.482l-0.118,-0.025c-0.14,-0.065 -0.201,-0.232 -0.136,-0.372l2.601,-5.619c0.065,-0.14 0.233,-0.202 0.373,-0.137c0.14,0.065 0.201,0.232 0.136,0.372l-2.602,5.619c-0.047,0.102 -0.149,0.162 -0.254,0.162Z" style="fill-rule:nonzero;"/><path d="M26.437,19.82l-0.119,-0.027c-0.14,-0.065 -0.201,-0.232 -0.135,-0.372l1.686,-3.601c0.066,-0.141 0.234,-0.201 0.373,-0.135c0.14,0.065 0.2,0.232 0.135,0.372l-1.686,3.601c-0.048,0.102 -0.149,0.162 -0.254,0.162Z" style="fill-rule:nonzero;"/><path d="M35.377,19.052l-0.107,-0.021c-0.143,-0.06 -0.211,-0.223 -0.151,-0.366c1.655,-3.989 3.48,-7.967 5.424,-11.824c0.069,-0.139 0.238,-0.193 0.376,-0.124c0.138,0.069 0.193,0.238 0.124,0.375c-1.938,3.845 -3.757,7.811 -5.407,11.787c-0.045,0.108 -0.149,0.173 -0.259,0.173Z" style="fill-rule:nonzero;"/><path d="M48.192,10.364l-0.075,-0.01c-0.149,-0.041 -0.237,-0.195 -0.196,-0.344l0.983,-3.566c0.041,-0.149 0.193,-0.235 0.344,-0.196c0.149,0.041 0.237,0.195 0.196,0.345l-0.982,3.566c-0.035,0.124 -0.147,0.205 -0.27,0.205Z" style="fill-rule:nonzero;"/><path d="M116.706,64.647c5.865,5.769 11.73,11.539 17.595,17.309c3.098,3.048 6.203,6.102 9.579,8.746c1.82,1.426 3.846,2.773 6.061,2.775c2.215,0.001 4.568,-1.867 4.551,-4.37c-0.013,-1.953 -1.361,-3.522 -2.624,-4.854c-9.339,-9.849 -19.099,-19.188 -29.235,-27.972c-1.858,2.722 -3.716,5.444 -5.927,8.366Z" style="fill:#fff;fill-rule:nonzero;"/><path d="M117.82,64.563l17.071,16.794c3.03,2.982 6.164,6.065 9.506,8.684c1.721,1.347 3.583,2.594 5.544,2.596l0.001,0c0.96,0 1.97,-0.44 2.702,-1.177c0.656,-0.659 1.014,-1.493 1.008,-2.348c-0.011,-1.632 -1.189,-3.01 -2.394,-4.281c-9.065,-9.561 -18.638,-18.741 -28.463,-27.297c-1.542,2.256 -3.145,4.581 -4.975,7.029Zm32.122,29.754l-0.002,0c-2.469,-0.002 -4.621,-1.421 -6.579,-2.954c-3.417,-2.677 -6.585,-5.794 -9.649,-8.808l-17.595,-17.31c-0.301,-0.295 -0.335,-0.769 -0.081,-1.105c2.208,-2.917 4.086,-5.67 5.903,-8.332c0.135,-0.199 0.348,-0.329 0.586,-0.36c0.235,-0.033 0.476,0.041 0.658,0.198c10.117,8.767 19.973,18.197 29.295,28.029c1.373,1.449 2.839,3.182 2.854,5.426c0.009,1.305 -0.522,2.564 -1.496,3.543c-1.04,1.048 -2.496,1.673 -3.894,1.673Z" style="fill-rule:nonzero;"/><path d="M93.819,65.197c-15.343,0 -27.78,-12.438 -27.78,-27.78c0,-15.343 12.437,-27.78 27.78,-27.78c15.342,0 27.78,12.437 27.78,27.78c0,15.342 -12.438,27.78 -27.78,27.78Zm0,0c-15.343,0 -27.78,-12.438 -27.78,-27.78c0,-15.343 12.437,-27.78 27.78,-27.78c15.342,0 27.78,12.437 27.78,27.78c0,15.342 -12.438,27.78 -27.78,27.78Zm0,-64.357c-20.201,0 -36.577,16.376 -36.577,36.577c0,20.2 16.376,36.576 36.577,36.576c20.2,0 36.576,-16.376 36.576,-36.576c0,-20.201 -16.376,-36.577 -36.576,-36.577Z" style="fill:#fff;fill-rule:nonzero;"/><path d="M66.879,37.416c0,14.855 12.085,26.941 26.939,26.941c14.855,0 26.94,-12.086 26.94,-26.941c0,-14.854 -12.085,-26.939 -26.94,-26.939c-14.854,0 -26.939,12.085 -26.939,26.939Zm26.939,28.621c-15.781,0 -28.619,-12.839 -28.619,-28.621c0,-15.78 12.838,-28.619 28.619,-28.619c15.782,0 28.62,12.839 28.62,28.619c0,15.782 -12.838,28.621 -28.62,28.621Zm0,-64.357c-19.705,0 -35.736,16.031 -35.736,35.736c0,19.705 16.031,35.737 35.736,35.737c19.705,0 35.737,-16.032 35.737,-35.737c0,-19.705 -16.032,-35.736 -35.737,-35.736Zm0,73.153c-20.631,0 -37.416,-16.785 -37.416,-37.417c0,-20.631 16.785,-37.416 37.416,-37.416c20.632,-0 37.417,16.785 37.417,37.416c0,20.632 -16.785,37.417 -37.417,37.417Z" style="fill-rule:nonzero;"/><path d="M121.423,65.695l-0.078,-0.011c-0.148,-0.042 -0.234,-0.197 -0.191,-0.346l0.643,-2.252c0.042,-0.148 0.194,-0.237 0.346,-0.192c0.149,0.042 0.235,0.198 0.192,0.347l-0.643,2.251c-0.035,0.122 -0.147,0.203 -0.269,0.203Z" style="fill-rule:nonzero;"/><path d="M124.5,69.639l-0.036,-0.002c-0.154,-0.021 -0.262,-0.161 -0.242,-0.314c0.344,-2.629 0.758,-5.287 1.233,-7.902c0.028,-0.152 0.178,-0.253 0.326,-0.226c0.152,0.028 0.253,0.174 0.226,0.326c-0.474,2.606 -0.888,5.255 -1.23,7.874c-0.018,0.141 -0.138,0.244 -0.277,0.244Z" style="fill-rule:nonzero;"/><path d="M128.495,73.467c-0.155,0 -0.28,-0.126 -0.28,-0.28c0,-1.318 0.203,-3.527 0.381,-5.476c0.11,-1.188 0.204,-2.215 0.236,-2.86c0.008,-0.154 0.131,-0.292 0.294,-0.266c0.154,0.008 0.273,0.139 0.265,0.294c-0.033,0.657 -0.127,1.689 -0.237,2.883c-0.178,1.937 -0.379,4.133 -0.379,5.425c0,0.154 -0.125,0.28 -0.28,0.28Z" style="fill-rule:nonzero;"/><path d="M132.586,77.238c-0.152,0 -0.277,-0.122 -0.28,-0.274l-0.211,-9.341c-0.003,-0.155 0.12,-0.284 0.274,-0.287c0.164,0.002 0.283,0.119 0.286,0.274l0.211,9.341c0.003,0.155 -0.119,0.283 -0.274,0.287l-0.006,0Z" style="fill-rule:nonzero;"/><path d="M136.479,81.37c-0.15,0 -0.274,-0.119 -0.28,-0.27l-0.366,-9.783c-0.006,-0.154 0.114,-0.284 0.269,-0.29c0.167,-0.006 0.285,0.115 0.291,0.269l0.366,9.784c0.006,0.154 -0.115,0.284 -0.27,0.29l-0.01,0Z" style="fill-rule:nonzero;"/><path d="M140.441,84.853c-0.149,0 -0.272,-0.115 -0.28,-0.265l-0.494,-9.138c-0.009,-0.155 0.11,-0.287 0.264,-0.295c0.174,-0.017 0.286,0.11 0.295,0.264l0.494,9.139c0.009,0.155 -0.11,0.286 -0.264,0.294l-0.015,0.001Z" style="fill-rule:nonzero;"/><path d="M144.363,88.072c-0.144,0 -0.267,-0.112 -0.278,-0.259l-0.686,-8.896c-0.012,-0.155 0.103,-0.289 0.257,-0.301c0.14,-0.019 0.289,0.103 0.3,0.258l0.687,8.897c0.012,0.153 -0.104,0.288 -0.258,0.3l-0.022,0.001Z" style="fill-rule:nonzero;"/><path d="M148.076,90.964c-0.142,0 -0.263,-0.107 -0.278,-0.251l-0.802,-7.803c-0.016,-0.154 0.096,-0.291 0.25,-0.307c0.139,-0.014 0.291,0.096 0.307,0.25l0.802,7.803c0.016,0.154 -0.096,0.291 -0.25,0.307l-0.029,0.001Z" style="fill-rule:nonzero;"/><path d="M151.713,90.55c-0.135,0 -0.254,-0.098 -0.276,-0.235l-0.564,-3.487c-0.025,-0.153 0.079,-0.297 0.232,-0.321c0.15,-0.028 0.296,0.078 0.321,0.231l0.564,3.487c0.025,0.153 -0.079,0.296 -0.232,0.321l-0.045,0.004Z" style="fill-rule:nonzero;"/><path d="M93.818,64.357c-14.854,0 -26.939,-12.086 -26.939,-26.941c0,-1.279 0.089,-2.538 0.263,-3.77c0.271,0.936 0.574,1.863 0.902,2.78c-0.002,1.465 0.162,2.068 0.691,3.791c0.359,1.254 0.702,2.511 1.156,3.735c0.45,1.192 1.2,3.808 3.389,6.802l0.001,0.001c2.034,2.462 5.026,5.097 6.37,6.04c3.163,2.131 4.625,2.96 7.653,3.664c1.963,0.487 3.686,0.664 5.24,0.664c1.868,0 3.491,-0.256 4.99,-0.536c5.783,-1.065 9.219,-2.273 13.792,-5.582c0.153,-0.094 0.311,-0.154 0.469,-0.185c0.897,-0.683 1.777,-1.405 2.695,-2.224c1.06,-1.008 2.938,-3.12 3.081,-3.385c0.54,-0.636 0.91,-1.431 1.39,-2.117c-3.896,10.088 -13.697,17.263 -25.143,17.263Zm-22.402,-9.148c-0.047,-0.051 -0.094,-0.103 -0.142,-0.155c-2.027,-2.279 -3.165,-4.568 -3.938,-6.785c1.032,2.511 2.413,4.845 4.08,6.94Zm45.161,-0.457c1.173,-1.536 2.194,-3.193 3.041,-4.95c-0.07,0.192 -0.139,0.384 -0.208,0.576c-0.404,0.935 -0.834,1.861 -1.278,2.781c-0.427,0.487 -0.954,1.027 -1.555,1.593Z" style="fill:#dedede;fill-rule:nonzero;"/><path d="M92.9,65.259c-1.046,0 -2.09,-0.084 -3.122,-0.272l-0.028,-0.006c-1.675,-0.197 -3.363,-0.394 -4.985,-0.865c-2.972,-0.966 -5.652,-2.627 -8.172,-4.445c-1.06,-0.873 -2.739,-1.813 -5.177,-4.462c-1.667,-2.095 -3.048,-4.429 -4.08,-6.94c-0.416,-1.192 -0.727,-2.363 -1.015,-3.5c-0.478,-3.763 -0.548,-7.555 -0.058,-11.334c0.039,-0.003 0.079,-0.005 0.119,-0.005c0.256,0 0.511,0.061 0.745,0.166c0.005,0.017 0.01,0.033 0.015,0.05c-0.174,1.232 -0.263,2.491 -0.263,3.77c0,14.855 12.085,26.941 26.939,26.941c11.446,0 21.247,-7.175 25.143,-17.263c0.215,-0.306 0.451,-0.59 0.734,-0.829c0.213,-0.128 0.449,-0.187 0.685,-0.187c0.183,0 0.366,0.036 0.537,0.102c-0.428,1.209 -0.864,2.415 -1.299,3.622c-0.847,1.757 -1.868,3.414 -3.041,4.95c-1.814,1.709 -4.301,3.665 -6.731,5.178c-0.501,0.376 -0.872,0.634 -1.941,1.293c-2.633,1.392 -5.513,2.275 -8.396,2.983c-1.39,0.374 -2.774,0.795 -4.215,0.914c-0.796,0.09 -1.595,0.139 -2.394,0.139Z" style="fill-rule:nonzero;"/><path d="M118.366,67.458c-0.204,-0.151 -0.387,-0.331 -0.541,-0.532l0.541,0.532Z" style="fill:#dedede;fill-rule:nonzero;"/><path d="M120.951,67.644l-2.299,-2.262c2.154,-1.916 4.088,-4.077 5.754,-6.437c0.91,0.8 1.817,1.606 2.722,2.417c-0.031,0.065 -0.066,0.129 -0.104,0.191c-0.389,0.642 -0.851,1.238 -1.341,1.808c0.105,-0.615 0.212,-1.229 0.324,-1.84c0.027,-0.152 -0.074,-0.298 -0.226,-0.326c-0.016,-0.003 -0.033,-0.004 -0.049,-0.004c-0.131,0 -0.252,0.094 -0.277,0.23c-0.166,0.912 -0.324,1.83 -0.475,2.75c-1.079,1.389 -2.407,2.579 -3.952,3.429c-0.026,0.015 -0.051,0.03 -0.077,0.044Zm1.111,-4.762c-0.122,0 -0.23,0.082 -0.265,0.204l-0.643,2.252c-0.043,0.149 0.043,0.304 0.191,0.346l0.078,0.011c0.122,0 0.234,-0.081 0.269,-0.203l0.643,-2.251c0.043,-0.149 -0.043,-0.305 -0.192,-0.347c-0.027,-0.008 -0.054,-0.012 -0.081,-0.012Z" style="fill:#dedede;fill-rule:nonzero;"/><path d="M119.804,67.945c-0.528,0 -1.027,-0.184 -1.438,-0.487l-0.541,-0.532c-0.132,-0.173 -0.242,-0.361 -0.327,-0.56c0.391,-0.32 0.776,-0.648 1.154,-0.984l2.299,2.262c-0.383,0.209 -0.772,0.301 -1.147,0.301Zm7.324,-6.583c-0.905,-0.811 -1.812,-1.617 -2.722,-2.417c0.195,-0.276 0.385,-0.554 0.573,-0.835c0.018,-0.001 0.037,-0.001 0.055,-0.001c0.198,0 0.406,0.029 0.626,0.092c1.338,0.353 2.058,1.933 1.468,3.161Z" style="fill-rule:nonzero;"/><path d="M117.498,66.366c-0.314,-0.736 -0.274,-1.618 0.352,-2.387c0.249,-0.434 0.722,-0.63 1.118,-0.905l0.025,-0.02c2.004,-1.813 2.348,-1.694 3.563,-3.112l0.094,-0.111c0.568,-0.878 1.303,-1.693 2.329,-1.721c-0.188,0.281 -0.378,0.559 -0.573,0.835c-1.666,2.36 -3.6,4.521 -5.754,6.437c-0.378,0.336 -0.763,0.664 -1.154,0.984Z" style="fill-rule:nonzero;"/><path d="M121.423,65.695l-0.078,-0.011c-0.148,-0.042 -0.234,-0.197 -0.191,-0.346l0.643,-2.252c0.035,-0.122 0.143,-0.204 0.265,-0.204c0.027,0 0.054,0.004 0.081,0.012c0.149,0.042 0.235,0.198 0.192,0.347l-0.643,2.251c-0.035,0.122 -0.147,0.203 -0.269,0.203Z" style="fill-rule:nonzero;"/><path d="M124.98,64.171c0.151,-0.92 0.309,-1.838 0.475,-2.75c0.025,-0.136 0.146,-0.23 0.277,-0.23c0.016,0 0.033,0.001 0.049,0.004c0.152,0.028 0.253,0.174 0.226,0.326c-0.112,0.611 -0.219,1.225 -0.324,1.84c-0.194,0.226 -0.393,0.448 -0.593,0.667c-0.036,0.048 -0.073,0.096 -0.11,0.143Z" style="fill-rule:nonzero;"/><path d="M88.845,30.222c-2.44,-0.23 -4.415,-2.514 -4.612,-4.957c-0.197,-2.444 1.189,-4.862 3.22,-6.235c2.031,-1.374 4.61,-1.784 7.043,-1.485c3.117,0.382 6.159,1.967 7.896,4.583c1.737,2.615 1.956,6.284 0.18,8.873c-1.586,2.314 -4.583,3.74 -5.206,6.475c-0.441,1.934 0.366,4.328 -1.057,5.71c-1.119,1.087 -3.117,0.741 -4.181,-0.399c-1.065,-1.141 -1.361,-2.807 -1.316,-4.367c0.026,-0.904 0.154,-1.815 0.489,-2.656c1.379,-3.463 6.039,-5.363 6.111,-9.09c0.034,-1.776 -1.214,-3.502 -2.911,-4.026c-1.359,-0.419 -3.17,0.171 -3.435,1.569c-0.179,0.945 0.393,1.859 0.52,2.813c0.171,1.283 -0.567,2.636 -2.741,3.192Z" style="fill:#acd4f7;fill-rule:nonzero;"/><path d="M93.592,21.675c0.393,0 0.786,0.056 1.157,0.17c2.071,0.64 3.544,2.678 3.503,4.846c-0.048,2.461 -1.743,4.156 -3.382,5.795c-1.162,1.162 -2.26,2.26 -2.789,3.589c-0.261,0.656 -0.402,1.431 -0.43,2.37c-0.033,1.15 0.129,2.738 1.091,3.769c0.439,0.471 1.121,0.774 1.779,0.79c0.343,-0.001 0.829,-0.058 1.203,-0.421c0.656,-0.637 0.653,-1.691 0.649,-2.912c-0.003,-0.784 -0.006,-1.594 0.174,-2.382c0.441,-1.936 1.85,-3.241 3.213,-4.503c0.803,-0.744 1.562,-1.447 2.119,-2.26c1.521,-2.217 1.444,-5.479 -0.187,-7.934c-1.501,-2.262 -4.23,-3.837 -7.298,-4.213c-2.445,-0.302 -4.743,0.179 -6.47,1.347c-1.898,1.283 -3.018,3.43 -2.853,5.471c0.167,2.074 1.816,3.913 3.711,4.173c1.391,-0.397 2.108,-1.203 1.971,-2.229c-0.038,-0.286 -0.134,-0.594 -0.237,-0.92c-0.2,-0.638 -0.427,-1.364 -0.275,-2.161c0.144,-0.759 0.617,-1.414 1.334,-1.845c0.589,-0.355 1.303,-0.54 2.017,-0.54Zm0.983,23.01l-0.095,-0.001c-1.11,-0.027 -2.219,-0.522 -2.967,-1.324c-1.069,-1.146 -1.602,-2.863 -1.541,-4.965c0.034,-1.138 0.213,-2.1 0.548,-2.942c0.658,-1.651 1.931,-2.924 3.162,-4.155c1.469,-1.468 2.855,-2.855 2.89,-4.64c0.027,-1.411 -0.97,-2.79 -2.319,-3.207c-0.583,-0.18 -1.311,-0.098 -1.812,0.203c-0.31,0.186 -0.495,0.429 -0.55,0.719c-0.072,0.384 0.067,0.831 0.229,1.346c0.119,0.379 0.242,0.771 0.298,1.201c0.203,1.521 -0.574,3.402 -3.364,4.116c-0.094,0.024 -0.191,0.033 -0.287,0.023c-2.774,-0.262 -5.134,-2.777 -5.371,-5.726c-0.212,-2.636 1.196,-5.382 3.587,-6.999c2.063,-1.395 4.766,-1.969 7.615,-1.623c3.549,0.435 6.724,2.286 8.494,4.952c1.999,3.011 2.07,7.046 0.173,9.813c-0.663,0.968 -1.528,1.768 -2.364,2.543c-1.229,1.138 -2.39,2.214 -2.716,3.643c-0.137,0.601 -0.135,1.282 -0.133,2.003c0.005,1.401 0.011,2.989 -1.158,4.124c-0.597,0.579 -1.417,0.896 -2.319,0.896Z" style="fill-rule:nonzero;"/><path d="M95.422,47.596c-1.167,-0.404 -2.529,-0.207 -3.522,0.527c-0.994,0.733 -1.583,1.989 -1.494,3.221c0.122,1.676 1.562,3.159 3.233,3.331c1.672,0.172 3.383,-0.988 3.844,-2.604c0.46,-1.616 -0.229,-3.84 -2.061,-4.475Z" style="fill:#acd4f7;fill-rule:nonzero;"/><path d="M94.18,48.231c-0.638,0 -1.279,0.196 -1.781,0.567c-0.77,0.569 -1.223,1.544 -1.155,2.484c0.093,1.279 1.207,2.426 2.481,2.557c1.283,0.139 2.599,-0.765 2.95,-1.997c0.358,-1.259 -0.181,-2.986 -1.528,-3.452c-0.309,-0.107 -0.637,-0.159 -0.967,-0.159Zm-0.206,7.301c-0.14,0 -0.28,-0.007 -0.42,-0.021c-2.083,-0.215 -3.833,-2.019 -3.985,-4.107c-0.11,-1.501 0.609,-3.054 1.831,-3.957c1.212,-0.896 2.858,-1.144 4.297,-0.644c2.265,0.784 3.17,3.476 2.593,5.498c-0.534,1.878 -2.38,3.231 -4.316,3.231Z" style="fill-rule:nonzero;"/><path d="M13.931,37.593c-0.175,-0.482 -0.178,-1.028 0.023,-1.497l-0.023,1.497Z" style="fill:#dedede;fill-rule:nonzero;"/><path d="M49.709,39.578c-0.414,0 -0.829,-0.004 -1.243,-0.017c-3.275,-0.152 -6.548,-0.395 -9.829,-0.395l-0.173,0c-0.619,-0.005 -1.238,-0.007 -1.857,-0.007c-3.673,0 -7.347,0.076 -11.019,0.081c-3.289,-0.17 -6.575,-0.161 -9.859,-0.383l-0.025,0c-0.037,0 -0.075,-0.001 -0.112,-0.003l0.043,-2.787c13.649,0.064 27.351,0.158 40.783,0.253c-0.01,0.364 -0.016,0.73 -0.016,1.096c0,0.657 0.017,1.31 0.051,1.958c-0.218,0.092 -0.46,0.144 -0.72,0.144l-0.05,0c-0.375,-0.01 -0.75,-0.014 -1.126,-0.014c-0.806,0 -1.612,0.018 -2.418,0.037c-0.81,0.019 -1.62,0.037 -2.43,0.037Z" style="fill:#dedede;fill-rule:nonzero;"/><path d="M15.592,38.854c-0.837,-0.045 -1.417,-0.592 -1.661,-1.261l0.023,-1.497c0.005,-0.012 0.011,-0.025 0.016,-0.037c0.555,0.003 1.11,0.005 1.665,0.008l-0.043,2.787Z" style="fill-rule:nonzero;"/><path d="M56.418,36.32c-13.432,-0.095 -27.134,-0.189 -40.783,-0.253c-0.555,-0.003 -1.11,-0.005 -1.665,-0.008c0.181,-0.398 0.511,-0.736 1.009,-0.926c0.24,-0.133 0.501,-0.168 0.768,-0.168c0.303,0 0.613,0.046 0.909,0.05c0.959,0.072 1.919,0.133 2.881,0.152c1.211,-0.003 2.422,-0.026 3.633,-0.026c1.256,0 2.512,0.025 3.767,0.123c1.21,0.017 2.416,0.023 3.621,0.023c2.225,0 4.445,-0.022 6.663,-0.044c2.215,-0.022 4.429,-0.045 6.647,-0.045c3.369,0 6.748,0.052 10.153,0.231l0.036,0.005c0.782,0.076 1.656,-0.03 2.385,0.257c-0.01,0.21 -0.018,0.419 -0.024,0.629Z" style="fill-rule:nonzero;"/><path d="M56.453,39.374c-0.034,-0.648 -0.051,-1.301 -0.051,-1.958c0,-0.366 0.006,-0.732 0.016,-1.096c0.006,-0.21 0.014,-0.419 0.024,-0.629c0.235,0.093 0.455,0.227 0.652,0.421c1.052,1.006 0.564,2.751 -0.641,3.262Z" style="fill-rule:nonzero;"/><path d="M95.999,77.314c-1.2,0 -2.4,-0.092 -3.592,-0.277c-1.437,-0.114 -2.886,-0.01 -4.316,-0.213c-1.341,-0.137 -2.63,-0.546 -3.942,-0.835c-1.572,-0.261 -4.332,-1.431 -4.39,-1.505c-2.089,-0.896 -4.025,-2.11 -5.681,-3.672c-0.549,-0.525 -0.573,-1.238 -0.294,-1.807c5.795,3.689 12.67,5.828 20.034,5.828c5.302,0 10.349,-1.108 14.923,-3.105l-0.034,2.841c-0.045,0.033 -0.092,0.065 -0.14,0.095c-0.071,0.051 -0.173,0.121 -0.319,0.219c-2.805,1.258 -5.857,1.926 -8.912,2.196c-1.109,0.156 -2.223,0.235 -3.337,0.235Z" style="fill:#dedede;fill-rule:nonzero;"/><path d="M108.707,74.569l0.034,-2.841c0.059,-0.026 0.12,-0.053 0.18,-0.079c0.843,0.683 0.885,2.124 -0.057,2.796c-0.051,0.043 -0.103,0.084 -0.157,0.124Z" style="fill-rule:nonzero;"/><path d="M76.541,68.692c-0.345,-0.191 -0.686,-0.388 -1.023,-0.59c0.103,0.025 0.207,0.062 0.311,0.111c0.262,0.118 0.492,0.289 0.712,0.479Z" style="fill:#dedede;fill-rule:nonzero;"/><path d="M93.818,74.833c-7.364,0 -14.239,-2.139 -20.034,-5.828c0.262,-0.535 0.792,-0.942 1.404,-0.942c0.108,0 0.218,0.013 0.33,0.039c0.337,0.202 0.678,0.399 1.023,0.59c0.311,0.269 0.601,0.575 0.928,0.814c0.226,0.187 1.681,1.192 2.81,1.437c1.774,0.667 3.573,1.215 5.449,1.514c2.518,0.583 2.609,0.533 5.37,0.747c1.259,0.156 2.416,0.306 3.837,0.306c0.86,0 1.816,-0.055 2.949,-0.196c2.204,-0.224 3.794,-0.361 7.542,-1.466c0.557,-0.139 1.105,-0.338 1.672,-0.434l-0.049,0.002l0.167,-0.035c0.19,-0.069 0.389,-0.098 0.591,-0.098c0.16,0 0.322,0.019 0.482,0.051c0.245,0.063 0.456,0.172 0.632,0.315c-0.06,0.026 -0.121,0.053 -0.18,0.079c-4.574,1.997 -9.621,3.105 -14.923,3.105Z" style="fill-rule:nonzero;"/></g></svg>