<?xml version="1.0" encoding="UTF-8" standalone="no"?><!DOCTYPE svg PUBLIC "-//W3C//DTD SVG 1.1//EN" "http://www.w3.org/Graphics/SVG/1.1/DTD/svg11.dtd"><svg width="100%" height="100%" viewBox="0 0 113 114" version="1.1" xmlns="http://www.w3.org/2000/svg" xmlns:xlink="http://www.w3.org/1999/xlink" xml:space="preserve" xmlns:serif="http://www.serif.com/" style="fill-rule:evenodd;clip-rule:evenodd;stroke-linejoin:round;stroke-miterlimit:2;"><g><path d="M32.047,1.812c26.18,-1.215 52.407,-1.308 78.375,-0.193c1.721,29.914 2.638,60.243 -3.304,89.55c-0.921,4.54 -2.054,9.16 -4.591,12.956c-4.225,6.318 -12.341,9.431 -20.048,7.093c-20.158,-0.346 -36.566,-2.383 -57.14,-3.453c9.779,-34.881 6.02,-70.16 6.708,-105.953Z" style="fill:#fff;fill-rule:nonzero;"/><path d="M26.427,106.981c7.719,0.417 14.894,0.967 21.843,1.499c11.331,0.869 22.034,1.689 34.223,1.898l0.23,0.036c7.141,2.167 14.997,-0.612 19.105,-6.757c2.517,-3.763 3.625,-8.505 4.467,-12.655c6.004,-29.616 4.965,-59.978 3.332,-88.575c-25.062,-1.054 -50.877,-0.99 -76.755,0.187c-0.149,8.591 -0.049,17.272 0.049,25.675c0.3,25.889 0.609,52.648 -6.494,78.692Zm61.217,5.842c-1.767,-0 -3.55,-0.25 -5.295,-0.767c-12.191,-0.214 -22.887,-1.033 -34.208,-1.901c-7.251,-0.556 -14.749,-1.13 -22.846,-1.551c-0.255,-0.013 -0.489,-0.142 -0.639,-0.349c-0.148,-0.207 -0.196,-0.471 -0.127,-0.717c7.327,-26.131 7.028,-51.923 6.712,-79.23c-0.1,-8.672 -0.204,-17.64 -0.034,-26.512c0.009,-0.443 0.359,-0.803 0.801,-0.823c26.452,-1.229 52.846,-1.293 78.45,-0.193c0.431,0.019 0.778,0.36 0.803,0.791c1.664,28.929 2.778,59.689 -3.321,89.765c-0.872,4.306 -2.029,9.238 -4.715,13.256c-3.49,5.219 -9.438,8.231 -15.581,8.231Z" style="fill-rule:nonzero;"/><path d="M2.094,88.599c25.3,-0.466 50.61,-0.274 75.447,0.119c-0.889,6.734 0.441,13.77 3.71,19.633c1.029,1.844 2.618,3.772 4.547,3.641c-8.684,-0.084 -17.299,0.165 -25.908,0.414c-14.827,0.428 -29.636,0.857 -44.751,-0.412c-4.452,-0.616 -10.32,-2.649 -12.749,-9.111c-1.653,-4.397 -2.329,-9.526 -0.296,-14.284Z" style="fill:#fff;fill-rule:nonzero;"/><path d="M2.664,89.428c-1.843,4.813 -0.756,9.786 0.512,13.159c2.263,6.02 7.817,7.986 12.078,8.575c15.017,1.26 30.052,0.824 44.595,0.405c7.315,-0.212 14.845,-0.43 22.363,-0.432c-0.682,-0.72 -1.249,-1.576 -1.694,-2.375c-3.223,-5.778 -4.601,-12.566 -3.919,-19.217c-29.749,-0.464 -52.62,-0.499 -73.935,-0.115Zm34.893,24.246c-7.444,-0 -14.957,-0.21 -22.489,-0.843c-6.803,-0.94 -11.443,-4.276 -13.464,-9.653c-1.421,-3.778 -2.622,-9.432 -0.283,-14.909c0.13,-0.305 0.427,-0.504 0.758,-0.51c21.715,-0.4 44.994,-0.362 75.476,0.119c0.239,0.004 0.466,0.11 0.622,0.292c0.157,0.181 0.229,0.421 0.197,0.658c-0.87,6.59 0.412,13.379 3.611,19.114c0.65,1.166 1.926,3.055 3.436,3.207c0.128,0.001 0.257,0.002 0.385,0.003c0.451,0.004 0.818,0.365 0.832,0.815c0.013,0.451 -0.333,0.833 -0.783,0.863c-0.18,0.012 -0.357,0.01 -0.53,-0.002c-8.52,-0.071 -17.113,0.177 -25.427,0.418c-7.338,0.212 -14.805,0.428 -22.341,0.428Z" style="fill-rule:nonzero;"/><path d="M97.279,23.201l-0.024,-0c-13.845,-0.386 -27.882,-0.444 -41.723,-0.175l-0.017,-0c-0.456,-0 -0.83,-0.365 -0.839,-0.823c-0.009,-0.464 0.36,-0.848 0.824,-0.857c13.866,-0.269 27.93,-0.21 41.802,0.176c0.464,0.012 0.829,0.399 0.816,0.863c-0.012,0.455 -0.386,0.816 -0.839,0.816Z" style="fill-rule:nonzero;"/><path d="M96.101,39.246l-0.008,-0l-31.4,-0.286c-0.464,-0.004 -0.837,-0.383 -0.832,-0.847c0.004,-0.461 0.379,-0.833 0.84,-0.833l0.007,-0l31.4,0.286c0.464,0.005 0.837,0.384 0.833,0.848c-0.005,0.461 -0.38,0.832 -0.84,0.832Z" style="fill-rule:nonzero;"/><path d="M54.706,55.67c-0.45,-0 -0.822,-0.356 -0.839,-0.808c-0.018,-0.464 0.344,-0.854 0.807,-0.872c13.531,-0.511 27.257,-0.727 40.786,-0.648c0.464,0.003 0.838,0.381 0.835,0.845c-0.003,0.462 -0.379,0.835 -0.84,0.835l-0.005,-0c-13.507,-0.08 -27.206,0.136 -40.712,0.647l-0.032,0.001Z" style="fill-rule:nonzero;"/><path d="M54.279,70.695c-0.457,-0 -0.831,-0.366 -0.839,-0.825c-0.009,-0.464 0.361,-0.847 0.825,-0.855l41.26,-0.72l0.015,-0c0.457,-0 0.831,0.366 0.84,0.825c0.008,0.464 -0.362,0.847 -0.826,0.855l-41.26,0.72l-0.015,-0Z" style="fill-rule:nonzero;"/><path d="M79.431,107.251l-0,-0.001l-0.006,-0.013l0.006,0.014Z" style="fill:#dedede;fill-rule:nonzero;"/><path d="M79.425,107.237c-0.02,-0.051 -0.034,-0.086 -0.034,-0.086c-0,-0 0.01,0.025 0.034,0.086Z" style="fill:#dedede;fill-rule:nonzero;"/><path d="M37.525,111.994c-7.386,-0 -14.831,-0.208 -22.271,-0.832c-3.569,-0.494 -8.047,-1.954 -10.736,-5.954c0.248,-0.321 0.592,-0.567 1.021,-0.675c0.172,-0.056 0.34,-0.081 0.506,-0.081c0.58,-0 1.125,0.304 1.654,0.576c1.102,0.439 2.239,0.78 3.397,1.02c4.169,0.743 7.757,1.152 11.808,1.605c1.588,0.158 3.176,0.217 4.765,0.217c2.79,-0 5.582,-0.184 8.371,-0.346c4.435,-0.188 8.873,-0.291 13.303,-0.592c4.355,-0.058 8.687,-0.548 13.043,-0.548l0.159,-0c1.96,-0.126 4.445,-0.241 6.584,-0.255c0.494,-0.115 1.058,-0.302 2.085,-0.656l0.157,-0.063c0.372,-0.172 0.739,-0.356 1.081,-0.588c1.216,-0.847 0.543,-0.257 1.41,-1.191c0.108,-0.157 0.22,-0.307 0.276,-0.38c0.161,-0.255 0.329,-0.584 0.402,-0.722l0.062,-0.186c0.131,-0.456 0.183,-0.954 0.546,-1.292c0.302,-0.311 0.706,-0.467 1.11,-0.467c0.405,-0 0.809,0.156 1.112,0.467c0.043,0.043 0.083,0.087 0.119,0.133c0.2,0.77 0.428,1.533 0.683,2.285c0.116,0.441 0.229,0.866 0.284,1.018c0.497,1.637 0.705,2.109 1.022,2.88l-0.047,-0.116c0.145,0.333 0.316,0.667 0.442,1.01c0.166,0.074 0.331,0.149 0.495,0.227c0.049,0.091 0.099,0.182 0.15,0.272c0.445,0.799 1.012,1.655 1.694,2.375c-7.518,0.002 -15.048,0.22 -22.363,0.432c-0.816,0.024 -1.635,0.047 -2.455,0.07c-0.108,-0.148 -0.184,-0.316 -0.234,-0.493c-3.719,0.36 -7.449,0.585 -11.181,0.77c-2.807,0.049 -5.626,0.08 -8.454,0.08Z" style="fill:#dedede;fill-rule:nonzero;"/><path d="M5.022,108.409c-0.321,-0.185 -0.559,-0.444 -0.719,-0.742c0.23,0.256 0.47,0.503 0.719,0.742Z" style="fill:#dedede;fill-rule:nonzero;"/><path d="M27.899,112.811c-0.208,-0 -0.417,-0.001 -0.624,-0.005c-3.58,-0.009 -7.123,-0.508 -10.654,-1.065c-0.16,-0.017 -0.434,-0.052 -0.672,-0.089c-0.689,-0.096 -2.691,-0.387 -3.055,-0.486c-2.707,-0.558 -5.378,-1.468 -7.847,-2.743c-0.009,-0.005 -0.017,-0.01 -0.025,-0.014c-0.249,-0.239 -0.489,-0.486 -0.719,-0.742c-0.411,-0.762 -0.311,-1.78 0.215,-2.459c2.689,4 7.167,5.46 10.736,5.954c7.44,0.624 14.885,0.832 22.271,0.832c2.828,-0 5.647,-0.031 8.454,-0.08c-2.895,0.144 -5.792,0.263 -8.687,0.401c-3.133,0.138 -6.256,0.496 -9.393,0.496Zm50.174,-0.231c-0.241,-0 -0.488,-0.056 -0.728,-0.179c-0.294,-0.103 -0.526,-0.304 -0.732,-0.538c-0.466,-0.048 -0.933,-0.089 -1.401,-0.108c-0.69,-0.027 -1.379,-0.039 -2.068,-0.039c-1.98,-0 -3.96,0.102 -5.935,0.265c-1.787,0.069 -3.587,0.331 -5.378,0.331c-0.544,-0 -1.087,-0.024 -1.629,-0.085c0.144,0.02 0.289,0.04 0.433,0.06c-0.149,-0.016 -0.303,-0.022 -0.459,-0.022c-0.168,-0 -0.339,0.007 -0.511,0.013c-0.173,0.007 -0.346,0.013 -0.518,0.013c-0.594,-0 -1.167,-0.077 -1.62,-0.497c-0.049,-0.049 -0.093,-0.101 -0.133,-0.157c0.82,-0.023 1.639,-0.046 2.455,-0.07c7.315,-0.212 14.845,-0.43 22.363,-0.432c-0.682,-0.72 -1.249,-1.576 -1.694,-2.375c-0.051,-0.09 -0.101,-0.181 -0.15,-0.272c0.604,0.288 1.188,0.611 1.72,1.017c1.147,1.311 0.139,2.895 -1.283,2.895c-0.212,-0 -0.432,-0.035 -0.656,-0.111l-0.215,-0.042c-0.247,-0.023 -0.493,-0.052 -0.74,-0.08c-0.322,0.256 -0.715,0.413 -1.121,0.413Zm0.099,-9.111c-0.255,-0.752 -0.483,-1.515 -0.683,-2.285c0.234,0.301 0.323,0.682 0.346,1.067c0.05,0.122 0.196,0.682 0.337,1.218Z" style="fill-rule:nonzero;"/><path d="M95.942,109.012l-0.037,-0.029l0.037,0.029Z" style="fill:#dedede;fill-rule:nonzero;"/><path d="M87.651,111.144c-1.042,-0 -2.092,-0.096 -3.134,-0.291c-1.107,-0.607 -2.016,-1.986 -2.532,-2.911c-3.199,-5.735 -4.481,-12.524 -3.611,-19.114c0.032,-0.237 -0.04,-0.477 -0.197,-0.658c-0.156,-0.182 -0.383,-0.288 -0.622,-0.292c-0.103,-0.002 -0.207,-0.003 -0.309,-0.005c0.254,-0.156 0.552,-0.248 0.87,-0.248c0.456,-0 0.953,0.189 1.42,0.647c3.199,2.535 6.131,5.401 9.204,8.091c2.648,2.417 5.447,4.656 7.963,7.222c0.532,0.5 1.052,1.017 1.519,1.581c0.264,0.267 0.519,0.555 0.721,0.875c0.13,0.189 0.239,0.392 0.307,0.618c-1.003,0.919 -2.112,1.708 -3.295,2.357l-0.05,-0.033c-0.003,-0.002 -0.005,-0.004 -0.008,-0.006c-0.122,-0.097 -0.244,-0.194 -0.365,-0.291c-0.005,-0.004 -0.01,-0.008 -0.015,-0.013l-0,0.001c-0.004,-0.004 -0.008,-0.007 -0.012,-0.01c0.004,0.004 0.008,0.007 0.011,0.011c-0.047,0.24 -0.128,0.475 -0.239,0.693c-0.941,0.463 -1.924,0.839 -2.934,1.125c-0.244,-0.101 -0.48,-0.237 -0.703,-0.394c-0.026,0.21 -0.074,0.416 -0.148,0.611c-1.254,0.286 -2.542,0.434 -3.841,0.434Z" style="fill:#dedede;fill-rule:nonzero;"/><path d="M88.53,112.572c-0.618,-0 -1.261,-0.155 -1.907,-0.42c0.011,-0.06 0.016,-0.122 0.015,-0.185c-0.014,-0.45 -0.381,-0.811 -0.832,-0.815c-0.128,-0.001 -0.257,-0.002 -0.385,-0.003c-0.313,-0.032 -0.615,-0.137 -0.904,-0.296c1.042,0.195 2.092,0.291 3.134,0.291c1.299,-0 2.587,-0.148 3.841,-0.434c-0.045,0.119 -0.1,0.233 -0.164,0.342c-0.791,1.083 -1.759,1.52 -2.798,1.52Zm4.699,-1.89c-0.301,-0 -0.599,-0.07 -0.886,-0.189c1.01,-0.286 1.993,-0.662 2.934,-1.125c-0.255,0.501 -0.666,0.913 -1.18,1.097c-0.287,0.152 -0.579,0.217 -0.868,0.217Zm4.013,-1.231c-0.212,-0 -0.428,-0.039 -0.64,-0.122c-0.195,-0.06 -0.38,-0.154 -0.558,-0.255l-0.089,-0.058c1.183,-0.649 2.292,-1.438 3.295,-2.357c0.005,0.014 0.009,0.028 0.013,0.043c0.406,1.368 -0.748,2.749 -2.021,2.749Z" style="fill-rule:nonzero;"/><path d="M76.559,89.959c-0.06,-0.139 -0.1,-0.279 -0.12,-0.418c0.052,0.001 0.108,0.001 0.16,0.002c-0.014,0.139 -0.027,0.277 -0.04,0.416Z" style="fill:#dedede;fill-rule:nonzero;"/><path d="M86.623,112.152c-2.604,-1.07 -5.251,-3.94 -6.472,-5.729c-1.107,-1.496 -1.834,-3.262 -2.209,-5.098c-0.126,-0.731 -0.271,-1.518 -0.149,-2.257c-0.532,-1.494 -0.893,-3.036 -0.653,-4.612c0.045,-0.203 0.107,-0.389 0.177,-0.569c-0.062,-0.104 -0.129,-0.205 -0.19,-0.31c-0.554,-0.957 -0.32,-1.971 0.27,-2.658l-0.142,-0.112c-0.342,-0.262 -0.567,-0.552 -0.696,-0.848c0.013,-0.139 0.026,-0.277 0.04,-0.416c-0.052,-0.001 -0.108,-0.001 -0.16,-0.002c-0.1,-0.678 0.25,-1.327 0.807,-1.668c0.102,0.002 0.206,0.003 0.309,0.005c0.239,0.004 0.466,0.11 0.622,0.292c0.157,0.181 0.229,0.421 0.197,0.658c-0.87,6.59 0.412,13.379 3.611,19.114c0.516,0.925 1.425,2.304 2.532,2.911c0.289,0.159 0.591,0.264 0.904,0.296c0.128,0.001 0.257,0.002 0.385,0.003c0.451,0.004 0.818,0.365 0.832,0.815c0.001,0.063 -0.004,0.125 -0.015,0.185Z" style="fill-rule:nonzero;"/><path d="M95.905,108.983c-0.138,-0.09 -0.267,-0.195 -0.389,-0.308l0.001,-0.001c0.005,0.004 0.01,0.008 0.015,0.012c0.12,0.098 0.241,0.196 0.365,0.291c0.002,0.002 0.005,0.004 0.008,0.006Z" style="fill:#dedede;fill-rule:nonzero;"/><path d="M95.897,108.977c-0.124,-0.095 -0.245,-0.193 -0.365,-0.291c0.121,0.097 0.243,0.194 0.365,0.291Zm-0.381,-0.302c-0.003,-0.004 -0.007,-0.007 -0.011,-0.011c0.004,0.003 0.008,0.006 0.012,0.01l-0.001,0.001Z" style="fill:#c1c1c1;fill-rule:nonzero;"/><path d="M14.231,42.354c-0.637,13.373 -1.592,13.604 -1.15,27.08c10.118,0.029 20.459,1.079 30.639,-0.25c-0.491,-12.951 -0.068,-13.153 -0.203,-26.391c5.076,0.002 5.251,0.003 10.375,-0.086c-9.724,-10.405 -14.14,-16.685 -24.568,-27.232c-10.179,9.921 -15.863,15.724 -25.275,26.382c4.919,0.005 5.432,0.497 10.182,0.497Z" style="fill:#acd4f7;fill-rule:nonzero;"/><path d="M13.895,68.598c2.781,0.023 5.606,0.116 8.347,0.205c6.782,0.224 13.783,0.454 20.61,-0.357c-0.265,-7.251 -0.23,-10.422 -0.187,-14.4c0.031,-2.798 0.066,-5.969 0.012,-11.244c-0.002,-0.225 0.085,-0.441 0.243,-0.6c0.158,-0.159 0.373,-0.249 0.597,-0.249l0.257,-0c4.1,-0 4.902,0.001 8.223,-0.054c-3.571,-3.871 -6.436,-7.193 -9.216,-10.416c-4.036,-4.68 -7.856,-9.109 -13.469,-14.824c-9.203,8.98 -14.796,14.671 -23.422,24.386c1.436,0.045 2.437,0.137 3.414,0.227c1.339,0.124 2.605,0.241 4.927,0.241c0.23,-0 0.45,0.094 0.608,0.261c0.159,0.166 0.242,0.389 0.231,0.619c-0.233,4.9 -0.504,7.988 -0.744,10.713c-0.399,4.542 -0.667,7.595 -0.431,15.492Zm17.978,2.096c-3.254,-0 -6.494,-0.106 -9.685,-0.211c-2.996,-0.099 -6.094,-0.2 -9.109,-0.209c-0.453,-0.001 -0.823,-0.36 -0.838,-0.813c-0.281,-8.605 0.009,-11.918 0.411,-16.503c0.224,-2.542 0.475,-5.403 0.697,-9.771c-1.87,-0.026 -3.051,-0.136 -4.199,-0.241c-1.31,-0.121 -2.666,-0.247 -5.101,-0.249c-0.33,-0 -0.63,-0.194 -0.765,-0.495c-0.136,-0.301 -0.083,-0.653 0.136,-0.901c9.558,-10.824 15.292,-16.656 25.318,-26.428c0.329,-0.321 0.859,-0.317 1.183,0.011c5.977,6.045 9.938,10.639 14.132,15.502c3.095,3.588 6.294,7.297 10.453,11.748c0.227,0.242 0.289,0.595 0.16,0.901c-0.13,0.305 -0.427,0.506 -0.759,0.512c-4.828,0.084 -5.297,0.093 -9.542,0.086c0.042,4.791 0.009,7.778 -0.02,10.431c-0.045,4.094 -0.08,7.327 0.214,15.088c0.017,0.434 -0.3,0.809 -0.73,0.865c-3.964,0.517 -7.971,0.677 -11.956,0.677Z" style="fill-rule:nonzero;"/><path d="M33.022,58.201c-3.537,-0.236 -7.089,-0.275 -10.631,-0.119c0.015,-3.016 0.157,-6.137 0.298,-9.257c3.656,-0.189 7.156,-0.186 10.554,-0.094c0.137,2.911 0.065,5.831 -0.221,9.47Z" style="fill:#fff;fill-rule:nonzero;"/><path d="M26.624,57.149c1.876,-0 3.755,0.054 5.622,0.162c0.21,-2.931 0.27,-5.383 0.19,-7.76c-3.271,-0.076 -6.149,-0.05 -8.944,0.076c-0.112,2.521 -0.222,5.098 -0.254,7.581c1.125,-0.039 2.256,-0.059 3.386,-0.059Zm6.398,1.892l-0.056,-0.002c-3.497,-0.232 -7.042,-0.272 -10.538,-0.118c-0.24,0.007 -0.455,-0.074 -0.621,-0.234c-0.164,-0.159 -0.257,-0.38 -0.256,-0.609c0.016,-3.033 0.159,-6.215 0.299,-9.291c0.019,-0.432 0.364,-0.778 0.795,-0.801c3.299,-0.171 6.674,-0.201 10.621,-0.095c0.44,0.012 0.796,0.36 0.816,0.8c0.138,2.917 0.069,5.87 -0.223,9.575c-0.034,0.44 -0.402,0.775 -0.837,0.775Z" style="fill-rule:nonzero;"/><path d="M10.504,107.138c-0.091,-0 -0.18,-0.044 -0.234,-0.125c-3.024,-4.579 -4.332,-10.323 -3.589,-15.76c0.021,-0.153 0.165,-0.266 0.315,-0.239c0.154,0.02 0.261,0.162 0.24,0.315c-0.725,5.304 0.551,10.908 3.501,15.375c0.086,0.129 0.05,0.303 -0.079,0.388l-0.154,0.046Z" style="fill-rule:nonzero;"/><path d="M10.956,96.183c-0.124,-0 -0.236,-0.082 -0.271,-0.206c-0.393,-1.427 -0.473,-2.955 -0.231,-4.417c0.025,-0.153 0.173,-0.256 0.322,-0.231c0.152,0.025 0.256,0.169 0.23,0.322c-0.228,1.383 -0.152,2.828 0.22,4.177c0.041,0.15 -0.047,0.304 -0.196,0.345l-0.074,0.01Z" style="fill-rule:nonzero;"/><path d="M73.437,98.45c-0.127,-0 -0.242,-0.086 -0.273,-0.214c-0.52,-2.144 -0.781,-4.352 -0.776,-6.559c-0,-0.155 0.125,-0.28 0.28,-0.28c0.155,0.001 0.28,0.126 0.28,0.281c-0.005,2.163 0.251,4.325 0.761,6.426c0.036,0.15 -0.056,0.302 -0.206,0.339l-0.066,0.007Z" style="fill-rule:nonzero;"/><path d="M107.245,18.181c-0.15,-0 -0.275,-0.119 -0.28,-0.27l-0.46,-13.436c-0.005,-0.154 0.116,-0.284 0.271,-0.289l0.009,-0c0.15,-0 0.275,0.119 0.28,0.27l0.46,13.436c0.005,0.154 -0.116,0.284 -0.27,0.289l-0.01,-0Z" style="fill-rule:nonzero;"/><path d="M104.044,10.767c-0.15,-0 -0.274,-0.118 -0.28,-0.269l-0.232,-6.139c-0.005,-0.154 0.115,-0.284 0.27,-0.29c0.167,0.014 0.284,0.115 0.29,0.269l0.232,6.139c0.005,0.154 -0.115,0.284 -0.27,0.29l-0.01,-0Z" style="fill-rule:nonzero;"/><path d="M36.348,13.438c-0.139,-0 -0.261,-0.105 -0.277,-0.247c-0.352,-2.964 -0.482,-5.981 -0.387,-8.966c0.005,-0.154 0.125,-0.269 0.289,-0.271c0.155,0.005 0.276,0.134 0.271,0.289c-0.094,2.957 0.034,5.945 0.382,8.882c0.019,0.153 -0.091,0.293 -0.245,0.311l-0.033,0.002Z" style="fill-rule:nonzero;"/><path d="M39.416,8.451c-0.155,-0 -0.28,-0.125 -0.28,-0.28l-0,-4.054c-0,-0.154 0.125,-0.28 0.28,-0.28c0.155,-0 0.28,0.126 0.28,0.28l-0,4.054c-0,0.155 -0.125,0.28 -0.28,0.28Z" style="fill-rule:nonzero;"/><path d="M43.054,6.806c-0.155,-0 -0.28,-0.125 -0.28,-0.28l-0,-2.277c-0,-0.155 0.125,-0.28 0.28,-0.28c0.155,-0 0.28,0.125 0.28,0.28l-0,2.277c-0,0.155 -0.125,0.28 -0.28,0.28Z" style="fill-rule:nonzero;"/><path d="M30.429,72.971c-0.389,-0.528 -0.559,-1.213 -0.35,-1.891c0.036,-0.143 0.083,-0.274 0.139,-0.395c0.127,0.002 0.254,0.003 0.381,0.004c-0.053,0.76 -0.11,1.523 -0.17,2.282Z" style="fill:#dedede;fill-rule:nonzero;"/><path d="M32.237,73.927c-0.079,-0 -0.157,-0.005 -0.233,-0.014c0.089,-1.073 0.17,-2.146 0.246,-3.219c3.86,-0.01 7.74,-0.176 11.579,-0.677c0.164,-0.021 0.311,-0.089 0.43,-0.188c1.183,1.483 0.029,3.365 -1.786,3.365c-0.082,-0 -0.167,-0.004 -0.252,-0.012c-3.969,0.27 -8.567,0.364 -9.387,0.654c-0.2,0.062 -0.4,0.091 -0.597,0.091Z" style="fill:#dedede;fill-rule:nonzero;"/><path d="M32.004,73.913c-0.63,-0.073 -1.203,-0.435 -1.575,-0.942c0.06,-0.759 0.117,-1.522 0.17,-2.282c0.424,0.003 0.849,0.005 1.274,0.005l0.377,-0c-0.076,1.073 -0.157,2.146 -0.246,3.219Z" style="fill-rule:nonzero;"/><path d="M31.873,70.694c-0.425,-0 -0.85,-0.002 -1.274,-0.005c-0.127,-0.001 -0.254,-0.002 -0.381,-0.004c0.563,-1.214 2.065,-1.326 3.309,-1.362c0.178,-0.006 0.357,-0.009 0.536,-0.009c0.381,-0 0.762,0.012 1.144,0.023c0.383,0.012 0.767,0.024 1.15,0.024c0.321,-0 0.642,-0.008 0.963,-0.032c1.072,-0.102 2.138,-0.246 3.215,-0.246c0.13,-0 0.261,0.003 0.392,0.007c0.053,-0.002 0.106,-0.003 0.159,-0.003c0.189,-0 0.378,0.011 0.567,0.021c0.19,0.01 0.381,0.02 0.572,0.02l0.091,-0c0.119,-0.019 0.238,-0.028 0.355,-0.028c0.546,-0 1.062,0.202 1.471,0.592c0.041,0.045 0.08,0.091 0.117,0.137c-0.119,0.099 -0.266,0.167 -0.43,0.188c-3.839,0.501 -7.719,0.667 -11.579,0.677l-0.377,-0Z" style="fill-rule:nonzero;"/><path d="M51.421,46.291c-0.254,-0 -0.51,-0.012 -0.767,-0.03c-0.24,0.007 -0.48,0.01 -0.721,0.01c-0.572,-0 -1.144,-0.016 -1.717,-0.031c-0.569,-0.015 -1.139,-0.03 -1.708,-0.03c-0.573,-0 -1.144,0.015 -1.715,0.061l-0.023,-0c-0.136,-0 -0.266,-0.014 -0.388,-0.041c-0.003,-0.805 -0.009,-1.667 -0.017,-2.597c0.702,0.001 1.3,0.002 1.832,0.002c2.687,-0 3.68,-0.018 7.71,-0.088c0.177,-0.003 0.343,-0.061 0.48,-0.161c0.033,0.044 0.065,0.09 0.095,0.138l-0.021,-0.012c0.239,0.389 0.332,0.864 0.19,1.307l-0,-0.001c-0.039,0.149 -0.101,0.281 -0.173,0.405l-0.087,0.134l-0.077,0.105l-0.166,0.169c-0.423,0.383 -1.026,0.572 -1.609,0.572l-0.025,-0c-0.363,0.064 -0.727,0.088 -1.093,0.088Z" style="fill:#dedede;fill-rule:nonzero;"/><path d="M44.382,46.23c-1.56,-0.344 -1.918,-2.732 -0.274,-3.361c0.323,-0.145 0.672,-0.178 1.027,-0.178c0.145,-0 0.292,0.006 0.439,0.011c0.147,0.006 0.293,0.011 0.438,0.011c0.111,-0 0.22,-0.003 0.328,-0.012c0.528,0.022 1.055,0.034 1.582,0.034c0.857,-0 1.713,-0.031 2.571,-0.099c0.139,-0.015 0.197,-0.02 0.204,-0.02c0.018,-0 -0.279,0.035 -0.435,0.057c0.572,-0.07 1.242,-0.173 1.893,-0.173c0.872,-0 1.71,0.186 2.232,0.886c-0.137,0.1 -0.303,0.158 -0.48,0.161c-4.03,0.07 -5.023,0.088 -7.71,0.088c-0.532,-0 -1.13,-0.001 -1.832,-0.002c0.008,0.93 0.014,1.792 0.017,2.597Z" style="fill-rule:nonzero;"/></g></svg>