<?xml version="1.0" encoding="UTF-8" standalone="no"?><!DOCTYPE svg PUBLIC "-//W3C//DTD SVG 1.1//EN" "http://www.w3.org/Graphics/SVG/1.1/DTD/svg11.dtd"><svg width="100%" height="100%" viewBox="0 0 408 358" version="1.1" xmlns="http://www.w3.org/2000/svg" xmlns:xlink="http://www.w3.org/1999/xlink" xml:space="preserve" xmlns:serif="http://www.serif.com/" style="fill-rule:evenodd;clip-rule:evenodd;stroke-linejoin:round;stroke-miterlimit:2;"><g><path d="M74.821,245.012c22.231,22.708 42.759,47.083 61.355,72.851c9.844,13.642 20.205,28.507 36.077,34.08c3.439,1.207 7.168,1.93 10.734,1.176c5.311,-1.123 9.55,-5.47 11.606,-10.494c2.055,-5.024 2.183,-10.645 1.548,-16.036c-0.489,-4.155 -1.446,-8.338 -3.601,-11.924c-2.002,-3.335 -4.937,-5.993 -7.865,-8.555c-20.362,-17.823 -42.728,-33.865 -59.064,-55.942c3.09,-2.295 6.21,-4.619 8.69,-7.564c2.479,-2.945 4.295,-6.613 4.309,-10.462c0.021,-5.858 -3.973,-10.867 -7.428,-15.76c40.912,-16.263 83.823,-27.492 127.21,-34.372c-10.236,-18.259 -18.661,-37.466 -27.068,-56.636c-11.408,-26.015 -22.817,-52.03 -35.004,-76.616c-26.519,28.683 -59.2,50.822 -91.566,72.694c-22.235,15.025 -44.538,30.091 -68.429,42.314c-12.743,6.52 -27.05,13.375 -32.399,26.652c-3.378,8.384 -2.411,18.026 0.789,26.48c3.202,8.454 8.471,15.942 13.777,23.26c4.356,6.006 9.606,12.471 17.344,14.07c13.724,-0.085 27.415,-3.532 38.985,-9.216Z" style="fill:#fff;fill-rule:nonzero;"/><path d="M247.411,68.508c7.507,21.735 16.974,42.792 28.247,62.834c6.513,-1.349 11.497,-6.965 13.834,-13.192c2.337,-6.228 2.453,-13.043 2.344,-19.693c-0.046,-2.741 -0.132,-5.529 -1.014,-8.123c-0.784,-2.308 -2.164,-4.36 -3.572,-6.35c-3.456,-4.884 -7.276,-9.666 -12.29,-12.931c-8.102,-5.277 -19.026,-5.887 -27.549,-2.545Z" style="fill:#fff;fill-rule:nonzero;"/><path d="M257.349,184.226c-20.255,-46.088 -40.511,-92.178 -60.82,-139.006c9.918,-9.974 17.615,-22.299 22.325,-35.745c0,-0 81.572,177.359 81.608,176.599c-13.888,-4.25 -28.732,-5.168 -43.113,-1.848Z" style="fill:#acd4f7;fill-rule:nonzero;"/><path d="M73.498,143.973c9.722,27.083 21.167,53.776 34.05,79.401c17.435,-7.186 136.8,-54.979 190.077,-39.436l-78.706,-170.711c-17.183,45.744 -69.3,80.22 -119.766,113.607c-8.476,5.607 -17.223,11.394 -25.655,17.139Zm32.976,84.565c-0.829,-0 -1.624,-0.459 -2.022,-1.242c-13.615,-26.884 -25.663,-54.959 -35.81,-83.448c-0.345,-0.969 0.006,-2.049 0.856,-2.629c8.902,-6.088 18.182,-12.226 27.154,-18.163c51.774,-34.252 105.311,-69.67 119.792,-116.582c0.276,-0.897 1.078,-1.53 2.013,-1.594c0.942,-0.044 1.815,0.46 2.207,1.313l82.737,179.452c0.523,1.137 0.027,2.483 -1.109,3.006c-0.443,0.203 -0.919,0.251 -1.364,0.17c-0.576,0.398 -1.329,0.526 -2.04,0.277c-53.039,-18.564 -190.157,38.682 -191.536,39.263c-0.286,0.119 -0.584,0.177 -0.878,0.177Z" style="fill-rule:nonzero;"/><path d="M256.397,182.807c-0.867,-0 -1.695,-0.5 -2.07,-1.344l-58.522,-131.401c-0.509,-1.143 0.005,-2.482 1.148,-2.99c1.145,-0.513 2.483,0.003 2.99,1.146l58.521,131.402c0.51,1.143 -0.004,2.482 -1.147,2.99c-0.299,0.135 -0.613,0.197 -0.92,0.197Z" style="fill-rule:nonzero;"/><path d="M277.75,134.244c-0.713,-0 -1.414,-0.334 -1.854,-0.962c-0.721,-1.022 -0.474,-2.437 0.549,-3.157c7.102,-4.993 12.189,-13.207 13.605,-21.974c1.418,-8.772 -0.817,-18.228 -5.977,-25.294c-2.508,-3.436 -5.715,-6.429 -9.529,-8.896c-6.487,-4.197 -16.262,-7.083 -24.235,-2.601c-1.092,0.615 -2.471,0.225 -3.084,-0.864c-0.613,-1.091 -0.226,-2.472 0.865,-3.086c9.73,-5.468 21.318,-2.166 28.914,2.746c4.282,2.769 7.891,6.144 10.728,10.028c5.858,8.024 8.397,18.749 6.791,28.689c-1.607,9.947 -7.391,19.278 -15.472,24.96c-0.396,0.277 -0.851,0.411 -1.301,0.411Z" style="fill-rule:nonzero;"/><path d="M42.128,257.075c-3.331,-0 -6.632,-0.567 -9.849,-1.905c-8.839,-3.677 -14.338,-12.031 -19.648,-20.997c-4.294,-7.251 -9.16,-15.468 -11.41,-24.696c-2.536,-10.393 -1.082,-20.448 3.991,-27.582c4.072,-5.725 10.241,-9.32 15.198,-12.21c15.949,-9.301 31.819,-18.44 50.597,-27.995c1.115,-0.566 2.478,-0.124 3.046,0.991c0.566,1.116 0.122,2.479 -0.992,3.047c-18.671,9.5 -34.48,18.604 -50.369,27.871c-5.626,3.28 -10.546,6.364 -13.787,10.92c-4.31,6.062 -5.508,14.769 -3.284,23.884c2.092,8.573 6.775,16.483 10.907,23.46c4.906,8.285 9.936,15.981 17.492,19.124c10.263,4.274 21.9,-0.868 32.936,-6.5c6.939,-3.542 13.263,-6.9 19.38,-10.149c6.146,-3.264 12.501,-6.64 19.492,-10.206c1.115,-0.569 2.48,-0.127 3.048,0.988c0.568,1.113 0.126,2.478 -0.989,3.046c-6.957,3.551 -13.296,6.916 -19.427,10.173c-6.132,3.257 -12.473,6.624 -19.444,10.183c-8.398,4.283 -17.749,8.553 -26.888,8.553Z" style="fill-rule:nonzero;"/><path d="M178.154,357.03c-11.213,-0 -21.155,-8.575 -25.41,-12.847c-8.293,-8.324 -14.978,-18.233 -21.441,-27.816c-1.473,-2.182 -2.944,-4.364 -4.433,-6.527c-15.767,-22.895 -33.926,-44.119 -53.973,-63.084c-0.909,-0.859 -0.948,-2.292 -0.088,-3.202c0.861,-0.907 2.293,-0.949 3.201,-0.09c20.276,19.184 38.644,40.652 54.591,63.807c1.497,2.174 2.977,4.369 4.458,6.563c6.345,9.407 12.906,19.134 20.894,27.152c4.538,4.554 16.34,14.694 27.866,10.524c10.375,-3.757 14.334,-18.125 10.942,-28.459c-3.042,-9.27 -9.626,-14.042 -18.737,-20.648c-1.72,-1.247 -3.519,-2.551 -5.384,-3.952l-0.542,-0.404c-13.905,-10.357 -28.482,-24.245 -43.323,-41.275c-3.84,-4.407 -7.615,-11.421 -11.61,-18.848c-2.181,-4.052 -4.437,-8.244 -6.677,-11.921c-0.65,-1.069 -0.312,-2.463 0.756,-3.113c1.069,-0.653 2.462,-0.311 3.114,0.756c2.302,3.781 4.587,8.027 6.797,12.131c3.871,7.197 7.529,13.995 11.036,18.02c14.629,16.786 28.966,30.453 42.613,40.618l0.555,0.414c1.845,1.384 3.623,2.673 5.325,3.907c9.432,6.838 16.881,12.238 20.382,22.902c4.046,12.331 -0.586,29.381 -13.704,34.131c-2.43,0.88 -4.849,1.261 -7.208,1.261Z" style="fill-rule:nonzero;"/><path d="M127.172,252.369c-0.56,-0 -1.121,-0.206 -1.56,-0.624c-0.906,-0.863 -0.942,-2.296 -0.08,-3.203l7.426,-7.807c0.989,-1.038 1.923,-2.02 2.551,-3.126c1.399,-2.461 1.403,-5.948 0.012,-9.324c-1.359,-3.3 -3.773,-6.171 -6.107,-8.948c-0.805,-0.957 -0.681,-2.386 0.276,-3.191c0.959,-0.806 2.386,-0.682 3.191,0.277c2.438,2.899 5.201,6.186 6.827,10.136c1.919,4.657 1.822,9.624 -0.259,13.287c-0.902,1.588 -2.128,2.876 -3.208,4.013l-7.426,7.806c-0.446,0.469 -1.044,0.704 -1.643,0.704Z" style="fill-rule:nonzero;"/><path d="M22.809,197.427c-0.788,-0 -1.552,-0.41 -1.97,-1.143c-0.62,-1.087 -0.241,-2.47 0.845,-3.089c13.899,-7.928 28.343,-15.216 42.932,-21.662c1.147,-0.506 2.482,0.012 2.987,1.156c0.506,1.144 -0.012,2.482 -1.156,2.988c-14.448,6.384 -28.753,13.601 -42.518,21.452c-0.354,0.202 -0.74,0.298 -1.12,0.298Z" style="fill-rule:nonzero;"/><path d="M31.907,215.044c-0.843,-0 -1.651,-0.472 -2.042,-1.281c-0.543,-1.127 -0.07,-2.481 1.057,-3.025c14.299,-6.894 28.932,-13.593 43.491,-19.91c1.149,-0.496 2.483,0.029 2.979,1.177c0.498,1.147 -0.028,2.48 -1.176,2.979c-14.504,6.292 -29.082,12.967 -43.327,19.836c-0.317,0.152 -0.651,0.224 -0.982,0.224Z" style="fill-rule:nonzero;"/><path d="M40.926,234.22c-0.802,-0 -1.579,-0.426 -1.99,-1.181c-0.599,-1.098 -0.194,-2.473 0.904,-3.074c14.075,-7.674 28.721,-14.617 43.53,-20.631c1.159,-0.47 2.48,0.086 2.951,1.246c0.471,1.159 -0.087,2.481 -1.246,2.951c-14.651,5.95 -29.141,12.818 -43.066,20.413c-0.344,0.187 -0.716,0.276 -1.083,0.276Z" style="fill-rule:nonzero;"/><path d="M234.263,174.684c-0.261,-0 -0.515,-0.136 -0.655,-0.379l-16.842,-29.288c-0.207,-0.361 -0.083,-0.823 0.279,-1.031c0.36,-0.206 0.823,-0.084 1.031,0.279l16.841,29.288c0.208,0.361 0.084,0.823 -0.279,1.031c-0.117,0.067 -0.247,0.1 -0.375,0.1Z" style="fill-rule:nonzero;"/><path d="M220.692,178.958c-0.259,-0 -0.511,-0.134 -0.652,-0.374l-8.564,-14.63c-0.211,-0.36 -0.09,-0.823 0.27,-1.033c0.358,-0.208 0.821,-0.089 1.033,0.269l8.564,14.631c0.21,0.36 0.09,0.823 -0.27,1.034c-0.12,0.069 -0.251,0.103 -0.381,0.103Z" style="fill-rule:nonzero;"/><path d="M205.59,185.192c-0.258,-0 -0.509,-0.134 -0.65,-0.371l-6.5,-10.965c-0.212,-0.359 -0.095,-0.822 0.265,-1.034c0.361,-0.214 0.823,-0.093 1.034,0.264l6.5,10.965c0.212,0.359 0.095,0.823 -0.264,1.034c-0.122,0.073 -0.254,0.107 -0.385,0.107Z" style="fill-rule:nonzero;"/><path d="M188.807,189.309c-0.264,-0 -0.52,-0.138 -0.659,-0.387l-4.74,-8.453c-0.204,-0.362 -0.074,-0.822 0.289,-1.027c0.367,-0.203 0.824,-0.076 1.029,0.291l4.739,8.452c0.204,0.363 0.074,0.823 -0.289,1.028c-0.117,0.065 -0.244,0.096 -0.369,0.096Z" style="fill-rule:nonzero;"/><path d="M277.312,129.06l-4.129,-8.956c1.437,-1.291 1.478,-0.571 4.104,-3.332c2.868,-2.748 6.477,-8.143 7.978,-12.853c0.576,-1.306 0.656,-2.882 1.772,-3.879c0.697,-0.675 1.622,-0.992 2.548,-0.992c0.226,-0 0.452,0.019 0.675,0.056c0.332,3.015 0.271,6.07 -0.21,9.047c-1.279,7.918 -5.552,15.385 -11.6,20.436c-0.373,0.214 -0.754,0.37 -1.138,0.473Z" style="fill:#dedede;fill-rule:nonzero;"/><path d="M276.113,129.219c-3.511,-0 -6.636,-3.979 -4.309,-7.709c0.585,-0.647 1.024,-1.088 1.379,-1.406l4.129,8.956c-0.4,0.108 -0.802,0.16 -1.199,0.159Z" style="fill-rule:nonzero;"/><path d="M278.45,128.587c6.048,-5.051 10.321,-12.518 11.6,-20.436c0.481,-2.977 0.542,-6.032 0.21,-9.047c1.311,0.219 2.508,1.069 2.913,2.426c0.388,0.75 0.276,1.569 0.12,2.372c-0.144,2.082 -0.707,4.124 -1.428,6.075c-3.129,6.791 -4.852,12.31 -12.438,17.891c-0.316,0.289 -0.643,0.527 -0.977,0.719Z" style="fill-rule:nonzero;"/><path d="M156.145,280.581c-0.162,-0.147 -0.325,-0.296 -0.486,-0.444c0.157,0.123 0.317,0.247 0.48,0.37c0.002,0.025 0.004,0.05 0.006,0.074Zm-78.809,-29.558c-1.24,-0.252 -2.375,-0.937 -3.059,-2.056c-0.444,-0.554 -0.729,-1.14 -0.88,-1.737c1.321,1.254 2.634,2.518 3.939,3.793Zm223.376,-71.211l-1.695,-3.674c1.11,0.979 1.82,2.189 1.695,3.674Z" style="fill:#dedede;fill-rule:nonzero;"/><path d="M152.458,284.804c-1.464,-0 -2.952,-0.939 -4.04,-1.961c-2.173,-1.685 -5.504,-4.459 -5.606,-4.551c-1.98,-1.587 -4.31,-3.519 -6.584,-5.402c-1.673,-1.241 -3.317,-2.518 -4.873,-3.902c-0.249,-0.227 -0.487,-0.464 -0.733,-0.694c-1.656,-1.326 -2.989,-2.344 -3.702,-2.763c-2.297,-1.714 -4.15,-3.888 -6.176,-5.892c-3.775,-3.65 -7.8,-7.027 -11.592,-10.661c-0.805,-0.621 -1.633,-1.214 -2.497,-1.753c-1.547,-0.766 -0.81,-0.882 -4.351,-1.735c-0.597,-0.068 -1.387,-0.076 -1.926,-0.076c-0.176,-0 -0.326,0.001 -0.433,0.001c-4.228,0.472 -4.802,0.898 -7.259,1.716c-2.998,1.139 -5.936,2.451 -8.685,4.11c-2.309,-2.312 -4.645,-4.593 -7.008,-6.844c3.961,-2.072 7.752,-4.085 11.467,-6.058c6.131,-3.257 12.47,-6.622 19.427,-10.173c0.062,-0.032 0.122,-0.066 0.18,-0.102c0.333,-0.137 0.779,-0.321 1.329,-0.545c1.94,3.29 3.883,6.9 5.769,10.405c3.995,7.427 7.77,14.441 11.61,18.848c9.125,10.47 18.15,19.753 26.979,27.758c-0.422,0.19 -0.858,0.274 -1.296,0.274Zm-110.233,-32.236c-2.804,-0 -5.551,-0.476 -8.205,-1.581c-3.69,-1.535 -6.778,-4.156 -9.543,-7.401c0.972,-1.129 2.515,-1.534 4.055,-1.534c0.57,-0 1.14,0.056 1.68,0.15c4.129,0.304 6.651,0.573 8.946,0.573c1.839,-0 3.532,-0.173 5.788,-0.64c10.696,-2.044 17.751,-6.565 29.13,-13.055c8.11,-4.642 16.235,-9.29 24.493,-13.676c1.608,3.329 3.241,6.643 4.897,9.938c-6.072,3.123 -11.684,6.103 -17.13,8.996c-6.117,3.249 -12.441,6.607 -19.38,10.149c-8.182,4.175 -16.693,8.081 -24.731,8.081Zm74.65,-21.005c-1.066,-1.954 -2.145,-3.894 -3.23,-5.755c3.854,-1.533 9.327,-3.668 16.026,-6.165c1.89,2.25 3.804,4.57 5.145,7.135c-0.955,0.884 -2.243,1.407 -3.547,1.407c-0.512,-0 -1.027,-0.08 -1.525,-0.251l-0.094,-0.039c-6.284,0.898 -7.151,1.681 -12.775,3.668Zm-9.327,-8.189c-1.679,-3.341 -3.334,-6.7 -4.964,-10.075c8.125,-4.202 16.395,-8.112 24.918,-11.477c17.683,-7.128 36.376,-11.052 54.517,-16.752c1.13,-0.341 2.259,-0.689 3.389,-1.034l2.74,4.886c0.139,0.249 0.395,0.387 0.659,0.387c0.125,-0 0.252,-0.031 0.369,-0.096c0.363,-0.205 0.493,-0.665 0.289,-1.028l-2.579,-4.598c4.494,-1.359 9.013,-2.632 13.664,-3.338c0.514,-0.079 1.028,-0.156 1.543,-0.231l2.847,4.803c0.141,0.237 0.392,0.371 0.65,0.371c0.131,-0 0.263,-0.034 0.385,-0.107c0.359,-0.211 0.476,-0.675 0.264,-1.034l-2.528,-4.264c5.214,-0.731 10.437,-1.355 15.584,-2.475l0.745,1.272c0.141,0.24 0.393,0.374 0.652,0.374c0.13,-0 0.261,-0.034 0.381,-0.103c0.36,-0.211 0.48,-0.674 0.27,-1.034l-0.504,-0.862c0.578,-0.138 1.156,-0.283 1.732,-0.436c3.755,-0.711 7.528,-1.361 11.315,-1.94c0.115,0.066 0.245,0.101 0.377,0.101c0.128,-0 0.258,-0.033 0.375,-0.1c0.068,-0.039 0.128,-0.087 0.178,-0.141c5.161,-0.773 10.345,-1.412 15.543,-1.89l3.968,8.91c0.051,0.113 0.109,0.221 0.175,0.321c-57.874,5.729 -133.367,35.99 -146.954,41.59Z" style="fill:#dedede;fill-rule:nonzero;"/><path d="M297.342,183.856c-1.861,-0.533 -3.802,-0.989 -5.816,-1.374c-2.424,-0.717 -4.448,-0.933 -6.969,-1.02c-3.937,-0.418 -8.088,-0.614 -12.41,-0.614c-4.394,-0 -8.964,0.203 -13.667,0.579c0.237,-0.558 0.251,-1.209 -0.016,-1.807l-3.322,-7.46c5.352,-0.388 10.714,-0.597 16.072,-0.597c0.457,-0 0.915,0.001 1.372,0.005c6.664,0.46 13.56,-0.339 20.032,1.511l4.941,10.715c-0.072,0.022 -0.144,0.043 -0.217,0.062Z" style="fill:#96b9d7;fill-rule:nonzero;"/><path d="M108.067,228.064c0.457,-0.287 0.78,-0.717 0.94,-1.2c0.13,0.217 0.26,0.435 0.389,0.655c-0.55,0.224 -0.996,0.408 -1.329,0.545Zm5.578,-2.256c-0.428,-0.734 -0.857,-1.456 -1.287,-2.162c-0.427,-0.7 -1.174,-1.088 -1.938,-1.088c-0.402,-0 -0.808,0.107 -1.176,0.332c-0.547,0.333 -0.903,0.862 -1.032,1.442c-0.391,-0.291 -0.868,-0.448 -1.355,-0.448c-0.347,-0 -0.699,0.079 -1.029,0.248c-0.795,0.405 -1.582,0.809 -2.362,1.21c-1.656,-3.295 -3.289,-6.609 -4.897,-9.938c1.334,-0.709 2.673,-1.411 4.015,-2.105c1.63,3.375 3.285,6.734 4.964,10.075c13.587,-5.6 89.08,-35.861 146.954,-41.59c0.095,0.146 0.206,0.279 0.329,0.396c-0.018,0.045 -0.038,0.09 -0.061,0.135c-0.364,0.941 -1.211,1.733 -2.188,2.004c-1.526,0.535 -1.654,0.177 -4.928,0.619c-3.865,0.356 -7.678,1.104 -11.505,1.729c-12.091,1.813 -23.9,5.108 -35.844,7.698c-8.699,2.315 -12.272,4.48 -22.903,7.491c-16.714,4.571 -28.102,8.407 -42.842,13.437c-0.454,0.18 -1.136,0.46 -1.996,0.819c-0.41,-0.329 -0.912,-0.498 -1.418,-0.498c-0.514,-0 -1.031,0.175 -1.456,0.532c-0.473,0.397 -0.742,0.947 -0.797,1.516c-1.728,0.735 -3.7,1.578 -5.771,2.466c1.558,-0.446 3.128,-0.856 4.725,-1.173c0.204,-0.058 0.409,-0.111 0.613,-0.169l0.027,-0.018c0.157,-0.104 0.317,-0.198 0.478,-0.281c0.084,0.303 0.233,0.593 0.449,0.85c0.085,0.102 0.171,0.204 0.257,0.306c-6.699,2.497 -12.172,4.632 -16.026,6.165Zm182.604,-41.807c-0.627,-0 -1.25,-0.146 -1.815,-0.466c-0.12,-0.041 -0.213,-0.122 -0.322,-0.178c-0.186,-0.062 -0.37,-0.128 -0.556,-0.191c-0.716,-0.268 -1.387,-0.493 -2.03,-0.684c2.014,0.385 3.955,0.841 5.816,1.374c-0.358,0.095 -0.726,0.145 -1.093,0.145Zm1.31,-0.207l-4.941,-10.715c0.574,0.163 1.144,0.348 1.71,0.556c1.647,0.575 3.426,1.389 4.689,2.503l1.695,3.674c-0.056,0.655 -0.274,1.363 -0.692,2.129c-0.562,0.876 -1.464,1.536 -2.461,1.853Zm-39.221,-2.087c0.054,-0.09 0.102,-0.184 0.142,-0.28c4.703,-0.376 9.273,-0.579 13.667,-0.579c4.322,-0 8.473,0.196 12.41,0.614c-1.804,-0.063 -3.862,-0.059 -6.502,-0.127c-2.595,-0.133 -5.026,-0.193 -7.345,-0.193c-4.42,-0 -8.431,0.218 -12.372,0.565Z" style="fill-rule:nonzero;"/><path d="M254.831,182.18c-0.123,-0.117 -0.234,-0.25 -0.329,-0.396c-0.066,-0.1 -0.124,-0.208 -0.175,-0.321l-3.968,-8.91c1.593,-0.146 3.187,-0.278 4.783,-0.393l3.322,7.46c0.267,0.598 0.253,1.249 0.016,1.807c-0.04,0.096 -0.088,0.19 -0.142,0.28c-1.153,0.101 -2.301,0.214 -3.451,0.335c-0.02,0.046 -0.037,0.092 -0.056,0.138Z" style="fill-rule:nonzero;"/><path d="M41.857,253.024c-4.737,-0 -9.41,-1.181 -14.113,-1.676c-3.172,-0.053 -5.459,-3.821 -3.944,-6.611c0.17,-0.448 0.401,-0.829 0.677,-1.151c2.765,3.245 5.853,5.866 9.543,7.401c2.654,1.105 5.401,1.581 8.205,1.581c8.038,-0 16.549,-3.906 24.731,-8.081c6.939,-3.542 13.263,-6.9 19.38,-10.149c5.446,-2.893 11.058,-5.873 17.13,-8.996c0.78,-0.401 1.567,-0.805 2.362,-1.21c0.33,-0.169 0.682,-0.248 1.029,-0.248c0.487,-0 0.964,0.157 1.355,0.448c-0.123,0.552 -0.041,1.15 0.276,1.671c0.173,0.284 0.346,0.571 0.519,0.861c-0.16,0.483 -0.483,0.913 -0.94,1.2c-0.058,0.036 -0.118,0.07 -0.18,0.102c-6.957,3.551 -13.296,6.916 -19.427,10.173c-3.715,1.973 -7.506,3.986 -11.467,6.058c-0.327,-0.311 -0.655,-0.622 -0.983,-0.933c-0.435,-0.412 -0.992,-0.617 -1.548,-0.618c0.68,-0.907 1.598,-1.665 2.618,-2.148c1.586,-1.079 3.196,-2.12 4.82,-3.14c-1.111,0.56 -2.216,1.133 -3.336,1.674c-10.93,5.532 -21.585,12.92 -34.179,13.67c-0.846,0.085 -1.688,0.122 -2.528,0.122Z" style="fill-rule:nonzero;"/><path d="M153.754,284.53c-8.829,-8.005 -17.854,-17.288 -26.979,-27.758c-3.84,-4.407 -7.615,-11.421 -11.61,-18.848c-1.886,-3.505 -3.829,-7.115 -5.769,-10.405c-0.129,-0.22 -0.259,-0.438 -0.389,-0.655c-0.173,-0.29 -0.346,-0.577 -0.519,-0.861c-0.317,-0.521 -0.399,-1.119 -0.276,-1.671c0.129,-0.58 0.485,-1.109 1.032,-1.442c0.368,-0.225 0.774,-0.332 1.176,-0.332c0.764,-0 1.511,0.388 1.938,1.088c0.43,0.706 0.859,1.428 1.287,2.162c1.085,1.861 2.164,3.801 3.23,5.755c-0.177,0.062 -0.36,0.126 -0.547,0.192c0.712,0.933 1.274,1.765 2.048,2.905c-0.616,0.56 -0.908,1.439 -0.379,2.393c2.235,4.034 4.72,7.908 7.397,11.648c-0.717,0.909 -0.637,2.23 0.218,3.044c0.439,0.418 1,0.624 1.56,0.624c0.279,-0 0.558,-0.051 0.821,-0.153c2.837,3.717 5.851,7.302 8.979,10.781c3.583,3.984 7.576,7.634 11.599,11.169c2.025,1.778 4.087,3.512 6.167,5.225c0.291,0.24 0.599,0.492 0.921,0.746c0.161,0.148 0.324,0.297 0.486,0.444c0.1,1.345 -0.452,2.734 -1.626,3.467c-0.248,0.205 -0.504,0.364 -0.765,0.482Zm-42.361,-59.363c-0.481,0.206 -0.951,0.407 -1.408,0.604c0.318,0.142 0.636,0.297 0.951,0.483c0.098,-0.372 0.241,-0.738 0.457,-1.087Zm-29.547,26.703c-0.903,-0 -1.774,-0.305 -2.506,-0.811c-0.299,0.049 -0.601,0.073 -0.904,0.073c-0.37,-0 -0.739,-0.036 -1.1,-0.109c-1.305,-1.275 -2.618,-2.539 -3.939,-3.793c-0.384,-1.517 0.101,-3.099 1.065,-4.384c0.556,0.001 1.113,0.206 1.548,0.618c0.328,0.311 0.656,0.622 0.983,0.933c2.363,2.251 4.699,4.532 7.008,6.844c-0.053,0.033 -0.107,0.065 -0.16,0.098c-0.654,0.367 -1.333,0.531 -1.995,0.531Z" style="fill-rule:nonzero;"/><path d="M127.172,252.369c-0.56,-0 -1.121,-0.206 -1.56,-0.624c-0.855,-0.814 -0.935,-2.135 -0.218,-3.044c0.848,1.185 1.715,2.357 2.599,3.515c-0.263,0.102 -0.542,0.153 -0.821,0.153Zm7.644,-25.591c-1.341,-2.565 -3.255,-4.885 -5.145,-7.135c-0.086,-0.102 -0.172,-0.204 -0.257,-0.306c-0.216,-0.257 -0.365,-0.547 -0.449,-0.85c0.727,-0.377 1.486,-0.548 2.232,-0.548c3.22,-0 6.164,3.191 4.979,6.689c-0.253,0.84 -0.735,1.573 -1.36,2.15Zm-5.923,-9.116c0.055,-0.569 0.324,-1.119 0.797,-1.516c0.425,-0.357 0.942,-0.532 1.456,-0.532c0.506,-0 1.008,0.169 1.418,0.498c-1.007,0.421 -2.257,0.949 -3.671,1.55Z" style="fill-rule:nonzero;"/><path d="M234.263,174.684c-0.132,-0 -0.262,-0.035 -0.377,-0.101c0.31,-0.047 0.62,-0.094 0.93,-0.14c-0.05,0.054 -0.11,0.102 -0.178,0.141c-0.117,0.067 -0.247,0.1 -0.375,0.1Z" style="fill-rule:nonzero;"/><path d="M220.692,178.958c-0.259,-0 -0.511,-0.134 -0.652,-0.374l-0.745,-1.272c0.515,-0.113 1.03,-0.23 1.544,-0.353l0.504,0.862c0.21,0.36 0.09,0.823 -0.27,1.034c-0.12,0.069 -0.251,0.103 -0.381,0.103Z" style="fill-rule:nonzero;"/><path d="M205.59,185.192c-0.258,-0 -0.509,-0.134 -0.65,-0.371l-2.847,-4.803c0.539,-0.079 1.078,-0.156 1.618,-0.231l2.528,4.264c0.212,0.359 0.095,0.823 -0.264,1.034c-0.122,0.073 -0.254,0.107 -0.385,0.107Z" style="fill-rule:nonzero;"/><path d="M188.807,189.309c-0.264,-0 -0.52,-0.138 -0.659,-0.387l-2.74,-4.886c0.493,-0.15 0.985,-0.3 1.478,-0.449l2.579,4.598c0.204,0.363 0.074,0.823 -0.289,1.028c-0.117,0.065 -0.244,0.096 -0.369,0.096Z" style="fill-rule:nonzero;"/><path d="M303.61,73.222c-0.666,-0 -1.325,-0.292 -1.773,-0.852c-0.779,-0.979 -0.619,-2.404 0.36,-3.184l37.451,-29.857c0.652,-0.518 2.013,-1.602 3.768,-1.366c1.902,0.245 3.195,1.695 3.843,4.311l5.197,20.952c17.003,-12.071 34.2,-24.216 51.16,-36.13c1.024,-0.721 2.437,-0.475 3.156,0.552c0.72,1.023 0.472,2.436 -0.551,3.155c-17.856,12.543 -35.974,25.342 -53.851,38.041c-0.612,0.435 -1.398,0.538 -2.1,0.277c-0.702,-0.26 -1.23,-0.851 -1.412,-1.578l-5.997,-24.179c-0.068,-0.278 -0.134,-0.487 -0.193,-0.645l-0.196,0.152l-37.451,29.857c-0.417,0.334 -0.916,0.494 -1.411,0.494Z" style="fill-rule:nonzero;"/><path d="M343.579,120.984c-0.789,-0 -2.169,-0.073 -3.246,-1.084c-1.244,-1.171 -1.496,-2.902 -0.752,-5.148l3.233,-9.758c-9.152,0.865 -18.311,2.287 -27.275,4.233c-1.224,0.262 -2.429,-0.511 -2.694,-1.732c-0.266,-1.223 0.51,-2.429 1.733,-2.695c10.276,-2.233 20.804,-3.785 31.289,-4.619c0.768,-0.053 1.494,0.263 1.962,0.86c0.468,0.597 0.607,1.391 0.368,2.111l-4.315,13.026c-0.034,0.102 -0.062,0.193 -0.084,0.274l44.289,-0.363l0.019,-0c1.243,-0 2.254,1.002 2.265,2.246c0.01,1.252 -0.996,2.274 -2.246,2.285l-44.347,0.362l-0.199,0.002Z" style="fill-rule:nonzero;"/><path d="M282.698,48.559c-0.389,-0 -0.784,-0.1 -1.144,-0.311c-1.079,-0.634 -1.44,-2.022 -0.807,-3.101c8.193,-13.959 15.372,-28.667 21.333,-43.714c0.461,-1.164 1.775,-1.736 2.941,-1.271c1.163,0.46 1.732,1.777 1.271,2.94c-6.047,15.262 -13.327,30.179 -21.639,44.339c-0.421,0.719 -1.178,1.118 -1.955,1.118Z" style="fill-rule:nonzero;"/></g></svg>