<?xml version="1.0" encoding="UTF-8" standalone="no"?><!DOCTYPE svg PUBLIC "-//W3C//DTD SVG 1.1//EN" "http://www.w3.org/Graphics/SVG/1.1/DTD/svg11.dtd"><svg width="100%" height="100%" viewBox="0 0 391 375" version="1.1" xmlns="http://www.w3.org/2000/svg" xmlns:xlink="http://www.w3.org/1999/xlink" xml:space="preserve" xmlns:serif="http://www.serif.com/" style="fill-rule:evenodd;clip-rule:evenodd;stroke-linejoin:round;stroke-miterlimit:2;"><g><path d="M219.093,285.174c-1.632,21.936 -3.264,43.871 -4.897,65.807c10.961,6.258 21.555,12.17 31.755,18.692c-42.346,0.956 -85.406,1.739 -128.466,2.523c11.718,-6.716 23.794,-11.989 35.872,-17.262c-1.044,-21.244 -3.059,-43.254 -4.172,-64.56c5.367,-1.89 11.221,-1.565 16.91,-1.395c17.416,0.525 34.882,-0.621 52.998,-3.805Z" style="fill:#fff;fill-rule:nonzero;"/><path d="M151.541,292.021c0.529,9.688 1.241,19.65 1.929,29.302c0.791,11.044 1.607,22.463 2.149,33.502c0.045,0.939 -0.494,1.809 -1.357,2.186c-9.097,3.972 -18.435,8.048 -27.552,12.753c36.886,-0.673 74.718,-1.372 111.601,-2.186c-6.67,-4.058 -13.492,-7.943 -20.614,-11.995l-4.625,-2.636c-0.758,-0.433 -1.2,-1.264 -1.135,-2.135l4.682,-62.917c-16.818,2.769 -33.401,3.86 -50.593,3.349l-1.082,-0.034c-4.526,-0.145 -9.182,-0.291 -13.403,0.811Zm-34.056,82.441c-1.018,0 -1.911,-0.679 -2.184,-1.662c-0.275,-0.997 0.161,-2.055 1.057,-2.569c11.357,-6.51 23.178,-11.732 34.659,-16.746c-0.539,-10.503 -1.314,-21.342 -2.065,-31.839c-0.733,-10.261 -1.492,-20.871 -2.029,-31.154c-0.052,-1.004 0.562,-1.922 1.509,-2.255c5.429,-1.91 11.137,-1.731 16.655,-1.555l1.075,0.034c17.861,0.538 35.045,-0.697 52.538,-3.772c0.696,-0.118 1.396,0.082 1.913,0.551c0.518,0.47 0.79,1.15 0.738,1.849l-4.789,64.376l3.377,1.925c9.475,5.393 18.422,10.486 27.232,16.12c0.84,0.537 1.23,1.559 0.97,2.519c-0.27,0.96 -1.14,1.631 -2.13,1.654c-42.025,0.949 -85.46,1.739 -127.466,2.505l-1.019,0.019l-0.041,0Z" style="fill-rule:nonzero;"/><path d="M367.961,41.809c-4.87,109.957 -6.45,180.931 -6.45,253.963c-113.55,-1.876 -246.194,0 -359.005,0c2.589,-65.017 3.568,-160.793 -0.24,-258.307c122.486,2.605 247.995,2.189 365.695,4.344Z" style="fill:#fff;fill-rule:nonzero;"/><path d="M4.621,39.781c3.143,82.224 3.231,176.665 0.241,253.725c36.138,-0.009 73.617,-0.201 113.244,-0.404c81.272,-0.42 165.285,-0.851 241.145,0.367c0.03,-76.547 1.82,-146.913 6.35,-249.438c-53.88,-0.969 -110.54,-1.419 -165.357,-1.854c-64.261,-0.51 -130.685,-1.037 -195.623,-2.396Zm356.89,258.255l-0.04,0c-76.41,-1.262 -161.274,-0.829 -243.342,-0.404c-40.497,0.208 -78.747,0.404 -115.624,0.404c-0.616,0 -1.206,-0.25 -1.634,-0.696c-0.426,-0.444 -0.653,-1.043 -0.629,-1.659c3.111,-78.122 3.021,-174.619 -0.24,-258.127c-0.024,-0.624 0.21,-1.23 0.647,-1.675c0.437,-0.447 1.051,-0.656 1.665,-0.678c65.672,1.396 132.926,1.93 197.966,2.446c55.621,0.441 113.131,0.898 167.721,1.896c0.61,0.012 1.2,0.269 1.61,0.714c0.42,0.445 0.64,1.041 0.61,1.652c-4.64,104.741 -6.44,175.919 -6.44,253.862c-0,0.608 -0.25,1.189 -0.68,1.614c-0.42,0.418 -1,0.651 -1.59,0.651Z" style="fill-rule:nonzero;"/><path d="M296.711,261.299c-51.87,-0.242 -103.727,-0.804 -155.589,-1.375c-43.886,-0.483 -93.536,-0.385 -137.42,-1.071c-0,15.061 -0.045,26.268 -1.196,36.919c112.811,0 245.455,-1.998 359.005,0c0.64,-9.311 0.18,-22.505 0.18,-34.047c-19.09,-0.013 -45.9,-0.336 -64.98,-0.426Z" style="fill:#acd4f7;fill-rule:nonzero;"/><path d="M5.968,261.153c-0.008,13.627 -0.115,23.203 -0.96,32.353c36.092,-0.009 73.523,-0.215 113.096,-0.431c81.318,-0.445 165.377,-0.905 241.267,0.394c0.3,-6.163 0.22,-13.806 0.13,-21.224c-0.03,-2.776 -0.06,-5.551 -0.07,-8.257c-10.9,-0.021 -23.96,-0.128 -36.62,-0.235c-9.29,-0.076 -18.34,-0.152 -26.11,-0.189c-53.27,-0.247 -107.635,-0.846 -155.603,-1.374c-18.807,-0.208 -39.085,-0.309 -58.696,-0.408c-25.573,-0.13 -51.988,-0.263 -76.434,-0.629Zm355.543,36.883l-0.04,0c-76.41,-1.346 -161.274,-0.882 -243.342,-0.431c-40.496,0.222 -78.747,0.431 -115.624,0.431c-0.643,0 -1.256,-0.272 -1.685,-0.752c-0.429,-0.478 -0.636,-1.118 -0.566,-1.756c1.104,-10.216 1.184,-20.67 1.184,-36.675c-0,-0.608 0.243,-1.188 0.675,-1.615c0.434,-0.426 0.993,-0.654 1.625,-0.65c25.061,0.392 52.323,0.531 78.688,0.663c19.616,0.099 39.901,0.201 58.722,0.409c47.96,0.528 102.323,1.127 155.573,1.374c7.77,0.037 16.83,0.113 26.12,0.189c13.54,0.114 27.55,0.23 38.85,0.237c1.25,0.002 2.27,1.015 2.27,2.265c-0,3.394 0.04,6.931 0.08,10.47c0.09,8.394 0.19,17.075 -0.27,23.73c-0.08,1.191 -1.07,2.111 -2.26,2.111Z" style="fill-rule:nonzero;"/><path d="M215.044,305.155c0.074,-0.056 0.142,-0.108 0.204,-0.155c-0.065,0.055 -0.131,0.109 -0.204,0.155Zm0.204,-0.155c0.035,-0.029 0.069,-0.059 0.105,-0.088l-0.001,0.009c-0.033,0.025 -0.068,0.051 -0.104,0.079Z" style="fill:#dedede;fill-rule:nonzero;"/><path d="M215.352,304.921l0.001,-0.009c0.009,-0.007 0.018,-0.015 0.027,-0.022c0.025,-0.02 0.05,-0.038 0.073,-0.056c0.104,-0.075 0.206,-0.151 0.306,-0.23c0.021,-0.015 0.032,-0.023 0.033,-0.023c0.003,0 -0.127,0.101 -0.44,0.34Z" style="fill-rule:nonzero;"/><path d="M196.997,308.105c-2.109,0 -4.437,-0.063 -7.151,-0.17c-11.294,-0.235 -22.591,-0.665 -33.862,-1.441c-0.055,0.002 -0.109,0.003 -0.164,0.003c-1.417,0 -2.621,-0.618 -3.49,-1.554c-0.151,-2.276 -0.297,-4.551 -0.435,-6.817c0.131,-0.16 0.275,-0.314 0.432,-0.461c0.069,-0.073 0.14,-0.142 0.212,-0.206c21.116,-0.101 42.296,-0.187 63.385,-0.229l-0.571,7.681c-0.139,0.105 -0.303,0.231 -0.484,0.372c-0.823,0.477 -1.729,0.818 -2.623,1.14c-5.628,1.241 -9.675,1.683 -15.249,1.682Z" style="fill:#dedede;fill-rule:nonzero;"/><path d="M152.33,304.943c-1.671,-1.801 -2.104,-4.78 -0.435,-6.817c0.138,2.266 0.284,4.541 0.435,6.817Zm63.023,-0.032l0.571,-7.681c0.575,-0.002 1.148,-0.003 1.722,-0.004c0.924,1.714 0.955,3.892 -0.254,5.636c-0.439,0.681 -1.002,1.249 -1.633,1.742c-0.051,0.037 -0.158,0.118 -0.306,0.23c-0.025,0.018 -0.049,0.037 -0.073,0.056c-0.009,0.007 -0.018,0.014 -0.027,0.021Z" style="fill-rule:nonzero;"/><path d="M152.539,297.459c0.014,-0.013 0.028,-0.026 0.042,-0.038c21.666,-0.11 43.404,-0.204 65.036,-0.248c0.01,0.018 0.019,0.035 0.029,0.053c-0.574,0.001 -1.147,0.002 -1.722,0.004c-21.089,0.042 -42.269,0.128 -63.385,0.229Z" style="fill-rule:nonzero;"/><path d="M154.771,292.88c0.869,-1.141 2.33,-1.745 3.767,-1.745c0.442,0 0.883,0.057 1.303,0.174l0.077,0.012c0.373,0.043 0.747,0.09 1.117,0.157l0.121,0.019c0.776,0.091 2.189,0.254 2.8,0.293c6.661,0.209 13.336,0.005 19.964,0.856c0.272,0.033 0.544,0.066 0.816,0.099c-9.99,0.039 -19.988,0.085 -29.965,0.135Z" style="fill:#96b9d7;fill-rule:nonzero;"/><path d="M152.581,297.421c0.327,-0.287 0.679,-0.497 1.04,-0.674c-0.169,-1.305 0.141,-2.684 1.002,-3.659c0.047,-0.071 0.097,-0.14 0.148,-0.208c9.977,-0.05 19.975,-0.096 29.965,-0.135c5.501,0.669 11.006,1.348 16.559,1.35c0.501,0.021 1.005,0.029 1.51,0.029c0.988,0 1.982,-0.032 2.977,-0.064c0.995,-0.033 1.99,-0.065 2.982,-0.065c1.907,0 3.8,0.12 5.645,0.593c1.432,0.415 2.542,1.382 3.208,2.585c-21.632,0.044 -43.37,0.138 -65.036,0.248Z" style="fill-rule:nonzero;"/><path d="M215.38,304.89c0.024,-0.019 0.048,-0.038 0.073,-0.056c0.148,-0.112 0.255,-0.193 0.306,-0.23c-0.1,0.079 -0.202,0.155 -0.306,0.23c-0.023,0.018 -0.048,0.036 -0.073,0.056Z" style="fill-rule:nonzero;"/><path d="M108.128,205.906c-1.251,0 -2.266,-1.015 -2.266,-2.265c-0,-1.25 1.015,-2.265 2.266,-2.265c19.625,0 63.367,-0.646 63.806,-0.653l0.034,0c1.236,0 2.246,0.992 2.265,2.231c0.018,1.25 -0.981,2.28 -2.231,2.299c-0.44,0.006 -44.215,0.653 -63.874,0.653Z" style="fill-rule:nonzero;"/><path d="M145.032,156.654l-33.551,-0.033c-1.25,-0.001 -2.264,-1.016 -2.262,-2.268c0.001,-1.249 1.014,-2.262 2.265,-2.262l0.003,0l33.517,0.032l0.03,2.266l-0.002,2.265Z" style="fill-rule:nonzero;"/><path d="M140.051,108.618l-0.21,-0.009c-4.076,-0.373 -10.677,-0.269 -17.664,-0.155c-3.352,0.053 -6.739,0.108 -9.892,0.108c-1.251,0 -2.265,-1.015 -2.265,-2.265c-0,-1.251 1.014,-2.266 2.265,-2.266c3.129,0 6.493,-0.054 9.82,-0.107c7.109,-0.115 13.828,-0.222 18.149,0.172c1.245,0.114 2.163,1.217 2.05,2.463c-0.108,1.175 -1.096,2.059 -2.253,2.059Z" style="fill-rule:nonzero;"/><path d="M348.241,72.949c12.95,-11.556 26.45,-22.497 40.44,-32.771c-11.93,-1.582 -23.56,-2.434 -35.2,-3.102c2.96,-11.684 5.16,-23.248 7.36,-34.811c-13.52,9.219 -25.09,18.472 -39.96,30.88c-2.01,10.553 -4.68,21.713 -4.19,33.429c9.29,3.155 21.54,3.668 31.55,6.375Z" style="fill:#fff;fill-rule:nonzero;"/><path d="M318.911,64.903c4.62,1.383 10.02,2.226 15.27,3.043c4.51,0.704 9.15,1.429 13.46,2.506c11.27,-10.01 23.07,-19.651 35.15,-28.722c-10.6,-1.221 -20.72,-1.893 -29.44,-2.394c-0.68,-0.038 -1.3,-0.376 -1.7,-0.922c-0.4,-0.546 -0.53,-1.24 -0.37,-1.895c2.48,-9.772 4.45,-19.612 6.29,-29.235c-11.37,8.023 -21.63,16.251 -34.62,27.083c-0.24,1.248 -0.49,2.503 -0.74,3.769c-1.7,8.636 -3.46,17.551 -3.3,26.767Zm29.33,10.311c-0.2,0 -0.4,-0.025 -0.59,-0.078c-4.39,-1.188 -9.36,-1.963 -14.17,-2.712c-6.01,-0.938 -12.23,-1.907 -17.51,-3.706c-0.89,-0.301 -1.5,-1.115 -1.54,-2.051c-0.43,-10.313 1.49,-20.021 3.34,-29.409c0.3,-1.525 0.6,-3.035 0.88,-4.535c0.1,-0.515 0.38,-0.98 0.78,-1.315c15.1,-12.608 26.51,-21.724 40.13,-31.015c0.76,-0.517 1.75,-0.524 2.52,-0.023c0.77,0.502 1.15,1.416 0.98,2.317c-2,10.541 -4.07,21.416 -6.72,32.286c9.73,0.585 20.98,1.414 32.64,2.958c0.92,0.123 1.67,0.788 1.9,1.685c0.23,0.895 -0.11,1.841 -0.86,2.387c-13.88,10.197 -27.43,21.176 -40.27,32.636c-0.42,0.375 -0.96,0.575 -1.51,0.575Z" style="fill-rule:nonzero;"/><path d="M260.281,55.014c-18.84,-4.223 -39.254,-1.408 -56.138,7.741c-16.885,9.148 -30.077,24.542 -36.275,42.33c-4.114,11.807 -5.203,24.449 -4.708,36.905c0.685,17.264 9.928,34.618 23.401,45.485c16.637,13.419 32.659,20.168 51.62,21.422c25.7,1.7 51.69,-11.007 66.33,-31.592c14.64,-20.586 17.76,-48.219 8.91,-71.714c-8.85,-23.495 -28.41,-45.035 -53.14,-50.577Z" style="fill:#fff;fill-rule:nonzero;"/><path d="M242.791,55.363c-13.075,0 -26.167,3.206 -37.568,9.383c-16.372,8.871 -29.208,23.845 -35.217,41.083c-3.634,10.429 -5.131,22.228 -4.583,36.071c0.648,16.323 9.292,33.111 22.56,43.812c16.433,13.256 31.962,19.709 50.348,20.924c24.71,1.622 49.94,-10.397 64.33,-30.644c14.06,-19.766 17.37,-46.436 8.64,-69.605c-9.4,-24.959 -29.62,-44.257 -51.51,-49.163c-5.57,-1.248 -11.28,-1.861 -17,-1.861Zm-0,155.951c-1.59,0 -3.17,-0.051 -4.76,-0.156c-19.373,-1.282 -35.687,-8.042 -52.891,-21.919c-14.256,-11.498 -23.545,-29.568 -24.244,-47.158c-0.573,-14.421 1.009,-26.767 4.834,-37.741c6.374,-18.293 19.981,-34.176 37.334,-43.577c17.338,-9.395 38.367,-12.291 57.717,-7.96c23.34,5.232 44.84,25.639 54.76,51.989c9.25,24.559 5.73,52.847 -9.18,73.824c-14.37,20.202 -38.91,32.698 -63.57,32.698Z" style="fill-rule:nonzero;"/><path d="M252.491,89.354c-10.15,-2.226 -21.147,-0.742 -30.24,4.08c-9.093,4.823 -16.198,12.937 -19.536,22.313c-2.216,6.225 -2.802,12.889 -2.536,19.455c0.369,9.1 5.347,18.248 12.604,23.976c8.959,7.074 17.588,10.631 27.798,11.293c13.84,0.895 27.84,-5.803 35.73,-16.654c7.88,-10.851 9.56,-25.418 4.8,-37.803c-4.771,-12.385 -15.31,-23.739 -28.62,-26.66Z" style="fill:#acd4f7;fill-rule:nonzero;"/><path d="M243.061,90.609c-6.87,0 -13.756,1.648 -19.748,4.826c-8.587,4.554 -15.318,12.234 -18.464,21.072c-1.91,5.366 -2.697,11.45 -2.406,18.603c0.336,8.296 4.835,16.838 11.744,22.289c8.675,6.851 16.861,10.184 26.544,10.81c12.94,0.853 26.19,-5.331 33.739,-15.724c7.361,-10.125 9.091,-23.788 4.521,-35.657c-4.94,-12.832 -15.531,-22.748 -26.99,-25.263c-2.93,-0.641 -5.93,-0.956 -8.94,-0.956Zm-0,82.206c-0.87,0 -1.75,-0.028 -2.62,-0.084c-10.659,-0.691 -19.621,-4.321 -29.063,-11.774c-7.916,-6.25 -13.074,-16.083 -13.463,-25.665c-0.313,-7.741 0.558,-14.382 2.665,-20.304c3.522,-9.892 11.034,-18.478 20.61,-23.555c9.55,-5.066 21.131,-6.629 31.781,-4.292c13.1,2.874 24.7,13.627 30.25,28.06c5.11,13.287 3.17,28.594 -5.08,39.947c-7.931,10.914 -21.47,17.667 -35.08,17.667Z" style="fill-rule:nonzero;"/><path d="M243.011,130.382c-0.63,0 -1.25,-0.257 -1.69,-0.76c-0.84,-0.934 -0.75,-2.365 0.18,-3.197c42.94,-38.235 88.17,-74.956 134.42,-109.138c1.01,-0.743 2.43,-0.532 3.17,0.475c0.74,1.006 0.53,2.424 -0.47,3.168c-46.15,34.102 -91.27,70.735 -134.11,108.878c-0.43,0.384 -0.97,0.574 -1.5,0.574Z" style="fill-rule:nonzero;"/><path d="M326.181,66.612c-1.86,-0.351 -3.67,-0.739 -5.4,-1.187c11.01,-8.812 22.12,-17.501 33.3,-26.047c1.38,0.08 2.8,0.165 4.24,0.256c-0,0.001 0.01,0.002 0.01,0.004c1.3,2.128 0.03,4.698 -2.08,5.696c-2.23,1.482 -4.38,3.091 -6.61,4.58c-7.84,5.545 -15.83,10.877 -23.46,16.698Z" style="fill:#dedede;fill-rule:nonzero;"/><path d="M322.731,68.418c-1.35,-0.001 -2.58,-0.845 -3.2,-1.994c0.42,-0.333 0.84,-0.667 1.25,-0.999c1.73,0.448 3.54,0.836 5.4,1.187c-0.57,0.431 -1.13,0.865 -1.69,1.302c-0.59,0.35 -1.19,0.504 -1.76,0.504Zm35.59,-28.784c-1.44,-0.091 -2.86,-0.176 -4.24,-0.256c0.65,-0.502 1.31,-1.004 1.97,-1.505c0.83,0.212 1.61,0.762 2.27,1.761Z" style="fill-rule:nonzero;"/><path d="M319.531,66.424c-0.6,-1.122 -0.63,-2.535 0.37,-3.738c6.78,-5.893 15.99,-11.73 25.05,-18.468c2.12,-1.48 4.17,-3.054 6.25,-4.592c1.21,-1.092 2.65,-1.856 4.01,-1.856c0.28,0 0.56,0.033 0.84,0.103c-0.66,0.501 -1.32,1.003 -1.97,1.505c-11.18,8.546 -22.29,17.235 -33.3,26.047c-0.41,0.332 -0.83,0.666 -1.25,0.999Z" style="fill-rule:nonzero;"/><path d="M277.261,125.19c0.04,-0.361 0.069,-0.547 0.079,-0.547c-0,0 -0.019,0.18 -0.079,0.547Z" style="fill:#96b9d7;fill-rule:nonzero;"/><path d="M232.519,159.181c-0.147,-0.02 -0.28,-0.041 -0.425,-0.061c0.2,0.02 0.38,0.042 0.425,0.061Z" style="fill:#96b9d7;fill-rule:nonzero;"/><path d="M243.111,168.288c-0.79,0 -1.59,-0.026 -2.38,-0.079c-9.683,-0.626 -17.869,-3.959 -26.544,-10.81c-2.106,-1.661 -3.988,-3.61 -5.596,-5.751c0.709,-0.957 1.842,-1.607 3.053,-1.607c0.862,0 1.765,0.33 2.58,1.114c5.09,4.717 8.876,6.704 17.87,7.965l-0.198,-0.02c2.005,0.335 4.175,0.554 6.405,0.554c2.55,0 5.18,-0.285 7.73,-1.007c7.85,-2.319 12.4,-4.56 18.03,-9.104c4.779,-4.362 9.43,-11.654 11.22,-16.479c0.89,-2.456 1.47,-5.015 1.929,-7.583c0.02,-0.111 0.041,-0.202 0.051,-0.291c-0.01,0.083 -0.02,0.165 -0.031,0.266c0.531,-2.442 -0.39,-5.729 1.921,-7.399c0.069,-0.064 0.15,-0.124 0.23,-0.181c4.07,11.619 2.23,24.781 -4.911,34.609c-7.079,9.756 -19.189,15.803 -31.359,15.803Z" style="fill:#96b9d7;fill-rule:nonzero;"/><path d="M285.771,125.708c-0.27,-2.499 -0.77,-4.981 -1.5,-7.415c0.14,0.141 0.27,0.295 0.39,0.463c1.28,1.649 0.97,4.015 1.11,5.998l-0,0.954Z" style="fill:#dedede;fill-rule:nonzero;"/><path d="M246.301,172.132c-1.15,0 -2.2,-0.519 -3.12,-2.532c-0.07,-0.472 -0.07,-0.88 -0.05,-1.255c-1.43,0.161 -2.88,0.253 -4.36,0.253c-0.51,0 -1.03,-0.011 -1.55,-0.034c-10.393,-0.971 -20.85,-4.542 -28.27,-12.136c-1.503,-1.587 -1.328,-3.471 -0.36,-4.78c1.608,2.141 3.49,4.09 5.596,5.751c8.675,6.851 16.861,10.184 26.544,10.81c0.79,0.053 1.59,0.079 2.38,0.079c12.17,0 24.28,-6.047 31.359,-15.803c7.141,-9.828 8.981,-22.99 4.911,-34.609c0.62,-0.448 1.38,-0.664 2.16,-0.664c1.01,0 2.03,0.372 2.73,1.081c0.73,2.434 1.23,4.916 1.5,7.415c0.01,4.75 -0.29,9.56 -1.73,14.109c-2.43,7.762 -6.59,14.915 -12.53,20.518c-4.59,4.47 -9.76,8.831 -16.24,10.036c-3.81,0.839 -2.65,0.566 -5.9,1.248c-1.09,0.156 -2.12,0.513 -3.07,0.513Z" style="fill-rule:nonzero;"/><path d="M235.391,210.172c-0,0 -0.06,-0.014 -0.15,-0.032l0.08,0.014c0.05,0.013 0.08,0.018 0.07,0.018Z" style="fill-rule:nonzero;"/><path d="M242.791,206.782c-1.48,0 -2.97,-0.049 -4.46,-0.146c-3.22,-0.213 -6.354,-0.587 -9.42,-1.13c0.211,-0.469 0.563,-0.878 1.066,-1.148c0.413,-0.25 0.877,-0.355 1.347,-0.355c0.166,0 0.333,0.013 0.498,0.038c0.911,0.084 1.819,0.182 2.739,0.225c1.18,0.071 2.37,0.109 3.57,0.109c1.02,0 2.05,-0.028 3.07,-0.09c0.25,-0.018 0.5,-0.049 0.75,-0.077c0.15,-0.028 0.39,-0.066 0.65,-0.097c7.21,-1.186 14.16,-3.44 20.95,-6.059c0.799,-0.284 1.61,-0.573 2.409,-0.851c-0.519,0.302 -1.039,0.605 -1.559,0.907c4.98,-2.899 4.079,-1.169 9.49,-5.179c5.86,-4.015 15.74,-13.456 20.69,-21.056c2.35,-3.467 4.31,-7.178 6.06,-10.973c0.96,-1.718 0.46,-1.524 1.21,-2.772c0.47,-1.14 0.95,-2.281 1.39,-3.432c2.18,-5.851 4.54,-11.68 5.79,-17.812c0.93,-4.322 1,-10.406 0.04,-14.915c-0.76,-2.454 1.39,-4.729 3.68,-4.729c0.6,0 1.22,0.16 1.79,0.517c0.02,0.007 0.03,0.014 0.04,0.021c4.11,20.167 -0.12,41.622 -11.92,58.214c-13.53,19.03 -36.62,30.791 -59.87,30.79Z" style="fill:#dedede;fill-rule:nonzero;"/><path d="M239.631,210.44c-1.52,0 -3.04,-0.102 -4.56,-0.331l0.17,0.031c-0.13,-0.015 -0.25,-0.039 -0.37,-0.057l-0.17,-0.021l0.05,0.003c-1.35,-0.192 -2.697,-0.442 -4.028,-0.741c-1.765,-0.329 -2.464,-2.365 -1.812,-3.818c3.066,0.543 6.2,0.917 9.42,1.13c1.49,0.097 2.98,0.146 4.46,0.146c23.25,0.001 46.34,-11.76 59.87,-30.79c11.8,-16.592 16.03,-38.047 11.92,-58.214c1.22,0.688 1.75,2.036 1.9,3.37c0.46,2.15 0.7,4.338 0.86,6.528c0.66,5.23 0.01,10.52 -0.97,15.676c0.05,-0.383 0.11,-0.766 0.16,-1.149c-1.05,6.6 -3.44,12.925 -5.73,19.181c0.02,-0.157 0.04,-0.315 0.07,-0.472c-0.37,1.881 -1.49,3.61 -2.17,5.401c-1.79,3.967 -3.8,7.856 -6.46,11.319c-7.53,10.31 -17.48,19.099 -29.011,24.642c-2.029,0.795 -4.169,1.589 -6.329,1.851c0.199,-0.011 0.75,-0.117 0.85,-0.117c0.05,0 -0.01,0.028 -0.291,0.111c-5.299,1.627 -10.5,3.602 -15.959,4.66c-3.9,0.953 -7.88,1.661 -11.87,1.661Z" style="fill-rule:nonzero;"/><path d="M68.036,116.251l-0.044,0c-0.853,-0.018 -1.624,-0.512 -1.996,-1.28c-3.063,-6.34 -6.803,-12.364 -11.115,-17.906c-0.768,-0.987 -0.591,-2.41 0.397,-3.178c0.987,-0.769 2.408,-0.593 3.178,0.396c3.61,4.639 6.837,9.602 9.624,14.798l12.52,-23.532c0.589,-1.105 1.963,-1.521 3.065,-0.935c1.103,0.587 1.522,1.96 0.935,3.064l-14.564,27.373c-0.394,0.738 -1.164,1.2 -2,1.2Z" style="fill-rule:nonzero;"/><path d="M68.036,167.595l-0.044,0c-0.853,-0.018 -1.624,-0.512 -1.996,-1.28c-3.063,-6.34 -6.803,-12.364 -11.115,-17.906c-0.768,-0.987 -0.591,-2.41 0.397,-3.179c0.987,-0.769 2.408,-0.594 3.178,0.397c3.61,4.638 6.837,9.602 9.624,14.798l12.52,-23.532c0.589,-1.107 1.963,-1.519 3.065,-0.936c1.103,0.587 1.522,1.96 0.935,3.065l-14.564,27.372c-0.394,0.739 -1.164,1.201 -2,1.201Z" style="fill-rule:nonzero;"/><path d="M68.036,218.938l-0.044,0c-0.853,-0.018 -1.624,-0.511 -1.996,-1.28c-3.063,-6.34 -6.803,-12.364 -11.115,-17.906c-0.768,-0.986 -0.591,-2.41 0.397,-3.178c0.987,-0.768 2.408,-0.594 3.178,0.397c3.61,4.638 6.837,9.602 9.624,14.797l12.52,-23.532c0.589,-1.106 1.963,-1.519 3.065,-0.935c1.103,0.587 1.522,1.96 0.935,3.065l-14.564,27.372c-0.394,0.739 -1.164,1.2 -2,1.2Z" style="fill-rule:nonzero;"/><path d="M329.331,50.826l-0.08,-0.004c-0.42,-0.046 -0.72,-0.419 -0.67,-0.833l2.11,-19.347c0.05,-0.416 0.43,-0.702 0.83,-0.668c0.42,0.046 0.72,0.418 0.67,0.833l-2.11,19.347c-0.04,0.386 -0.37,0.672 -0.75,0.672Z" style="fill-rule:nonzero;"/><path d="M342.941,39.989c-0.42,0 -0.75,-0.338 -0.76,-0.754c-0.01,-6.249 0.43,-12.548 1.32,-18.723c0.06,-0.414 0.45,-0.694 0.85,-0.64c0.41,0.059 0.7,0.443 0.64,0.856c-0.87,6.1 -1.31,12.327 -1.3,18.504c0.01,0.418 -0.33,0.755 -0.75,0.757Z" style="fill-rule:nonzero;"/><path d="M352.431,250.36l-0.06,-0.003c-11.24,-0.879 -22.66,-1.278 -33.92,-1.172l-0.01,0c-0.41,0 -0.75,-0.334 -0.75,-0.748c-0.01,-0.417 0.33,-0.758 0.74,-0.763c11.31,-0.1 22.77,0.296 34.06,1.179c0.41,0.032 0.72,0.395 0.69,0.811c-0.03,0.395 -0.36,0.696 -0.75,0.696Z" style="fill-rule:nonzero;"/><path d="M344.691,238.424c-3.74,0 -7.47,-0.254 -11.17,-0.758c-0.41,-0.056 -0.7,-0.437 -0.65,-0.85c0.06,-0.414 0.45,-0.721 0.85,-0.646c6.1,0.829 12.31,0.966 18.45,0.399c0.41,-0.023 0.78,0.265 0.82,0.682c0.04,0.415 -0.27,0.783 -0.68,0.822c-2.53,0.233 -5.08,0.351 -7.62,0.351Z" style="fill-rule:nonzero;"/><path d="M16.502,54.782c-0.392,0 -0.724,-0.304 -0.752,-0.702c-0.028,-0.416 0.285,-0.777 0.7,-0.807c8.107,-0.566 16.325,-0.815 24.436,-0.737c0.418,0.004 0.752,0.345 0.748,0.762c-0.004,0.415 -0.341,0.748 -0.755,0.748l-0.007,0c-8.055,-0.077 -16.249,0.169 -24.316,0.734l-0.054,0.002Z" style="fill-rule:nonzero;"/></g></svg>