<?xml version="1.0" encoding="UTF-8" standalone="no"?><!DOCTYPE svg PUBLIC "-//W3C//DTD SVG 1.1//EN" "http://www.w3.org/Graphics/SVG/1.1/DTD/svg11.dtd"><svg width="100%" height="100%" viewBox="0 0 545 545" version="1.1" xmlns="http://www.w3.org/2000/svg" xmlns:xlink="http://www.w3.org/1999/xlink" xml:space="preserve" xmlns:serif="http://www.serif.com/" style="fill-rule:evenodd;clip-rule:evenodd;stroke-linejoin:round;stroke-miterlimit:2;"><g><g><path d="M131.153,332.231c-33.055,-77.981 3.419,-168.129 81.4,-201.184c77.981,-33.056 168.129,3.418 201.184,81.4c33.056,77.981 -3.418,168.129 -81.4,201.184c-77.981,33.055 -168.129,-3.419 -201.184,-81.4Z" style="fill:#ffe900;"/><path d="M98.324,307.439c5.3,21.91 14.687,44.027 27.434,64.721c-48.981,40.949 -119.009,25.577 -123.999,14.387c-4.897,-10.986 30.016,-68.122 96.565,-79.108Z" style="fill:#9abd36;"/><path d="M124.551,173.963c-11.754,19.235 -20.766,41.507 -26.397,65.151c-63.587,-5.71 -102.206,-66.116 -97.815,-77.555c4.31,-11.229 69.406,-26.911 124.212,12.404Z" style="fill:#009547;"/><path d="M237.516,98.183c-21.915,5.279 -44.041,14.644 -64.748,27.371c-40.901,-49.021 -25.461,-119.034 -14.265,-124.013c10.989,-4.887 68.091,30.083 79.013,96.642Z" style="fill:#00a0db;"/><path d="M370.965,124.541c-19.223,-11.773 -41.486,-20.807 -65.125,-26.461c5.773,-63.582 66.217,-102.141 77.651,-97.739c11.225,4.321 26.843,69.432 -12.526,124.2Z" style="fill:#362983;"/><path d="M420.146,371.003c11.792,-19.211 20.848,-41.465 26.525,-65.099c63.576,5.835 102.076,66.317 97.663,77.747c-4.331,11.22 -69.458,26.775 -124.188,-12.648Z" style="fill:#e40274;"/><path d="M307.034,446.562c21.925,-5.235 44.07,-14.557 64.801,-27.244c40.805,49.101 25.228,119.084 14.023,124.041c-11,4.865 -68.033,-30.216 -78.824,-96.797Z" style="fill:#e31e2f;"/><path d="M173.636,419.943c19.2,11.811 41.445,20.889 65.073,26.589c-5.897,63.57 -66.417,102.011 -77.842,97.587c-11.216,-4.343 -26.707,-69.485 12.769,-124.176Z" style="fill:#ec7b23;"/><path d="M416.791,172.445c12.06,19.044 21.427,41.169 27.434,64.721c63.488,-6.725 101.137,-67.741 96.565,-79.108c-4.489,-11.158 -69.828,-25.799 -123.999,14.387Z" style="fill:#a01f80;"/></g></g></svg>